<mxfile host="app.diagrams.net" agent="Mozilla/5.0 (Windows NT 10.0; Win64; x64) AppleWebKit/537.36 (KHTML, like Gecko) Chrome/131.0.0.0 Safari/537.36 Edg/131.0.0.0" version="25.0.3">
  <diagram name="第 1 页" id="nsKW03j923qmz2HF_VSc">
    <mxGraphModel dx="1774" dy="923" grid="1" gridSize="10" guides="1" tooltips="1" connect="1" arrows="1" fold="1" page="1" pageScale="1" pageWidth="1000" pageHeight="1000" math="0" shadow="0">
      <root>
        <mxCell id="0" />
        <mxCell id="1" parent="0" />
        <mxCell id="2kREBUdH7p19kiy_EeAZ-1" value="bos" style="rounded=0;whiteSpace=wrap;html=1;fillColor=#99CCFF;strokeColor=default;fontColor=#333333;fontSize=10;align=center;verticalAlign=middle;fontFamily=Helvetica;" vertex="1" parent="1">
          <mxGeometry x="380" y="60" width="20" height="20" as="geometry" />
        </mxCell>
        <mxCell id="2kREBUdH7p19kiy_EeAZ-2" value="bos" style="rounded=0;whiteSpace=wrap;html=1;fillColor=#99FF99;strokeColor=default;fontColor=#333333;fontSize=10;align=center;verticalAlign=middle;fontFamily=Helvetica;" vertex="1" parent="1">
          <mxGeometry x="380" y="90" width="20" height="20" as="geometry" />
        </mxCell>
        <mxCell id="2kREBUdH7p19kiy_EeAZ-3" value="" style="rounded=0;whiteSpace=wrap;html=1;fillColor=#f5f5f5;strokeColor=default;fontColor=#333333;fontSize=10;" vertex="1" parent="1">
          <mxGeometry x="410" y="90" width="20" height="20" as="geometry" />
        </mxCell>
        <mxCell id="2kREBUdH7p19kiy_EeAZ-4" value="" style="rounded=0;whiteSpace=wrap;html=1;fillColor=#f5f5f5;strokeColor=default;fontSize=10;align=center;verticalAlign=middle;fontFamily=Helvetica;fontColor=#333333;" vertex="1" parent="1">
          <mxGeometry x="410" y="60" width="20" height="20" as="geometry" />
        </mxCell>
        <mxCell id="2kREBUdH7p19kiy_EeAZ-5" value="" style="rounded=0;whiteSpace=wrap;html=1;fillColor=#f5f5f5;strokeColor=default;fontSize=10;align=center;verticalAlign=middle;fontFamily=Helvetica;fontColor=#333333;" vertex="1" parent="1">
          <mxGeometry x="440" y="60" width="20" height="20" as="geometry" />
        </mxCell>
        <mxCell id="2kREBUdH7p19kiy_EeAZ-6" value="" style="rounded=0;whiteSpace=wrap;html=1;fillColor=#f5f5f5;strokeColor=default;fontColor=#333333;fontSize=10;" vertex="1" parent="1">
          <mxGeometry x="440" y="90" width="20" height="20" as="geometry" />
        </mxCell>
        <mxCell id="2kREBUdH7p19kiy_EeAZ-7" value="" style="rounded=0;whiteSpace=wrap;html=1;fillColor=#f5f5f5;strokeColor=default;fontColor=#333333;fontSize=10;" vertex="1" parent="1">
          <mxGeometry x="470" y="90" width="20" height="20" as="geometry" />
        </mxCell>
        <mxCell id="2kREBUdH7p19kiy_EeAZ-8" value="" style="rounded=0;whiteSpace=wrap;html=1;fillColor=#f5f5f5;strokeColor=default;fontSize=10;align=center;verticalAlign=middle;fontFamily=Helvetica;fontColor=#333333;" vertex="1" parent="1">
          <mxGeometry x="470" y="60" width="20" height="20" as="geometry" />
        </mxCell>
        <mxCell id="2kREBUdH7p19kiy_EeAZ-9" value="" style="rounded=0;whiteSpace=wrap;html=1;fillColor=#f5f5f5;strokeColor=default;fontSize=10;align=center;verticalAlign=middle;fontFamily=Helvetica;fontColor=#333333;" vertex="1" parent="1">
          <mxGeometry x="500" y="60" width="20" height="20" as="geometry" />
        </mxCell>
        <mxCell id="2kREBUdH7p19kiy_EeAZ-10" value="" style="rounded=0;whiteSpace=wrap;html=1;fillColor=#f5f5f5;strokeColor=default;fontColor=#333333;fontSize=10;" vertex="1" parent="1">
          <mxGeometry x="500" y="90" width="20" height="20" as="geometry" />
        </mxCell>
        <mxCell id="2kREBUdH7p19kiy_EeAZ-11" value="" style="rounded=0;whiteSpace=wrap;html=1;fillColor=#f5f5f5;strokeColor=default;fontColor=#333333;fontSize=10;" vertex="1" parent="1">
          <mxGeometry x="530" y="90" width="20" height="20" as="geometry" />
        </mxCell>
        <mxCell id="2kREBUdH7p19kiy_EeAZ-12" value="" style="rounded=0;whiteSpace=wrap;html=1;fillColor=#f5f5f5;strokeColor=default;fontSize=10;align=center;verticalAlign=middle;fontFamily=Helvetica;fontColor=#333333;" vertex="1" parent="1">
          <mxGeometry x="530" y="60" width="20" height="20" as="geometry" />
        </mxCell>
        <mxCell id="2kREBUdH7p19kiy_EeAZ-13" value="" style="rounded=0;whiteSpace=wrap;html=1;fillColor=#f5f5f5;strokeColor=default;fontSize=10;align=center;verticalAlign=middle;fontFamily=Helvetica;fontColor=#333333;" vertex="1" parent="1">
          <mxGeometry x="560" y="60" width="20" height="20" as="geometry" />
        </mxCell>
        <mxCell id="2kREBUdH7p19kiy_EeAZ-14" value="" style="rounded=0;whiteSpace=wrap;html=1;fillColor=#f5f5f5;strokeColor=default;fontColor=#333333;fontSize=10;" vertex="1" parent="1">
          <mxGeometry x="560" y="90" width="20" height="20" as="geometry" />
        </mxCell>
        <mxCell id="2kREBUdH7p19kiy_EeAZ-15" value="eos" style="rounded=0;whiteSpace=wrap;html=1;fillColor=#99FF99;strokeColor=default;fontColor=#333333;fontSize=10;align=center;verticalAlign=middle;fontFamily=Helvetica;" vertex="1" parent="1">
          <mxGeometry x="590" y="90" width="20" height="20" as="geometry" />
        </mxCell>
        <mxCell id="2kREBUdH7p19kiy_EeAZ-16" value="eos" style="rounded=0;whiteSpace=wrap;html=1;fillColor=#99CCFF;strokeColor=default;fontColor=#333333;fontSize=10;align=center;verticalAlign=middle;fontFamily=Helvetica;" vertex="1" parent="1">
          <mxGeometry x="590" y="60" width="20" height="20" as="geometry" />
        </mxCell>
        <mxCell id="2kREBUdH7p19kiy_EeAZ-17" value="ans" style="rounded=0;whiteSpace=wrap;html=1;fillColor=#99CCFF;strokeColor=default;fontColor=#333333;fontSize=10;align=center;verticalAlign=middle;fontFamily=Helvetica;" vertex="1" parent="1">
          <mxGeometry x="620" y="60" width="20" height="20" as="geometry" />
        </mxCell>
        <mxCell id="2kREBUdH7p19kiy_EeAZ-18" value="ans" style="rounded=0;whiteSpace=wrap;html=1;fillColor=#99FF99;strokeColor=default;fontColor=#333333;fontSize=10;" vertex="1" parent="1">
          <mxGeometry x="620" y="90" width="20" height="20" as="geometry" />
        </mxCell>
        <mxCell id="2kREBUdH7p19kiy_EeAZ-19" value="" style="rounded=0;whiteSpace=wrap;html=1;fillColor=#009900;strokeColor=default;fontColor=#333333;fontSize=10;strokeWidth=3;" vertex="1" parent="1">
          <mxGeometry x="650" y="90" width="20" height="20" as="geometry" />
        </mxCell>
        <mxCell id="2kREBUdH7p19kiy_EeAZ-20" value="" style="rounded=0;whiteSpace=wrap;html=1;fillColor=#f5f5f5;strokeColor=default;fontColor=#333333;fontSize=10;strokeWidth=3;" vertex="1" parent="1">
          <mxGeometry x="650" y="60" width="20" height="20" as="geometry" />
        </mxCell>
        <mxCell id="2kREBUdH7p19kiy_EeAZ-21" value="" style="rounded=0;whiteSpace=wrap;html=1;fillColor=#0066CC;strokeColor=default;fontColor=#333333;fontSize=10;strokeWidth=3;" vertex="1" parent="1">
          <mxGeometry x="680" y="60" width="20" height="20" as="geometry" />
        </mxCell>
        <mxCell id="2kREBUdH7p19kiy_EeAZ-22" value="" style="rounded=0;whiteSpace=wrap;html=1;fillColor=#009900;strokeColor=default;fontColor=#333333;fontSize=10;strokeWidth=3;" vertex="1" parent="1">
          <mxGeometry x="680" y="90" width="20" height="20" as="geometry" />
        </mxCell>
        <mxCell id="2kREBUdH7p19kiy_EeAZ-23" value="" style="rounded=0;whiteSpace=wrap;html=1;fillColor=#009900;strokeColor=default;fontColor=#333333;fontSize=10;strokeWidth=3;" vertex="1" parent="1">
          <mxGeometry x="710" y="90" width="20" height="20" as="geometry" />
        </mxCell>
        <mxCell id="2kREBUdH7p19kiy_EeAZ-24" value="" style="rounded=0;whiteSpace=wrap;html=1;fillColor=#0066CC;strokeColor=default;fontColor=#333333;fontSize=10;strokeWidth=3;" vertex="1" parent="1">
          <mxGeometry x="710" y="60" width="20" height="20" as="geometry" />
        </mxCell>
        <mxCell id="2kREBUdH7p19kiy_EeAZ-25" value="" style="rounded=0;whiteSpace=wrap;html=1;fillColor=#0066CC;strokeColor=default;fontColor=#333333;fontSize=10;strokeWidth=3;" vertex="1" parent="1">
          <mxGeometry x="740" y="60" width="20" height="20" as="geometry" />
        </mxCell>
        <mxCell id="2kREBUdH7p19kiy_EeAZ-26" value="" style="rounded=0;whiteSpace=wrap;html=1;fillColor=#f5f5f5;strokeColor=default;fontColor=#333333;fontSize=10;align=center;verticalAlign=middle;fontFamily=Helvetica;" vertex="1" parent="1">
          <mxGeometry x="770" y="90" width="20" height="20" as="geometry" />
        </mxCell>
        <mxCell id="2kREBUdH7p19kiy_EeAZ-27" value="" style="rounded=0;whiteSpace=wrap;html=1;fillColor=#0066CC;strokeColor=default;fontColor=#333333;fontSize=10;strokeWidth=3;" vertex="1" parent="1">
          <mxGeometry x="770" y="60" width="20" height="20" as="geometry" />
        </mxCell>
        <mxCell id="2kREBUdH7p19kiy_EeAZ-28" value="" style="rounded=0;whiteSpace=wrap;html=1;fillColor=#0066CC;strokeColor=default;fontColor=#333333;fontSize=10;strokeWidth=3;" vertex="1" parent="1">
          <mxGeometry x="800" y="60" width="20" height="20" as="geometry" />
        </mxCell>
        <mxCell id="2kREBUdH7p19kiy_EeAZ-29" value="" style="rounded=0;whiteSpace=wrap;html=1;fillColor=#f5f5f5;strokeColor=default;fontColor=#333333;fontSize=10;align=center;verticalAlign=middle;fontFamily=Helvetica;" vertex="1" parent="1">
          <mxGeometry x="800" y="90" width="20" height="20" as="geometry" />
        </mxCell>
        <mxCell id="2kREBUdH7p19kiy_EeAZ-30" value="" style="rounded=0;whiteSpace=wrap;html=1;fillColor=#f5f5f5;strokeColor=default;fontColor=#333333;fontSize=10;align=center;verticalAlign=middle;fontFamily=Helvetica;" vertex="1" parent="1">
          <mxGeometry x="830" y="90" width="20" height="20" as="geometry" />
        </mxCell>
        <mxCell id="2kREBUdH7p19kiy_EeAZ-31" value="" style="rounded=0;whiteSpace=wrap;html=1;fillColor=#0066CC;strokeColor=default;fontColor=#333333;fontSize=10;strokeWidth=3;" vertex="1" parent="1">
          <mxGeometry x="830" y="60" width="20" height="20" as="geometry" />
        </mxCell>
        <mxCell id="2kREBUdH7p19kiy_EeAZ-32" value="" style="rounded=0;whiteSpace=wrap;html=1;fillColor=#f5f5f5;strokeColor=default;fontColor=#333333;fontSize=10;align=center;verticalAlign=middle;fontFamily=Helvetica;" vertex="1" parent="1">
          <mxGeometry x="860" y="90" width="20" height="20" as="geometry" />
        </mxCell>
        <mxCell id="2kREBUdH7p19kiy_EeAZ-34" value="eos" style="rounded=0;whiteSpace=wrap;html=1;fillColor=#99CCFF;strokeColor=default;fontColor=#333333;fontSize=10;align=center;verticalAlign=middle;fontFamily=Helvetica;strokeWidth=3;" vertex="1" parent="1">
          <mxGeometry x="860" y="60" width="20" height="20" as="geometry" />
        </mxCell>
        <mxCell id="2kREBUdH7p19kiy_EeAZ-35" value="eos" style="rounded=0;whiteSpace=wrap;html=1;fillColor=#99FF99;strokeColor=default;fontColor=#333333;fontSize=10;strokeWidth=3;" vertex="1" parent="1">
          <mxGeometry x="740" y="90" width="20" height="20" as="geometry" />
        </mxCell>
        <mxCell id="2kREBUdH7p19kiy_EeAZ-36" value="eos" style="rounded=0;whiteSpace=wrap;html=1;fillColor=#99FF99;strokeColor=default;fontColor=#333333;fontSize=10;align=center;verticalAlign=middle;fontFamily=Helvetica;" vertex="1" parent="1">
          <mxGeometry x="350" y="90" width="20" height="20" as="geometry" />
        </mxCell>
        <mxCell id="2kREBUdH7p19kiy_EeAZ-37" value="" style="rounded=0;whiteSpace=wrap;html=1;fillColor=#009900;strokeColor=default;fontColor=#333333;fontSize=10;" vertex="1" parent="1">
          <mxGeometry x="290" y="90" width="20" height="20" as="geometry" />
        </mxCell>
        <mxCell id="2kREBUdH7p19kiy_EeAZ-38" value="bos" style="rounded=0;whiteSpace=wrap;html=1;fillColor=#99FF99;strokeColor=default;fontColor=#333333;fontSize=10;align=center;verticalAlign=middle;fontFamily=Helvetica;" vertex="1" parent="1">
          <mxGeometry x="260" y="90" width="20" height="20" as="geometry" />
        </mxCell>
        <mxCell id="2kREBUdH7p19kiy_EeAZ-39" value="" style="rounded=0;whiteSpace=wrap;html=1;fillColor=#f5f5f5;strokeColor=default;fontColor=#333333;fontSize=10;align=center;verticalAlign=middle;fontFamily=Helvetica;" vertex="1" parent="1">
          <mxGeometry x="260" y="60" width="20" height="20" as="geometry" />
        </mxCell>
        <mxCell id="2kREBUdH7p19kiy_EeAZ-40" value="" style="rounded=0;whiteSpace=wrap;html=1;fillColor=#f5f5f5;strokeColor=default;fontColor=#333333;fontSize=10;align=center;verticalAlign=middle;fontFamily=Helvetica;" vertex="1" parent="1">
          <mxGeometry x="290" y="60" width="20" height="20" as="geometry" />
        </mxCell>
        <mxCell id="2kREBUdH7p19kiy_EeAZ-41" value="" style="rounded=0;whiteSpace=wrap;html=1;fillColor=#f5f5f5;strokeColor=default;fontColor=#333333;fontSize=10;align=center;verticalAlign=middle;fontFamily=Helvetica;" vertex="1" parent="1">
          <mxGeometry x="350" y="60" width="20" height="20" as="geometry" />
        </mxCell>
        <mxCell id="2kREBUdH7p19kiy_EeAZ-42" value="" style="shape=curlyBracket;whiteSpace=wrap;html=1;rounded=1;flipH=1;labelPosition=right;verticalLabelPosition=middle;align=left;verticalAlign=middle;rotation=-90;" vertex="1" parent="1">
          <mxGeometry x="310.1" y="-16.34" width="15" height="111.56" as="geometry" />
        </mxCell>
        <mxCell id="2kREBUdH7p19kiy_EeAZ-43" value="Prompt" style="text;html=1;align=center;verticalAlign=middle;whiteSpace=wrap;rounded=0;" vertex="1" parent="1">
          <mxGeometry x="287.6" y="16.939999999999994" width="60" height="20" as="geometry" />
        </mxCell>
        <mxCell id="2kREBUdH7p19kiy_EeAZ-44" value="" style="shape=curlyBracket;whiteSpace=wrap;html=1;rounded=1;flipH=1;labelPosition=right;verticalLabelPosition=middle;align=left;verticalAlign=middle;rotation=-90;" vertex="1" parent="1">
          <mxGeometry x="487.44" y="-75.57" width="15" height="230" as="geometry" />
        </mxCell>
        <mxCell id="2kREBUdH7p19kiy_EeAZ-45" value="Input" style="text;html=1;align=center;verticalAlign=middle;whiteSpace=wrap;rounded=0;" vertex="1" parent="1">
          <mxGeometry x="464.94" y="16.939999999999994" width="60" height="20" as="geometry" />
        </mxCell>
        <mxCell id="2kREBUdH7p19kiy_EeAZ-46" value="Audio" style="text;html=1;align=left;verticalAlign=middle;whiteSpace=wrap;rounded=0;" vertex="1" parent="1">
          <mxGeometry x="900" y="55.36999999999995" width="40" height="20" as="geometry" />
        </mxCell>
        <mxCell id="2kREBUdH7p19kiy_EeAZ-47" value="Text" style="text;html=1;align=left;verticalAlign=middle;whiteSpace=wrap;rounded=0;" vertex="1" parent="1">
          <mxGeometry x="900" y="85.37000000000006" width="40" height="20" as="geometry" />
        </mxCell>
        <mxCell id="2kREBUdH7p19kiy_EeAZ-48" value="" style="shape=curlyBracket;whiteSpace=wrap;html=1;rounded=1;flipH=1;labelPosition=right;verticalLabelPosition=middle;align=left;verticalAlign=middle;rotation=-90;" vertex="1" parent="1">
          <mxGeometry x="745.45" y="-90" width="15" height="258.89" as="geometry" />
        </mxCell>
        <mxCell id="2kREBUdH7p19kiy_EeAZ-49" value="Answer" style="text;html=1;align=center;verticalAlign=middle;whiteSpace=wrap;rounded=0;" vertex="1" parent="1">
          <mxGeometry x="722.95" y="16.939999999999994" width="60" height="20" as="geometry" />
        </mxCell>
        <mxCell id="2kREBUdH7p19kiy_EeAZ-50" value="" style="rounded=0;whiteSpace=wrap;html=1;fillColor=#009900;strokeColor=default;fontColor=#333333;fontSize=10;" vertex="1" parent="1">
          <mxGeometry x="320" y="90" width="20" height="20" as="geometry" />
        </mxCell>
        <mxCell id="2kREBUdH7p19kiy_EeAZ-51" value="" style="rounded=0;whiteSpace=wrap;html=1;fillColor=#f5f5f5;strokeColor=default;fontColor=#333333;fontSize=10;align=center;verticalAlign=middle;fontFamily=Helvetica;" vertex="1" parent="1">
          <mxGeometry x="320" y="60" width="20" height="20" as="geometry" />
        </mxCell>
        <mxCell id="2kREBUdH7p19kiy_EeAZ-52" value="" style="endArrow=classic;startArrow=classic;html=1;rounded=0;" edge="1" parent="1">
          <mxGeometry width="50" height="50" relative="1" as="geometry">
            <mxPoint x="260" y="120.38" as="sourcePoint" />
            <mxPoint x="370.9" y="120.38" as="targetPoint" />
          </mxGeometry>
        </mxCell>
        <mxCell id="2kREBUdH7p19kiy_EeAZ-54" value="" style="endArrow=classic;startArrow=classic;html=1;rounded=0;" edge="1" parent="1">
          <mxGeometry width="50" height="50" relative="1" as="geometry">
            <mxPoint x="410.9" y="120.38" as="sourcePoint" />
            <mxPoint x="580.9" y="120.37" as="targetPoint" />
          </mxGeometry>
        </mxCell>
        <mxCell id="2kREBUdH7p19kiy_EeAZ-64" value="&lt;font style=&quot;font-size: 16px;&quot;&gt;&lt;span&gt;inputs_ids[0]&lt;/span&gt;&lt;/font&gt;" style="text;html=1;align=center;verticalAlign=middle;whiteSpace=wrap;rounded=0;fontStyle=0" vertex="1" parent="1">
          <mxGeometry x="144.94" y="62.32" width="116.06" height="15.37" as="geometry" />
        </mxCell>
        <mxCell id="2kREBUdH7p19kiy_EeAZ-69" value="&lt;font style=&quot;font-size: 16px;&quot;&gt;&lt;span&gt;attention_mask&lt;/span&gt;&lt;/font&gt;" style="text;html=1;align=center;verticalAlign=middle;whiteSpace=wrap;rounded=0;fontStyle=0" vertex="1" parent="1">
          <mxGeometry x="140" y="154.43" width="116.06" height="30" as="geometry" />
        </mxCell>
        <mxCell id="2kREBUdH7p19kiy_EeAZ-76" value="" style="rounded=0;whiteSpace=wrap;html=1;fillColor=#999999;strokeColor=default;fontColor=#333333;fontSize=10;align=center;verticalAlign=middle;fontFamily=Helvetica;" vertex="1" parent="1">
          <mxGeometry x="320" y="160" width="20" height="20" as="geometry" />
        </mxCell>
        <mxCell id="2kREBUdH7p19kiy_EeAZ-77" value="" style="rounded=0;whiteSpace=wrap;html=1;fillColor=#999999;strokeColor=default;fontColor=#333333;fontSize=10;align=center;verticalAlign=middle;fontFamily=Helvetica;" vertex="1" parent="1">
          <mxGeometry x="290" y="160" width="20" height="20" as="geometry" />
        </mxCell>
        <mxCell id="2kREBUdH7p19kiy_EeAZ-78" value="" style="rounded=0;whiteSpace=wrap;html=1;fillColor=#999999;strokeColor=default;fontColor=#333333;fontSize=10;align=center;verticalAlign=middle;fontFamily=Helvetica;" vertex="1" parent="1">
          <mxGeometry x="260" y="160" width="20" height="20" as="geometry" />
        </mxCell>
        <mxCell id="2kREBUdH7p19kiy_EeAZ-82" value="" style="rounded=0;whiteSpace=wrap;html=1;fillColor=#999999;strokeColor=default;fontColor=#333333;fontSize=10;align=center;verticalAlign=middle;fontFamily=Helvetica;" vertex="1" parent="1">
          <mxGeometry x="410" y="160" width="20" height="20" as="geometry" />
        </mxCell>
        <mxCell id="2kREBUdH7p19kiy_EeAZ-83" value="" style="rounded=0;whiteSpace=wrap;html=1;fillColor=#999999;strokeColor=default;fontColor=#333333;fontSize=10;align=center;verticalAlign=middle;fontFamily=Helvetica;" vertex="1" parent="1">
          <mxGeometry x="380" y="160" width="20" height="20" as="geometry" />
        </mxCell>
        <mxCell id="2kREBUdH7p19kiy_EeAZ-84" value="" style="rounded=0;whiteSpace=wrap;html=1;fillColor=#999999;strokeColor=default;fontColor=#333333;fontSize=10;align=center;verticalAlign=middle;fontFamily=Helvetica;" vertex="1" parent="1">
          <mxGeometry x="350" y="160" width="20" height="20" as="geometry" />
        </mxCell>
        <mxCell id="2kREBUdH7p19kiy_EeAZ-88" value="" style="rounded=0;whiteSpace=wrap;html=1;fillColor=#999999;strokeColor=default;fontColor=#333333;fontSize=10;align=center;verticalAlign=middle;fontFamily=Helvetica;" vertex="1" parent="1">
          <mxGeometry x="500" y="160" width="20" height="20" as="geometry" />
        </mxCell>
        <mxCell id="2kREBUdH7p19kiy_EeAZ-89" value="" style="rounded=0;whiteSpace=wrap;html=1;fillColor=#999999;strokeColor=default;fontColor=#333333;fontSize=10;align=center;verticalAlign=middle;fontFamily=Helvetica;" vertex="1" parent="1">
          <mxGeometry x="470" y="160" width="20" height="20" as="geometry" />
        </mxCell>
        <mxCell id="2kREBUdH7p19kiy_EeAZ-90" value="" style="rounded=0;whiteSpace=wrap;html=1;fillColor=#999999;strokeColor=default;fontColor=#333333;fontSize=10;align=center;verticalAlign=middle;fontFamily=Helvetica;" vertex="1" parent="1">
          <mxGeometry x="440" y="160" width="20" height="20" as="geometry" />
        </mxCell>
        <mxCell id="2kREBUdH7p19kiy_EeAZ-94" value="" style="rounded=0;whiteSpace=wrap;html=1;fillColor=#999999;strokeColor=default;fontColor=#333333;fontSize=10;align=center;verticalAlign=middle;fontFamily=Helvetica;" vertex="1" parent="1">
          <mxGeometry x="590" y="160" width="20" height="20" as="geometry" />
        </mxCell>
        <mxCell id="2kREBUdH7p19kiy_EeAZ-95" value="" style="rounded=0;whiteSpace=wrap;html=1;fillColor=#999999;strokeColor=default;fontColor=#333333;fontSize=10;align=center;verticalAlign=middle;fontFamily=Helvetica;" vertex="1" parent="1">
          <mxGeometry x="560" y="160" width="20" height="20" as="geometry" />
        </mxCell>
        <mxCell id="2kREBUdH7p19kiy_EeAZ-96" value="" style="rounded=0;whiteSpace=wrap;html=1;fillColor=#999999;strokeColor=default;fontColor=#333333;fontSize=10;align=center;verticalAlign=middle;fontFamily=Helvetica;" vertex="1" parent="1">
          <mxGeometry x="530" y="160" width="20" height="20" as="geometry" />
        </mxCell>
        <mxCell id="2kREBUdH7p19kiy_EeAZ-100" value="" style="rounded=0;whiteSpace=wrap;html=1;fillColor=#999999;strokeColor=default;fontColor=#333333;fontSize=10;align=center;verticalAlign=middle;fontFamily=Helvetica;" vertex="1" parent="1">
          <mxGeometry x="680" y="160" width="20" height="20" as="geometry" />
        </mxCell>
        <mxCell id="2kREBUdH7p19kiy_EeAZ-101" value="" style="rounded=0;whiteSpace=wrap;html=1;fillColor=#999999;strokeColor=default;fontColor=#333333;fontSize=10;align=center;verticalAlign=middle;fontFamily=Helvetica;" vertex="1" parent="1">
          <mxGeometry x="650" y="160" width="20" height="20" as="geometry" />
        </mxCell>
        <mxCell id="2kREBUdH7p19kiy_EeAZ-102" value="" style="rounded=0;whiteSpace=wrap;html=1;fillColor=#999999;strokeColor=default;fontColor=#333333;fontSize=10;align=center;verticalAlign=middle;fontFamily=Helvetica;" vertex="1" parent="1">
          <mxGeometry x="620" y="160" width="20" height="20" as="geometry" />
        </mxCell>
        <mxCell id="2kREBUdH7p19kiy_EeAZ-106" value="" style="rounded=0;whiteSpace=wrap;html=1;fillColor=#999999;strokeColor=default;fontColor=#333333;fontSize=10;align=center;verticalAlign=middle;fontFamily=Helvetica;" vertex="1" parent="1">
          <mxGeometry x="770" y="160" width="20" height="20" as="geometry" />
        </mxCell>
        <mxCell id="2kREBUdH7p19kiy_EeAZ-107" value="" style="rounded=0;whiteSpace=wrap;html=1;fillColor=#999999;strokeColor=default;fontColor=#333333;fontSize=10;align=center;verticalAlign=middle;fontFamily=Helvetica;" vertex="1" parent="1">
          <mxGeometry x="740" y="160" width="20" height="20" as="geometry" />
        </mxCell>
        <mxCell id="2kREBUdH7p19kiy_EeAZ-108" value="" style="rounded=0;whiteSpace=wrap;html=1;fillColor=#999999;strokeColor=default;fontColor=#333333;fontSize=10;align=center;verticalAlign=middle;fontFamily=Helvetica;" vertex="1" parent="1">
          <mxGeometry x="710" y="160" width="20" height="20" as="geometry" />
        </mxCell>
        <mxCell id="2kREBUdH7p19kiy_EeAZ-112" value="" style="rounded=0;whiteSpace=wrap;html=1;fillColor=#999999;strokeColor=default;fontColor=#333333;fontSize=10;align=center;verticalAlign=middle;fontFamily=Helvetica;" vertex="1" parent="1">
          <mxGeometry x="860" y="160" width="20" height="20" as="geometry" />
        </mxCell>
        <mxCell id="2kREBUdH7p19kiy_EeAZ-113" value="" style="rounded=0;whiteSpace=wrap;html=1;fillColor=#999999;strokeColor=default;fontColor=#333333;fontSize=10;align=center;verticalAlign=middle;fontFamily=Helvetica;" vertex="1" parent="1">
          <mxGeometry x="830" y="160" width="20" height="20" as="geometry" />
        </mxCell>
        <mxCell id="2kREBUdH7p19kiy_EeAZ-114" value="" style="rounded=0;whiteSpace=wrap;html=1;fillColor=#999999;strokeColor=default;fontColor=#333333;fontSize=10;align=center;verticalAlign=middle;fontFamily=Helvetica;" vertex="1" parent="1">
          <mxGeometry x="800" y="160" width="20" height="20" as="geometry" />
        </mxCell>
        <mxCell id="2kREBUdH7p19kiy_EeAZ-120" value="&lt;font style=&quot;font-size: 16px;&quot;&gt;&lt;span&gt;inputs_ids[1]&lt;/span&gt;&lt;/font&gt;" style="text;html=1;align=center;verticalAlign=middle;whiteSpace=wrap;rounded=0;fontStyle=0" vertex="1" parent="1">
          <mxGeometry x="144.94" y="90" width="116.06" height="20.37" as="geometry" />
        </mxCell>
        <mxCell id="2kREBUdH7p19kiy_EeAZ-121" value="prompt_length" style="text;html=1;align=center;verticalAlign=middle;whiteSpace=wrap;rounded=0;" vertex="1" parent="1">
          <mxGeometry x="280" y="120" width="80" height="20" as="geometry" />
        </mxCell>
        <mxCell id="2kREBUdH7p19kiy_EeAZ-123" value="input_length" style="text;html=1;align=center;verticalAlign=middle;whiteSpace=wrap;rounded=0;" vertex="1" parent="1">
          <mxGeometry x="440" y="120" width="80" height="20" as="geometry" />
        </mxCell>
        <mxCell id="2kREBUdH7p19kiy_EeAZ-124" value="audio_length" style="text;html=1;align=center;verticalAlign=middle;whiteSpace=wrap;rounded=0;" vertex="1" parent="1">
          <mxGeometry x="440" y="134.43" width="80" height="20" as="geometry" />
        </mxCell>
        <mxCell id="2kREBUdH7p19kiy_EeAZ-128" style="edgeStyle=orthogonalEdgeStyle;rounded=0;orthogonalLoop=1;jettySize=auto;html=1;exitX=0.554;exitY=-0.004;exitDx=0;exitDy=0;dashed=1;exitPerimeter=0;curved=1;" edge="1" parent="1" source="2kREBUdH7p19kiy_EeAZ-125">
          <mxGeometry relative="1" as="geometry">
            <mxPoint x="840" y="20" as="targetPoint" />
            <Array as="points">
              <mxPoint x="776" y="20" />
            </Array>
          </mxGeometry>
        </mxCell>
        <mxCell id="2kREBUdH7p19kiy_EeAZ-125" value="" style="rounded=1;whiteSpace=wrap;html=1;fillColor=none;dashed=1;" vertex="1" parent="1">
          <mxGeometry x="643.44" y="51.69" width="240" height="34.63" as="geometry" />
        </mxCell>
        <mxCell id="2kREBUdH7p19kiy_EeAZ-126" value="layer_shift(target_audio)" style="text;html=1;align=center;verticalAlign=middle;whiteSpace=wrap;rounded=0;" vertex="1" parent="1">
          <mxGeometry x="840" y="3.9400000000000004" width="140" height="30" as="geometry" />
        </mxCell>
        <mxCell id="2kREBUdH7p19kiy_EeAZ-129" value="" style="endArrow=classic;startArrow=classic;html=1;rounded=0;" edge="1" parent="1">
          <mxGeometry width="50" height="50" relative="1" as="geometry">
            <mxPoint x="645" y="120.00999999999999" as="sourcePoint" />
            <mxPoint x="890" y="120" as="targetPoint" />
          </mxGeometry>
        </mxCell>
        <mxCell id="2kREBUdH7p19kiy_EeAZ-132" value="max(target_audio_length, answer_text_length)" style="text;html=1;align=center;verticalAlign=middle;whiteSpace=wrap;rounded=0;" vertex="1" parent="1">
          <mxGeometry x="621" y="125" width="290" height="20" as="geometry" />
        </mxCell>
        <mxCell id="2kREBUdH7p19kiy_EeAZ-133" value="&lt;font color=&quot;#808080&quot;&gt;(300)&lt;/font&gt;" style="text;html=1;align=center;verticalAlign=middle;whiteSpace=wrap;rounded=0;" vertex="1" parent="1">
          <mxGeometry x="500" y="120" width="60" height="30" as="geometry" />
        </mxCell>
        <mxCell id="2kREBUdH7p19kiy_EeAZ-134" value="&lt;b&gt;&lt;font&gt;__getitem__&lt;/font&gt;&lt;/b&gt;" style="text;html=1;align=center;verticalAlign=middle;whiteSpace=wrap;rounded=0;fontSize=15;" vertex="1" parent="1">
          <mxGeometry x="40" y="95.22" width="60" height="30" as="geometry" />
        </mxCell>
        <mxCell id="2kREBUdH7p19kiy_EeAZ-135" value="bos" style="rounded=0;whiteSpace=wrap;html=1;fillColor=#99CCFF;strokeColor=default;fontColor=#333333;fontSize=10;align=center;verticalAlign=middle;fontFamily=Helvetica;" vertex="1" parent="1">
          <mxGeometry x="471" y="250" width="20" height="20" as="geometry" />
        </mxCell>
        <mxCell id="2kREBUdH7p19kiy_EeAZ-136" value="bos" style="rounded=0;whiteSpace=wrap;html=1;fillColor=#99FF99;strokeColor=default;fontColor=#333333;fontSize=10;align=center;verticalAlign=middle;fontFamily=Helvetica;" vertex="1" parent="1">
          <mxGeometry x="471" y="280" width="20" height="20" as="geometry" />
        </mxCell>
        <mxCell id="2kREBUdH7p19kiy_EeAZ-137" value="" style="rounded=0;whiteSpace=wrap;html=1;fillColor=#f5f5f5;strokeColor=default;fontColor=#333333;fontSize=10;" vertex="1" parent="1">
          <mxGeometry x="501" y="280" width="20" height="20" as="geometry" />
        </mxCell>
        <mxCell id="2kREBUdH7p19kiy_EeAZ-138" value="" style="rounded=0;whiteSpace=wrap;html=1;fillColor=#f5f5f5;strokeColor=default;fontSize=10;align=center;verticalAlign=middle;fontFamily=Helvetica;fontColor=#333333;" vertex="1" parent="1">
          <mxGeometry x="501" y="250" width="20" height="20" as="geometry" />
        </mxCell>
        <mxCell id="2kREBUdH7p19kiy_EeAZ-139" value="" style="rounded=0;whiteSpace=wrap;html=1;fillColor=#f5f5f5;strokeColor=default;fontSize=10;align=center;verticalAlign=middle;fontFamily=Helvetica;fontColor=#333333;" vertex="1" parent="1">
          <mxGeometry x="531" y="250" width="20" height="20" as="geometry" />
        </mxCell>
        <mxCell id="2kREBUdH7p19kiy_EeAZ-140" value="" style="rounded=0;whiteSpace=wrap;html=1;fillColor=#f5f5f5;strokeColor=default;fontColor=#333333;fontSize=10;" vertex="1" parent="1">
          <mxGeometry x="531" y="280" width="20" height="20" as="geometry" />
        </mxCell>
        <mxCell id="2kREBUdH7p19kiy_EeAZ-141" value="" style="rounded=0;whiteSpace=wrap;html=1;fillColor=#f5f5f5;strokeColor=default;fontColor=#333333;fontSize=10;" vertex="1" parent="1">
          <mxGeometry x="561" y="280" width="20" height="20" as="geometry" />
        </mxCell>
        <mxCell id="2kREBUdH7p19kiy_EeAZ-142" value="" style="rounded=0;whiteSpace=wrap;html=1;fillColor=#f5f5f5;strokeColor=default;fontSize=10;align=center;verticalAlign=middle;fontFamily=Helvetica;fontColor=#333333;" vertex="1" parent="1">
          <mxGeometry x="561" y="250" width="20" height="20" as="geometry" />
        </mxCell>
        <mxCell id="2kREBUdH7p19kiy_EeAZ-143" value="" style="rounded=0;whiteSpace=wrap;html=1;fillColor=#f5f5f5;strokeColor=default;fontSize=10;align=center;verticalAlign=middle;fontFamily=Helvetica;fontColor=#333333;" vertex="1" parent="1">
          <mxGeometry x="591" y="250" width="20" height="20" as="geometry" />
        </mxCell>
        <mxCell id="2kREBUdH7p19kiy_EeAZ-144" value="" style="rounded=0;whiteSpace=wrap;html=1;fillColor=#f5f5f5;strokeColor=default;fontColor=#333333;fontSize=10;" vertex="1" parent="1">
          <mxGeometry x="591" y="280" width="20" height="20" as="geometry" />
        </mxCell>
        <mxCell id="2kREBUdH7p19kiy_EeAZ-145" value="" style="rounded=0;whiteSpace=wrap;html=1;fillColor=#f5f5f5;strokeColor=default;fontColor=#333333;fontSize=10;" vertex="1" parent="1">
          <mxGeometry x="621" y="280" width="20" height="20" as="geometry" />
        </mxCell>
        <mxCell id="2kREBUdH7p19kiy_EeAZ-146" value="" style="rounded=0;whiteSpace=wrap;html=1;fillColor=#f5f5f5;strokeColor=default;fontSize=10;align=center;verticalAlign=middle;fontFamily=Helvetica;fontColor=#333333;" vertex="1" parent="1">
          <mxGeometry x="621" y="250" width="20" height="20" as="geometry" />
        </mxCell>
        <mxCell id="2kREBUdH7p19kiy_EeAZ-147" value="" style="rounded=0;whiteSpace=wrap;html=1;fillColor=#f5f5f5;strokeColor=default;fontSize=10;align=center;verticalAlign=middle;fontFamily=Helvetica;fontColor=#333333;" vertex="1" parent="1">
          <mxGeometry x="651" y="250" width="20" height="20" as="geometry" />
        </mxCell>
        <mxCell id="2kREBUdH7p19kiy_EeAZ-148" value="" style="rounded=0;whiteSpace=wrap;html=1;fillColor=#f5f5f5;strokeColor=default;fontColor=#333333;fontSize=10;" vertex="1" parent="1">
          <mxGeometry x="651" y="280" width="20" height="20" as="geometry" />
        </mxCell>
        <mxCell id="2kREBUdH7p19kiy_EeAZ-149" value="eos" style="rounded=0;whiteSpace=wrap;html=1;fillColor=#99FF99;strokeColor=default;fontColor=#333333;fontSize=10;align=center;verticalAlign=middle;fontFamily=Helvetica;" vertex="1" parent="1">
          <mxGeometry x="681" y="280" width="20" height="20" as="geometry" />
        </mxCell>
        <mxCell id="2kREBUdH7p19kiy_EeAZ-150" value="eos" style="rounded=0;whiteSpace=wrap;html=1;fillColor=#99CCFF;strokeColor=default;fontColor=#333333;fontSize=10;align=center;verticalAlign=middle;fontFamily=Helvetica;" vertex="1" parent="1">
          <mxGeometry x="681" y="250" width="20" height="20" as="geometry" />
        </mxCell>
        <mxCell id="2kREBUdH7p19kiy_EeAZ-151" value="ans" style="rounded=0;whiteSpace=wrap;html=1;fillColor=#99CCFF;strokeColor=default;fontColor=#333333;fontSize=10;align=center;verticalAlign=middle;fontFamily=Helvetica;" vertex="1" parent="1">
          <mxGeometry x="711" y="250" width="20" height="20" as="geometry" />
        </mxCell>
        <mxCell id="2kREBUdH7p19kiy_EeAZ-152" value="ans" style="rounded=0;whiteSpace=wrap;html=1;fillColor=#99FF99;strokeColor=default;fontColor=#333333;fontSize=10;" vertex="1" parent="1">
          <mxGeometry x="711" y="280" width="20" height="20" as="geometry" />
        </mxCell>
        <mxCell id="2kREBUdH7p19kiy_EeAZ-153" value="" style="rounded=0;whiteSpace=wrap;html=1;fillColor=#009900;strokeColor=default;fontColor=#333333;fontSize=10;strokeWidth=3;" vertex="1" parent="1">
          <mxGeometry x="741" y="280" width="20" height="20" as="geometry" />
        </mxCell>
        <mxCell id="2kREBUdH7p19kiy_EeAZ-154" value="" style="rounded=0;whiteSpace=wrap;html=1;fillColor=#f5f5f5;strokeColor=default;fontColor=#333333;fontSize=10;strokeWidth=3;" vertex="1" parent="1">
          <mxGeometry x="741" y="250" width="20" height="20" as="geometry" />
        </mxCell>
        <mxCell id="2kREBUdH7p19kiy_EeAZ-155" value="" style="rounded=0;whiteSpace=wrap;html=1;fillColor=#0066CC;strokeColor=default;fontColor=#333333;fontSize=10;strokeWidth=3;" vertex="1" parent="1">
          <mxGeometry x="771" y="250" width="20" height="20" as="geometry" />
        </mxCell>
        <mxCell id="2kREBUdH7p19kiy_EeAZ-156" value="" style="rounded=0;whiteSpace=wrap;html=1;fillColor=#009900;strokeColor=default;fontColor=#333333;fontSize=10;strokeWidth=3;" vertex="1" parent="1">
          <mxGeometry x="771" y="280" width="20" height="20" as="geometry" />
        </mxCell>
        <mxCell id="2kREBUdH7p19kiy_EeAZ-157" value="" style="rounded=0;whiteSpace=wrap;html=1;fillColor=#009900;strokeColor=default;fontColor=#333333;fontSize=10;strokeWidth=3;" vertex="1" parent="1">
          <mxGeometry x="801" y="280" width="20" height="20" as="geometry" />
        </mxCell>
        <mxCell id="2kREBUdH7p19kiy_EeAZ-158" value="" style="rounded=0;whiteSpace=wrap;html=1;fillColor=#0066CC;strokeColor=default;fontColor=#333333;fontSize=10;strokeWidth=3;" vertex="1" parent="1">
          <mxGeometry x="801" y="250" width="20" height="20" as="geometry" />
        </mxCell>
        <mxCell id="2kREBUdH7p19kiy_EeAZ-159" value="" style="rounded=0;whiteSpace=wrap;html=1;fillColor=#0066CC;strokeColor=default;fontColor=#333333;fontSize=10;strokeWidth=3;" vertex="1" parent="1">
          <mxGeometry x="831" y="250" width="20" height="20" as="geometry" />
        </mxCell>
        <mxCell id="2kREBUdH7p19kiy_EeAZ-160" value="" style="rounded=0;whiteSpace=wrap;html=1;fillColor=#f5f5f5;strokeColor=default;fontColor=#333333;fontSize=10;align=center;verticalAlign=middle;fontFamily=Helvetica;" vertex="1" parent="1">
          <mxGeometry x="861" y="280" width="20" height="20" as="geometry" />
        </mxCell>
        <mxCell id="2kREBUdH7p19kiy_EeAZ-161" value="" style="rounded=0;whiteSpace=wrap;html=1;fillColor=#0066CC;strokeColor=default;fontColor=#333333;fontSize=10;strokeWidth=3;" vertex="1" parent="1">
          <mxGeometry x="861" y="250" width="20" height="20" as="geometry" />
        </mxCell>
        <mxCell id="2kREBUdH7p19kiy_EeAZ-162" value="" style="rounded=0;whiteSpace=wrap;html=1;fillColor=#0066CC;strokeColor=default;fontColor=#333333;fontSize=10;strokeWidth=3;" vertex="1" parent="1">
          <mxGeometry x="891" y="250" width="20" height="20" as="geometry" />
        </mxCell>
        <mxCell id="2kREBUdH7p19kiy_EeAZ-163" value="" style="rounded=0;whiteSpace=wrap;html=1;fillColor=#f5f5f5;strokeColor=default;fontColor=#333333;fontSize=10;align=center;verticalAlign=middle;fontFamily=Helvetica;" vertex="1" parent="1">
          <mxGeometry x="891" y="280" width="20" height="20" as="geometry" />
        </mxCell>
        <mxCell id="2kREBUdH7p19kiy_EeAZ-164" value="" style="rounded=0;whiteSpace=wrap;html=1;fillColor=#f5f5f5;strokeColor=default;fontColor=#333333;fontSize=10;align=center;verticalAlign=middle;fontFamily=Helvetica;" vertex="1" parent="1">
          <mxGeometry x="921" y="280" width="20" height="20" as="geometry" />
        </mxCell>
        <mxCell id="2kREBUdH7p19kiy_EeAZ-165" value="" style="rounded=0;whiteSpace=wrap;html=1;fillColor=#0066CC;strokeColor=default;fontColor=#333333;fontSize=10;strokeWidth=3;" vertex="1" parent="1">
          <mxGeometry x="921" y="250" width="20" height="20" as="geometry" />
        </mxCell>
        <mxCell id="2kREBUdH7p19kiy_EeAZ-166" value="" style="rounded=0;whiteSpace=wrap;html=1;fillColor=#f5f5f5;strokeColor=default;fontColor=#333333;fontSize=10;align=center;verticalAlign=middle;fontFamily=Helvetica;" vertex="1" parent="1">
          <mxGeometry x="951" y="280" width="20" height="20" as="geometry" />
        </mxCell>
        <mxCell id="2kREBUdH7p19kiy_EeAZ-167" value="" style="rounded=0;whiteSpace=wrap;html=1;fillColor=#f8cecc;strokeColor=#b85450;fontSize=10;align=center;verticalAlign=middle;fontFamily=Helvetica;" vertex="1" parent="1">
          <mxGeometry x="981" y="280" width="20" height="20" as="geometry" />
        </mxCell>
        <mxCell id="2kREBUdH7p19kiy_EeAZ-168" value="eos" style="rounded=0;whiteSpace=wrap;html=1;fillColor=#99CCFF;strokeColor=default;fontColor=#333333;fontSize=10;align=center;verticalAlign=middle;fontFamily=Helvetica;strokeWidth=3;" vertex="1" parent="1">
          <mxGeometry x="951" y="250" width="20" height="20" as="geometry" />
        </mxCell>
        <mxCell id="2kREBUdH7p19kiy_EeAZ-169" value="eos" style="rounded=0;whiteSpace=wrap;html=1;fillColor=#99FF99;strokeColor=default;fontColor=#333333;fontSize=10;strokeWidth=3;" vertex="1" parent="1">
          <mxGeometry x="831" y="280" width="20" height="20" as="geometry" />
        </mxCell>
        <mxCell id="2kREBUdH7p19kiy_EeAZ-170" value="eos" style="rounded=0;whiteSpace=wrap;html=1;fillColor=#99FF99;strokeColor=default;fontColor=#333333;fontSize=10;align=center;verticalAlign=middle;fontFamily=Helvetica;" vertex="1" parent="1">
          <mxGeometry x="441" y="280" width="20" height="20" as="geometry" />
        </mxCell>
        <mxCell id="2kREBUdH7p19kiy_EeAZ-171" value="" style="rounded=0;whiteSpace=wrap;html=1;fillColor=#009900;strokeColor=default;fontColor=#333333;fontSize=10;" vertex="1" parent="1">
          <mxGeometry x="381" y="280" width="20" height="20" as="geometry" />
        </mxCell>
        <mxCell id="2kREBUdH7p19kiy_EeAZ-172" value="bos" style="rounded=0;whiteSpace=wrap;html=1;fillColor=#99FF99;strokeColor=default;fontColor=#333333;fontSize=10;align=center;verticalAlign=middle;fontFamily=Helvetica;" vertex="1" parent="1">
          <mxGeometry x="351" y="280" width="20" height="20" as="geometry" />
        </mxCell>
        <mxCell id="2kREBUdH7p19kiy_EeAZ-173" value="" style="rounded=0;whiteSpace=wrap;html=1;fillColor=#f5f5f5;strokeColor=default;fontColor=#333333;fontSize=10;align=center;verticalAlign=middle;fontFamily=Helvetica;" vertex="1" parent="1">
          <mxGeometry x="351" y="250" width="20" height="20" as="geometry" />
        </mxCell>
        <mxCell id="2kREBUdH7p19kiy_EeAZ-174" value="" style="rounded=0;whiteSpace=wrap;html=1;fillColor=#f5f5f5;strokeColor=default;fontColor=#333333;fontSize=10;align=center;verticalAlign=middle;fontFamily=Helvetica;" vertex="1" parent="1">
          <mxGeometry x="381" y="250" width="20" height="20" as="geometry" />
        </mxCell>
        <mxCell id="2kREBUdH7p19kiy_EeAZ-175" value="" style="rounded=0;whiteSpace=wrap;html=1;fillColor=#f5f5f5;strokeColor=default;fontColor=#333333;fontSize=10;align=center;verticalAlign=middle;fontFamily=Helvetica;" vertex="1" parent="1">
          <mxGeometry x="441" y="250" width="20" height="20" as="geometry" />
        </mxCell>
        <mxCell id="2kREBUdH7p19kiy_EeAZ-182" value="bos" style="rounded=0;whiteSpace=wrap;html=1;fillColor=#99CCFF;strokeColor=default;fontColor=#333333;fontSize=10;align=center;verticalAlign=middle;fontFamily=Helvetica;" vertex="1" parent="1">
          <mxGeometry x="351" y="390" width="20" height="20" as="geometry" />
        </mxCell>
        <mxCell id="2kREBUdH7p19kiy_EeAZ-183" value="bos" style="rounded=0;whiteSpace=wrap;html=1;fillColor=#99FF99;strokeColor=default;fontColor=#333333;fontSize=10;align=center;verticalAlign=middle;fontFamily=Helvetica;" vertex="1" parent="1">
          <mxGeometry x="351" y="420" width="20" height="20" as="geometry" />
        </mxCell>
        <mxCell id="2kREBUdH7p19kiy_EeAZ-184" value="" style="rounded=0;whiteSpace=wrap;html=1;fillColor=#f5f5f5;strokeColor=default;fontColor=#333333;fontSize=10;align=center;verticalAlign=middle;fontFamily=Helvetica;" vertex="1" parent="1">
          <mxGeometry x="381" y="420" width="20" height="20" as="geometry" />
        </mxCell>
        <mxCell id="2kREBUdH7p19kiy_EeAZ-185" value="" style="rounded=0;whiteSpace=wrap;html=1;fillColor=#f5f5f5;strokeColor=default;fontSize=10;align=center;verticalAlign=middle;fontFamily=Helvetica;fontColor=#333333;" vertex="1" parent="1">
          <mxGeometry x="381" y="390" width="20" height="20" as="geometry" />
        </mxCell>
        <mxCell id="2kREBUdH7p19kiy_EeAZ-186" value="" style="rounded=0;whiteSpace=wrap;html=1;fillColor=#f5f5f5;strokeColor=default;fontSize=10;align=center;verticalAlign=middle;fontFamily=Helvetica;fontColor=#333333;" vertex="1" parent="1">
          <mxGeometry x="411" y="390" width="20" height="20" as="geometry" />
        </mxCell>
        <mxCell id="2kREBUdH7p19kiy_EeAZ-187" value="" style="rounded=0;whiteSpace=wrap;html=1;fillColor=#f5f5f5;strokeColor=default;fontColor=#333333;fontSize=10;align=center;verticalAlign=middle;fontFamily=Helvetica;" vertex="1" parent="1">
          <mxGeometry x="411" y="420" width="20" height="20" as="geometry" />
        </mxCell>
        <mxCell id="2kREBUdH7p19kiy_EeAZ-188" value="" style="rounded=0;whiteSpace=wrap;html=1;fillColor=#f5f5f5;strokeColor=default;fontColor=#333333;fontSize=10;align=center;verticalAlign=middle;fontFamily=Helvetica;" vertex="1" parent="1">
          <mxGeometry x="441" y="420" width="20" height="20" as="geometry" />
        </mxCell>
        <mxCell id="2kREBUdH7p19kiy_EeAZ-189" value="" style="rounded=0;whiteSpace=wrap;html=1;fillColor=#f5f5f5;strokeColor=default;fontSize=10;align=center;verticalAlign=middle;fontFamily=Helvetica;fontColor=#333333;" vertex="1" parent="1">
          <mxGeometry x="441" y="390" width="20" height="20" as="geometry" />
        </mxCell>
        <mxCell id="2kREBUdH7p19kiy_EeAZ-190" value="" style="rounded=0;whiteSpace=wrap;html=1;fillColor=#f5f5f5;strokeColor=default;fontSize=10;align=center;verticalAlign=middle;fontFamily=Helvetica;fontColor=#333333;" vertex="1" parent="1">
          <mxGeometry x="471" y="390" width="20" height="20" as="geometry" />
        </mxCell>
        <mxCell id="2kREBUdH7p19kiy_EeAZ-191" value="" style="rounded=0;whiteSpace=wrap;html=1;fillColor=#f5f5f5;strokeColor=default;fontColor=#333333;fontSize=10;align=center;verticalAlign=middle;fontFamily=Helvetica;" vertex="1" parent="1">
          <mxGeometry x="471" y="420" width="20" height="20" as="geometry" />
        </mxCell>
        <mxCell id="2kREBUdH7p19kiy_EeAZ-192" value="" style="rounded=0;whiteSpace=wrap;html=1;fillColor=#f5f5f5;strokeColor=default;fontColor=#333333;fontSize=10;align=center;verticalAlign=middle;fontFamily=Helvetica;" vertex="1" parent="1">
          <mxGeometry x="501" y="420" width="20" height="20" as="geometry" />
        </mxCell>
        <mxCell id="2kREBUdH7p19kiy_EeAZ-193" value="" style="rounded=0;whiteSpace=wrap;html=1;fillColor=#f5f5f5;strokeColor=default;fontSize=10;align=center;verticalAlign=middle;fontFamily=Helvetica;fontColor=#333333;" vertex="1" parent="1">
          <mxGeometry x="501" y="390" width="20" height="20" as="geometry" />
        </mxCell>
        <mxCell id="2kREBUdH7p19kiy_EeAZ-194" value="" style="rounded=0;whiteSpace=wrap;html=1;fillColor=#f5f5f5;strokeColor=default;fontSize=10;align=center;verticalAlign=middle;fontFamily=Helvetica;fontColor=#333333;" vertex="1" parent="1">
          <mxGeometry x="531" y="390" width="20" height="20" as="geometry" />
        </mxCell>
        <mxCell id="2kREBUdH7p19kiy_EeAZ-195" value="" style="rounded=0;whiteSpace=wrap;html=1;fillColor=#f5f5f5;strokeColor=default;fontColor=#333333;fontSize=10;align=center;verticalAlign=middle;fontFamily=Helvetica;" vertex="1" parent="1">
          <mxGeometry x="531" y="420" width="20" height="20" as="geometry" />
        </mxCell>
        <mxCell id="2kREBUdH7p19kiy_EeAZ-196" value="eos" style="rounded=0;whiteSpace=wrap;html=1;fillColor=#99FF99;strokeColor=default;fontColor=#333333;fontSize=10;align=center;verticalAlign=middle;fontFamily=Helvetica;" vertex="1" parent="1">
          <mxGeometry x="681" y="420" width="20" height="20" as="geometry" />
        </mxCell>
        <mxCell id="2kREBUdH7p19kiy_EeAZ-197" value="eos" style="rounded=0;whiteSpace=wrap;html=1;fillColor=#99CCFF;strokeColor=default;fontColor=#333333;fontSize=10;align=center;verticalAlign=middle;fontFamily=Helvetica;" vertex="1" parent="1">
          <mxGeometry x="681" y="390" width="20" height="20" as="geometry" />
        </mxCell>
        <mxCell id="2kREBUdH7p19kiy_EeAZ-198" value="ans" style="rounded=0;whiteSpace=wrap;html=1;fillColor=#99CCFF;strokeColor=default;fontColor=#333333;fontSize=10;align=center;verticalAlign=middle;fontFamily=Helvetica;" vertex="1" parent="1">
          <mxGeometry x="711" y="390" width="20" height="20" as="geometry" />
        </mxCell>
        <mxCell id="2kREBUdH7p19kiy_EeAZ-199" value="ans" style="rounded=0;whiteSpace=wrap;html=1;fillColor=#99FF99;strokeColor=default;fontColor=#333333;fontSize=10;" vertex="1" parent="1">
          <mxGeometry x="711" y="420" width="20" height="20" as="geometry" />
        </mxCell>
        <mxCell id="2kREBUdH7p19kiy_EeAZ-200" value="" style="rounded=0;whiteSpace=wrap;html=1;fillColor=#009900;strokeColor=default;fontColor=#333333;fontSize=10;strokeWidth=3;" vertex="1" parent="1">
          <mxGeometry x="741" y="420" width="20" height="20" as="geometry" />
        </mxCell>
        <mxCell id="2kREBUdH7p19kiy_EeAZ-201" value="" style="rounded=0;whiteSpace=wrap;html=1;fillColor=#f5f5f5;strokeColor=default;fontColor=#333333;fontSize=10;strokeWidth=3;" vertex="1" parent="1">
          <mxGeometry x="741" y="390" width="20" height="20" as="geometry" />
        </mxCell>
        <mxCell id="2kREBUdH7p19kiy_EeAZ-202" value="" style="rounded=0;whiteSpace=wrap;html=1;fillColor=#0066CC;strokeColor=default;fontColor=#333333;fontSize=10;strokeWidth=3;" vertex="1" parent="1">
          <mxGeometry x="771" y="390" width="20" height="20" as="geometry" />
        </mxCell>
        <mxCell id="2kREBUdH7p19kiy_EeAZ-203" value="" style="rounded=0;whiteSpace=wrap;html=1;fillColor=#009900;strokeColor=default;fontColor=#333333;fontSize=10;strokeWidth=3;" vertex="1" parent="1">
          <mxGeometry x="771" y="420" width="20" height="20" as="geometry" />
        </mxCell>
        <mxCell id="2kREBUdH7p19kiy_EeAZ-204" value="" style="rounded=0;whiteSpace=wrap;html=1;fillColor=#0066CC;strokeColor=default;fontColor=#333333;fontSize=10;strokeWidth=3;" vertex="1" parent="1">
          <mxGeometry x="801" y="390" width="20" height="20" as="geometry" />
        </mxCell>
        <mxCell id="2kREBUdH7p19kiy_EeAZ-205" value="" style="rounded=0;whiteSpace=wrap;html=1;fillColor=#0066CC;strokeColor=default;fontColor=#333333;fontSize=10;strokeWidth=3;" vertex="1" parent="1">
          <mxGeometry x="831" y="390" width="20" height="20" as="geometry" />
        </mxCell>
        <mxCell id="2kREBUdH7p19kiy_EeAZ-206" value="" style="rounded=0;whiteSpace=wrap;html=1;fillColor=#f5f5f5;strokeColor=default;fontColor=#333333;fontSize=10;align=center;verticalAlign=middle;fontFamily=Helvetica;" vertex="1" parent="1">
          <mxGeometry x="861" y="420" width="20" height="20" as="geometry" />
        </mxCell>
        <mxCell id="2kREBUdH7p19kiy_EeAZ-207" value="" style="rounded=0;whiteSpace=wrap;html=1;fillColor=#0066CC;strokeColor=default;fontColor=#333333;fontSize=10;strokeWidth=3;" vertex="1" parent="1">
          <mxGeometry x="861" y="390" width="20" height="20" as="geometry" />
        </mxCell>
        <mxCell id="2kREBUdH7p19kiy_EeAZ-208" value="" style="rounded=0;whiteSpace=wrap;html=1;fillColor=#0066CC;strokeColor=default;fontColor=#333333;fontSize=10;strokeWidth=3;" vertex="1" parent="1">
          <mxGeometry x="891" y="390" width="20" height="20" as="geometry" />
        </mxCell>
        <mxCell id="2kREBUdH7p19kiy_EeAZ-209" value="" style="rounded=0;whiteSpace=wrap;html=1;fillColor=#f5f5f5;strokeColor=default;fontColor=#333333;fontSize=10;align=center;verticalAlign=middle;fontFamily=Helvetica;" vertex="1" parent="1">
          <mxGeometry x="891" y="420" width="20" height="20" as="geometry" />
        </mxCell>
        <mxCell id="2kREBUdH7p19kiy_EeAZ-210" value="" style="rounded=0;whiteSpace=wrap;html=1;fillColor=#f5f5f5;strokeColor=default;fontColor=#333333;fontSize=10;align=center;verticalAlign=middle;fontFamily=Helvetica;" vertex="1" parent="1">
          <mxGeometry x="921" y="420" width="20" height="20" as="geometry" />
        </mxCell>
        <mxCell id="2kREBUdH7p19kiy_EeAZ-211" value="eos" style="rounded=0;whiteSpace=wrap;html=1;fillColor=#99CCFF;strokeColor=default;fontColor=#333333;fontSize=10;align=center;verticalAlign=middle;fontFamily=Helvetica;strokeWidth=3;" vertex="1" parent="1">
          <mxGeometry x="921" y="390" width="20" height="20" as="geometry" />
        </mxCell>
        <mxCell id="2kREBUdH7p19kiy_EeAZ-212" value="eos" style="rounded=0;whiteSpace=wrap;html=1;fillColor=#99FF99;strokeColor=default;fontColor=#333333;fontSize=10;strokeWidth=3;" vertex="1" parent="1">
          <mxGeometry x="801" y="420" width="20" height="20" as="geometry" />
        </mxCell>
        <mxCell id="2kREBUdH7p19kiy_EeAZ-213" value="eos" style="rounded=0;whiteSpace=wrap;html=1;fillColor=#99FF99;strokeColor=default;fontColor=#333333;fontSize=10;align=center;verticalAlign=middle;fontFamily=Helvetica;" vertex="1" parent="1">
          <mxGeometry x="321" y="420" width="20" height="20" as="geometry" />
        </mxCell>
        <mxCell id="2kREBUdH7p19kiy_EeAZ-214" value="" style="rounded=0;whiteSpace=wrap;html=1;fillColor=#009900;strokeColor=default;fontColor=#333333;fontSize=10;" vertex="1" parent="1">
          <mxGeometry x="291" y="420" width="20" height="20" as="geometry" />
        </mxCell>
        <mxCell id="2kREBUdH7p19kiy_EeAZ-215" value="bos" style="rounded=0;whiteSpace=wrap;html=1;fillColor=#99FF99;strokeColor=default;fontColor=#333333;fontSize=10;align=center;verticalAlign=middle;fontFamily=Helvetica;" vertex="1" parent="1">
          <mxGeometry x="261" y="420" width="20" height="20" as="geometry" />
        </mxCell>
        <mxCell id="2kREBUdH7p19kiy_EeAZ-216" value="" style="rounded=0;whiteSpace=wrap;html=1;fillColor=#f5f5f5;strokeColor=default;fontColor=#333333;fontSize=10;align=center;verticalAlign=middle;fontFamily=Helvetica;" vertex="1" parent="1">
          <mxGeometry x="261" y="390" width="20" height="20" as="geometry" />
        </mxCell>
        <mxCell id="2kREBUdH7p19kiy_EeAZ-217" value="" style="rounded=0;whiteSpace=wrap;html=1;fillColor=#f5f5f5;strokeColor=default;fontColor=#333333;fontSize=10;align=center;verticalAlign=middle;fontFamily=Helvetica;" vertex="1" parent="1">
          <mxGeometry x="291" y="390" width="20" height="20" as="geometry" />
        </mxCell>
        <mxCell id="2kREBUdH7p19kiy_EeAZ-218" value="" style="rounded=0;whiteSpace=wrap;html=1;fillColor=#f5f5f5;strokeColor=default;fontColor=#333333;fontSize=10;align=center;verticalAlign=middle;fontFamily=Helvetica;" vertex="1" parent="1">
          <mxGeometry x="321" y="390" width="20" height="20" as="geometry" />
        </mxCell>
        <mxCell id="2kREBUdH7p19kiy_EeAZ-225" value="" style="rounded=0;whiteSpace=wrap;html=1;fillColor=#f5f5f5;strokeColor=default;fontColor=#333333;fontSize=10;align=center;verticalAlign=middle;fontFamily=Helvetica;" vertex="1" parent="1">
          <mxGeometry x="561" y="420" width="20" height="20" as="geometry" />
        </mxCell>
        <mxCell id="2kREBUdH7p19kiy_EeAZ-226" value="" style="rounded=0;whiteSpace=wrap;html=1;fillColor=#f5f5f5;strokeColor=default;fontSize=10;align=center;verticalAlign=middle;fontFamily=Helvetica;fontColor=#333333;" vertex="1" parent="1">
          <mxGeometry x="561" y="390" width="20" height="20" as="geometry" />
        </mxCell>
        <mxCell id="2kREBUdH7p19kiy_EeAZ-227" value="" style="rounded=0;whiteSpace=wrap;html=1;fillColor=#f5f5f5;strokeColor=default;fontSize=10;align=center;verticalAlign=middle;fontFamily=Helvetica;fontColor=#333333;" vertex="1" parent="1">
          <mxGeometry x="591" y="390" width="20" height="20" as="geometry" />
        </mxCell>
        <mxCell id="2kREBUdH7p19kiy_EeAZ-228" value="" style="rounded=0;whiteSpace=wrap;html=1;fillColor=#f5f5f5;strokeColor=default;fontColor=#333333;fontSize=10;align=center;verticalAlign=middle;fontFamily=Helvetica;" vertex="1" parent="1">
          <mxGeometry x="591" y="420" width="20" height="20" as="geometry" />
        </mxCell>
        <mxCell id="2kREBUdH7p19kiy_EeAZ-229" value="" style="rounded=0;whiteSpace=wrap;html=1;fillColor=#f5f5f5;strokeColor=default;fontColor=#333333;fontSize=10;align=center;verticalAlign=middle;fontFamily=Helvetica;" vertex="1" parent="1">
          <mxGeometry x="621" y="420" width="20" height="20" as="geometry" />
        </mxCell>
        <mxCell id="2kREBUdH7p19kiy_EeAZ-230" value="" style="rounded=0;whiteSpace=wrap;html=1;fillColor=#f5f5f5;strokeColor=default;fontSize=10;align=center;verticalAlign=middle;fontFamily=Helvetica;fontColor=#333333;" vertex="1" parent="1">
          <mxGeometry x="621" y="390" width="20" height="20" as="geometry" />
        </mxCell>
        <mxCell id="2kREBUdH7p19kiy_EeAZ-231" value="" style="rounded=0;whiteSpace=wrap;html=1;fillColor=#f5f5f5;strokeColor=default;fontSize=10;align=center;verticalAlign=middle;fontFamily=Helvetica;fontColor=#333333;" vertex="1" parent="1">
          <mxGeometry x="651" y="390" width="20" height="20" as="geometry" />
        </mxCell>
        <mxCell id="2kREBUdH7p19kiy_EeAZ-232" value="" style="rounded=0;whiteSpace=wrap;html=1;fillColor=#f5f5f5;strokeColor=default;fontColor=#333333;fontSize=10;align=center;verticalAlign=middle;fontFamily=Helvetica;" vertex="1" parent="1">
          <mxGeometry x="651" y="420" width="20" height="20" as="geometry" />
        </mxCell>
        <mxCell id="2kREBUdH7p19kiy_EeAZ-235" value="" style="rounded=0;whiteSpace=wrap;html=1;fillColor=#009900;strokeColor=default;fontColor=#333333;fontSize=10;" vertex="1" parent="1">
          <mxGeometry x="411" y="280" width="20" height="20" as="geometry" />
        </mxCell>
        <mxCell id="2kREBUdH7p19kiy_EeAZ-236" value="" style="rounded=0;whiteSpace=wrap;html=1;fillColor=#f5f5f5;strokeColor=default;fontColor=#333333;fontSize=10;align=center;verticalAlign=middle;fontFamily=Helvetica;" vertex="1" parent="1">
          <mxGeometry x="411" y="250" width="20" height="20" as="geometry" />
        </mxCell>
        <mxCell id="2kREBUdH7p19kiy_EeAZ-243" value="" style="rounded=0;whiteSpace=wrap;html=1;fillColor=#f8cecc;strokeColor=#b85450;fontSize=10;" vertex="1" parent="1">
          <mxGeometry x="261" y="250" width="20" height="20" as="geometry" />
        </mxCell>
        <mxCell id="2kREBUdH7p19kiy_EeAZ-244" value="" style="rounded=0;whiteSpace=wrap;html=1;fillColor=#f8cecc;strokeColor=#b85450;fontSize=10;" vertex="1" parent="1">
          <mxGeometry x="291" y="250" width="20" height="20" as="geometry" />
        </mxCell>
        <mxCell id="2kREBUdH7p19kiy_EeAZ-245" value="" style="rounded=0;whiteSpace=wrap;html=1;fillColor=#f8cecc;strokeColor=#b85450;fontSize=10;" vertex="1" parent="1">
          <mxGeometry x="321" y="250" width="20" height="20" as="geometry" />
        </mxCell>
        <mxCell id="2kREBUdH7p19kiy_EeAZ-246" value="" style="rounded=0;whiteSpace=wrap;html=1;fillColor=#f8cecc;strokeColor=#b85450;fontSize=10;" vertex="1" parent="1">
          <mxGeometry x="321" y="280" width="20" height="20" as="geometry" />
        </mxCell>
        <mxCell id="2kREBUdH7p19kiy_EeAZ-247" value="" style="rounded=0;whiteSpace=wrap;html=1;fillColor=#f8cecc;strokeColor=#b85450;fontSize=10;" vertex="1" parent="1">
          <mxGeometry x="291" y="280" width="20" height="20" as="geometry" />
        </mxCell>
        <mxCell id="2kREBUdH7p19kiy_EeAZ-248" value="" style="rounded=0;whiteSpace=wrap;html=1;fillColor=#f8cecc;strokeColor=#b85450;fontSize=10;" vertex="1" parent="1">
          <mxGeometry x="261" y="280" width="20" height="20" as="geometry" />
        </mxCell>
        <mxCell id="2kREBUdH7p19kiy_EeAZ-249" value="" style="rounded=0;whiteSpace=wrap;html=1;fillColor=#f8cecc;strokeColor=#b85450;fontSize=10;" vertex="1" parent="1">
          <mxGeometry x="1011" y="250" width="20" height="20" as="geometry" />
        </mxCell>
        <mxCell id="2kREBUdH7p19kiy_EeAZ-250" value="" style="rounded=0;whiteSpace=wrap;html=1;fillColor=#f8cecc;strokeColor=#b85450;fontSize=10;" vertex="1" parent="1">
          <mxGeometry x="1011" y="280" width="20" height="20" as="geometry" />
        </mxCell>
        <mxCell id="2kREBUdH7p19kiy_EeAZ-258" value="" style="rounded=0;whiteSpace=wrap;html=1;fontSize=10;fillColor=#f9f7ed;strokeColor=#36393d;" vertex="1" parent="1">
          <mxGeometry x="321" y="310" width="20" height="20" as="geometry" />
        </mxCell>
        <mxCell id="2kREBUdH7p19kiy_EeAZ-259" value="" style="rounded=0;whiteSpace=wrap;html=1;fontSize=10;fillColor=#f9f7ed;strokeColor=#36393d;" vertex="1" parent="1">
          <mxGeometry x="291" y="310" width="20" height="20" as="geometry" />
        </mxCell>
        <mxCell id="2kREBUdH7p19kiy_EeAZ-260" value="" style="rounded=0;whiteSpace=wrap;html=1;fontSize=10;fillColor=#f9f7ed;strokeColor=#36393d;" vertex="1" parent="1">
          <mxGeometry x="261" y="310" width="20" height="20" as="geometry" />
        </mxCell>
        <mxCell id="2kREBUdH7p19kiy_EeAZ-264" value="" style="rounded=0;whiteSpace=wrap;html=1;fontSize=10;fillColor=#f9f7ed;strokeColor=#36393d;" vertex="1" parent="1">
          <mxGeometry x="321" y="340" width="20" height="20" as="geometry" />
        </mxCell>
        <mxCell id="2kREBUdH7p19kiy_EeAZ-265" value="" style="rounded=0;whiteSpace=wrap;html=1;fontSize=10;fillColor=#f9f7ed;strokeColor=#36393d;" vertex="1" parent="1">
          <mxGeometry x="291" y="340" width="20" height="20" as="geometry" />
        </mxCell>
        <mxCell id="2kREBUdH7p19kiy_EeAZ-266" value="" style="rounded=0;whiteSpace=wrap;html=1;fontSize=10;fillColor=#f9f7ed;strokeColor=#36393d;" vertex="1" parent="1">
          <mxGeometry x="261" y="340" width="20" height="20" as="geometry" />
        </mxCell>
        <mxCell id="2kREBUdH7p19kiy_EeAZ-267" value="" style="rounded=0;whiteSpace=wrap;html=1;fontSize=10;fillColor=#f9f7ed;strokeColor=#36393d;" vertex="1" parent="1">
          <mxGeometry x="411" y="310" width="20" height="20" as="geometry" />
        </mxCell>
        <mxCell id="2kREBUdH7p19kiy_EeAZ-268" value="" style="rounded=0;whiteSpace=wrap;html=1;fontSize=10;fillColor=#f9f7ed;strokeColor=#36393d;" vertex="1" parent="1">
          <mxGeometry x="381" y="310" width="20" height="20" as="geometry" />
        </mxCell>
        <mxCell id="2kREBUdH7p19kiy_EeAZ-269" value="" style="rounded=0;whiteSpace=wrap;html=1;fontSize=10;fillColor=#f9f7ed;strokeColor=#36393d;" vertex="1" parent="1">
          <mxGeometry x="351" y="310" width="20" height="20" as="geometry" />
        </mxCell>
        <mxCell id="2kREBUdH7p19kiy_EeAZ-270" value="" style="rounded=0;whiteSpace=wrap;html=1;fillColor=#999999;strokeColor=default;fontColor=#333333;fontSize=10;align=center;verticalAlign=middle;fontFamily=Helvetica;" vertex="1" parent="1">
          <mxGeometry x="411" y="340" width="20" height="20" as="geometry" />
        </mxCell>
        <mxCell id="2kREBUdH7p19kiy_EeAZ-271" value="" style="rounded=0;whiteSpace=wrap;html=1;fillColor=#999999;strokeColor=default;fontColor=#333333;fontSize=10;align=center;verticalAlign=middle;fontFamily=Helvetica;" vertex="1" parent="1">
          <mxGeometry x="381" y="340" width="20" height="20" as="geometry" />
        </mxCell>
        <mxCell id="2kREBUdH7p19kiy_EeAZ-272" value="" style="rounded=0;whiteSpace=wrap;html=1;fillColor=#999999;strokeColor=default;fontColor=#333333;fontSize=10;align=center;verticalAlign=middle;fontFamily=Helvetica;" vertex="1" parent="1">
          <mxGeometry x="351" y="340" width="20" height="20" as="geometry" />
        </mxCell>
        <mxCell id="2kREBUdH7p19kiy_EeAZ-273" value="" style="rounded=0;whiteSpace=wrap;html=1;fontSize=10;fillColor=#999999;fontColor=#333333;strokeColor=default;align=center;verticalAlign=middle;fontFamily=Helvetica;" vertex="1" parent="1">
          <mxGeometry x="501" y="310" width="20" height="20" as="geometry" />
        </mxCell>
        <mxCell id="2kREBUdH7p19kiy_EeAZ-274" value="" style="rounded=0;whiteSpace=wrap;html=1;fontSize=10;fillColor=#f9f7ed;strokeColor=#36393d;" vertex="1" parent="1">
          <mxGeometry x="471" y="310" width="20" height="20" as="geometry" />
        </mxCell>
        <mxCell id="2kREBUdH7p19kiy_EeAZ-275" value="" style="rounded=0;whiteSpace=wrap;html=1;fontSize=10;fillColor=#f9f7ed;strokeColor=#36393d;" vertex="1" parent="1">
          <mxGeometry x="441" y="310" width="20" height="20" as="geometry" />
        </mxCell>
        <mxCell id="2kREBUdH7p19kiy_EeAZ-276" value="" style="rounded=0;whiteSpace=wrap;html=1;fillColor=#999999;strokeColor=default;fontColor=#333333;fontSize=10;align=center;verticalAlign=middle;fontFamily=Helvetica;" vertex="1" parent="1">
          <mxGeometry x="501" y="340" width="20" height="20" as="geometry" />
        </mxCell>
        <mxCell id="2kREBUdH7p19kiy_EeAZ-277" value="" style="rounded=0;whiteSpace=wrap;html=1;fillColor=#999999;strokeColor=default;fontColor=#333333;fontSize=10;align=center;verticalAlign=middle;fontFamily=Helvetica;" vertex="1" parent="1">
          <mxGeometry x="471" y="340" width="20" height="20" as="geometry" />
        </mxCell>
        <mxCell id="2kREBUdH7p19kiy_EeAZ-278" value="" style="rounded=0;whiteSpace=wrap;html=1;fillColor=#999999;strokeColor=default;fontColor=#333333;fontSize=10;align=center;verticalAlign=middle;fontFamily=Helvetica;" vertex="1" parent="1">
          <mxGeometry x="441" y="340" width="20" height="20" as="geometry" />
        </mxCell>
        <mxCell id="2kREBUdH7p19kiy_EeAZ-279" value="" style="rounded=0;whiteSpace=wrap;html=1;fontSize=10;fillColor=#999999;fontColor=#333333;strokeColor=default;align=center;verticalAlign=middle;fontFamily=Helvetica;" vertex="1" parent="1">
          <mxGeometry x="591" y="310" width="20" height="20" as="geometry" />
        </mxCell>
        <mxCell id="2kREBUdH7p19kiy_EeAZ-280" value="" style="rounded=0;whiteSpace=wrap;html=1;fontSize=10;fillColor=#999999;fontColor=#333333;strokeColor=default;align=center;verticalAlign=middle;fontFamily=Helvetica;" vertex="1" parent="1">
          <mxGeometry x="561" y="310" width="20" height="20" as="geometry" />
        </mxCell>
        <mxCell id="2kREBUdH7p19kiy_EeAZ-281" value="" style="rounded=0;whiteSpace=wrap;html=1;fontSize=10;fillColor=#999999;fontColor=#333333;strokeColor=default;align=center;verticalAlign=middle;fontFamily=Helvetica;" vertex="1" parent="1">
          <mxGeometry x="531" y="310" width="20" height="20" as="geometry" />
        </mxCell>
        <mxCell id="2kREBUdH7p19kiy_EeAZ-282" value="" style="rounded=0;whiteSpace=wrap;html=1;fillColor=#999999;strokeColor=default;fontColor=#333333;fontSize=10;align=center;verticalAlign=middle;fontFamily=Helvetica;" vertex="1" parent="1">
          <mxGeometry x="591" y="340" width="20" height="20" as="geometry" />
        </mxCell>
        <mxCell id="2kREBUdH7p19kiy_EeAZ-283" value="" style="rounded=0;whiteSpace=wrap;html=1;fillColor=#999999;strokeColor=default;fontColor=#333333;fontSize=10;align=center;verticalAlign=middle;fontFamily=Helvetica;" vertex="1" parent="1">
          <mxGeometry x="561" y="340" width="20" height="20" as="geometry" />
        </mxCell>
        <mxCell id="2kREBUdH7p19kiy_EeAZ-284" value="" style="rounded=0;whiteSpace=wrap;html=1;fillColor=#999999;strokeColor=default;fontColor=#333333;fontSize=10;align=center;verticalAlign=middle;fontFamily=Helvetica;" vertex="1" parent="1">
          <mxGeometry x="531" y="340" width="20" height="20" as="geometry" />
        </mxCell>
        <mxCell id="2kREBUdH7p19kiy_EeAZ-285" value="" style="rounded=0;whiteSpace=wrap;html=1;fontSize=10;fillColor=#f9f7ed;strokeColor=#36393d;" vertex="1" parent="1">
          <mxGeometry x="681" y="310" width="20" height="20" as="geometry" />
        </mxCell>
        <mxCell id="2kREBUdH7p19kiy_EeAZ-286" value="" style="rounded=0;whiteSpace=wrap;html=1;fontSize=10;fillColor=#999999;fontColor=#333333;strokeColor=default;align=center;verticalAlign=middle;fontFamily=Helvetica;" vertex="1" parent="1">
          <mxGeometry x="651" y="310" width="20" height="20" as="geometry" />
        </mxCell>
        <mxCell id="2kREBUdH7p19kiy_EeAZ-287" value="" style="rounded=0;whiteSpace=wrap;html=1;fontSize=10;fillColor=#999999;fontColor=#333333;strokeColor=default;align=center;verticalAlign=middle;fontFamily=Helvetica;" vertex="1" parent="1">
          <mxGeometry x="621" y="310" width="20" height="20" as="geometry" />
        </mxCell>
        <mxCell id="2kREBUdH7p19kiy_EeAZ-288" value="" style="rounded=0;whiteSpace=wrap;html=1;fillColor=#999999;strokeColor=default;fontColor=#333333;fontSize=10;align=center;verticalAlign=middle;fontFamily=Helvetica;" vertex="1" parent="1">
          <mxGeometry x="681" y="340" width="20" height="20" as="geometry" />
        </mxCell>
        <mxCell id="2kREBUdH7p19kiy_EeAZ-289" value="" style="rounded=0;whiteSpace=wrap;html=1;fillColor=#999999;strokeColor=default;fontColor=#333333;fontSize=10;align=center;verticalAlign=middle;fontFamily=Helvetica;" vertex="1" parent="1">
          <mxGeometry x="651" y="340" width="20" height="20" as="geometry" />
        </mxCell>
        <mxCell id="2kREBUdH7p19kiy_EeAZ-290" value="" style="rounded=0;whiteSpace=wrap;html=1;fillColor=#999999;strokeColor=default;fontColor=#333333;fontSize=10;align=center;verticalAlign=middle;fontFamily=Helvetica;" vertex="1" parent="1">
          <mxGeometry x="621" y="340" width="20" height="20" as="geometry" />
        </mxCell>
        <mxCell id="2kREBUdH7p19kiy_EeAZ-291" value="" style="rounded=0;whiteSpace=wrap;html=1;fontSize=10;fillColor=#f9f7ed;strokeColor=#36393d;" vertex="1" parent="1">
          <mxGeometry x="771" y="310" width="20" height="20" as="geometry" />
        </mxCell>
        <mxCell id="2kREBUdH7p19kiy_EeAZ-292" value="" style="rounded=0;whiteSpace=wrap;html=1;fontSize=10;fillColor=#f9f7ed;strokeColor=#36393d;" vertex="1" parent="1">
          <mxGeometry x="741" y="310" width="20" height="20" as="geometry" />
        </mxCell>
        <mxCell id="2kREBUdH7p19kiy_EeAZ-293" value="" style="rounded=0;whiteSpace=wrap;html=1;fontSize=10;fillColor=#f9f7ed;strokeColor=#36393d;" vertex="1" parent="1">
          <mxGeometry x="711" y="310" width="20" height="20" as="geometry" />
        </mxCell>
        <mxCell id="2kREBUdH7p19kiy_EeAZ-294" value="" style="rounded=0;whiteSpace=wrap;html=1;fillColor=#999999;strokeColor=default;fontColor=#333333;fontSize=10;align=center;verticalAlign=middle;fontFamily=Helvetica;" vertex="1" parent="1">
          <mxGeometry x="771" y="340" width="20" height="20" as="geometry" />
        </mxCell>
        <mxCell id="2kREBUdH7p19kiy_EeAZ-295" value="" style="rounded=0;whiteSpace=wrap;html=1;fillColor=#999999;strokeColor=default;fontColor=#333333;fontSize=10;align=center;verticalAlign=middle;fontFamily=Helvetica;" vertex="1" parent="1">
          <mxGeometry x="741" y="340" width="20" height="20" as="geometry" />
        </mxCell>
        <mxCell id="2kREBUdH7p19kiy_EeAZ-296" value="" style="rounded=0;whiteSpace=wrap;html=1;fillColor=#999999;strokeColor=default;fontColor=#333333;fontSize=10;align=center;verticalAlign=middle;fontFamily=Helvetica;" vertex="1" parent="1">
          <mxGeometry x="711" y="340" width="20" height="20" as="geometry" />
        </mxCell>
        <mxCell id="2kREBUdH7p19kiy_EeAZ-297" value="" style="rounded=0;whiteSpace=wrap;html=1;fontSize=10;fillColor=#f9f7ed;strokeColor=#36393d;" vertex="1" parent="1">
          <mxGeometry x="861" y="310" width="20" height="20" as="geometry" />
        </mxCell>
        <mxCell id="2kREBUdH7p19kiy_EeAZ-298" value="" style="rounded=0;whiteSpace=wrap;html=1;fontSize=10;fillColor=#f9f7ed;strokeColor=#36393d;" vertex="1" parent="1">
          <mxGeometry x="831" y="310" width="20" height="20" as="geometry" />
        </mxCell>
        <mxCell id="2kREBUdH7p19kiy_EeAZ-299" value="" style="rounded=0;whiteSpace=wrap;html=1;fontSize=10;fillColor=#f9f7ed;strokeColor=#36393d;" vertex="1" parent="1">
          <mxGeometry x="801" y="310" width="20" height="20" as="geometry" />
        </mxCell>
        <mxCell id="2kREBUdH7p19kiy_EeAZ-300" value="" style="rounded=0;whiteSpace=wrap;html=1;fillColor=#999999;strokeColor=default;fontColor=#333333;fontSize=10;align=center;verticalAlign=middle;fontFamily=Helvetica;" vertex="1" parent="1">
          <mxGeometry x="861" y="340" width="20" height="20" as="geometry" />
        </mxCell>
        <mxCell id="2kREBUdH7p19kiy_EeAZ-301" value="" style="rounded=0;whiteSpace=wrap;html=1;fillColor=#999999;strokeColor=default;fontColor=#333333;fontSize=10;align=center;verticalAlign=middle;fontFamily=Helvetica;" vertex="1" parent="1">
          <mxGeometry x="831" y="340" width="20" height="20" as="geometry" />
        </mxCell>
        <mxCell id="2kREBUdH7p19kiy_EeAZ-302" value="" style="rounded=0;whiteSpace=wrap;html=1;fillColor=#999999;strokeColor=default;fontColor=#333333;fontSize=10;align=center;verticalAlign=middle;fontFamily=Helvetica;" vertex="1" parent="1">
          <mxGeometry x="801" y="340" width="20" height="20" as="geometry" />
        </mxCell>
        <mxCell id="2kREBUdH7p19kiy_EeAZ-303" value="" style="rounded=0;whiteSpace=wrap;html=1;fontSize=10;fillColor=#f9f7ed;strokeColor=#36393d;" vertex="1" parent="1">
          <mxGeometry x="951" y="310" width="20" height="20" as="geometry" />
        </mxCell>
        <mxCell id="2kREBUdH7p19kiy_EeAZ-304" value="" style="rounded=0;whiteSpace=wrap;html=1;fontSize=10;fillColor=#f9f7ed;strokeColor=#36393d;" vertex="1" parent="1">
          <mxGeometry x="921" y="310" width="20" height="20" as="geometry" />
        </mxCell>
        <mxCell id="2kREBUdH7p19kiy_EeAZ-305" value="" style="rounded=0;whiteSpace=wrap;html=1;fontSize=10;fillColor=#f9f7ed;strokeColor=#36393d;" vertex="1" parent="1">
          <mxGeometry x="891" y="310" width="20" height="20" as="geometry" />
        </mxCell>
        <mxCell id="2kREBUdH7p19kiy_EeAZ-306" value="" style="rounded=0;whiteSpace=wrap;html=1;fillColor=#999999;strokeColor=default;fontColor=#333333;fontSize=10;align=center;verticalAlign=middle;fontFamily=Helvetica;" vertex="1" parent="1">
          <mxGeometry x="951" y="340" width="20" height="20" as="geometry" />
        </mxCell>
        <mxCell id="2kREBUdH7p19kiy_EeAZ-307" value="" style="rounded=0;whiteSpace=wrap;html=1;fillColor=#999999;strokeColor=default;fontColor=#333333;fontSize=10;align=center;verticalAlign=middle;fontFamily=Helvetica;" vertex="1" parent="1">
          <mxGeometry x="921" y="340" width="20" height="20" as="geometry" />
        </mxCell>
        <mxCell id="2kREBUdH7p19kiy_EeAZ-308" value="" style="rounded=0;whiteSpace=wrap;html=1;fillColor=#999999;strokeColor=default;fontColor=#333333;fontSize=10;align=center;verticalAlign=middle;fontFamily=Helvetica;" vertex="1" parent="1">
          <mxGeometry x="891" y="340" width="20" height="20" as="geometry" />
        </mxCell>
        <mxCell id="2kREBUdH7p19kiy_EeAZ-309" value="" style="rounded=0;whiteSpace=wrap;html=1;fontSize=10;fillColor=#f9f7ed;strokeColor=#36393d;" vertex="1" parent="1">
          <mxGeometry x="1011" y="310" width="20" height="20" as="geometry" />
        </mxCell>
        <mxCell id="2kREBUdH7p19kiy_EeAZ-310" value="" style="rounded=0;whiteSpace=wrap;html=1;fontSize=10;fillColor=#f9f7ed;strokeColor=#36393d;" vertex="1" parent="1">
          <mxGeometry x="981" y="310" width="20" height="20" as="geometry" />
        </mxCell>
        <mxCell id="2kREBUdH7p19kiy_EeAZ-311" value="" style="rounded=0;whiteSpace=wrap;html=1;fontSize=10;fillColor=#f9f7ed;strokeColor=#36393d;" vertex="1" parent="1">
          <mxGeometry x="1011" y="340" width="20" height="20" as="geometry" />
        </mxCell>
        <mxCell id="2kREBUdH7p19kiy_EeAZ-312" value="" style="rounded=0;whiteSpace=wrap;html=1;fontSize=10;align=center;verticalAlign=middle;fontFamily=Helvetica;fillColor=#f9f7ed;strokeColor=#36393d;" vertex="1" parent="1">
          <mxGeometry x="981" y="340" width="20" height="20" as="geometry" />
        </mxCell>
        <mxCell id="2kREBUdH7p19kiy_EeAZ-313" value="" style="rounded=0;whiteSpace=wrap;html=1;fontSize=10;fillColor=#f9f7ed;strokeColor=#36393d;" vertex="1" parent="1">
          <mxGeometry x="321" y="450" width="20" height="20" as="geometry" />
        </mxCell>
        <mxCell id="2kREBUdH7p19kiy_EeAZ-314" value="" style="rounded=0;whiteSpace=wrap;html=1;fontSize=10;fillColor=#f9f7ed;strokeColor=#36393d;" vertex="1" parent="1">
          <mxGeometry x="291" y="450" width="20" height="20" as="geometry" />
        </mxCell>
        <mxCell id="2kREBUdH7p19kiy_EeAZ-315" value="" style="rounded=0;whiteSpace=wrap;html=1;fontSize=10;fillColor=#f9f7ed;strokeColor=#36393d;" vertex="1" parent="1">
          <mxGeometry x="261" y="450" width="20" height="20" as="geometry" />
        </mxCell>
        <mxCell id="2kREBUdH7p19kiy_EeAZ-316" value="" style="rounded=0;whiteSpace=wrap;html=1;fillColor=#999999;strokeColor=default;fontColor=#333333;fontSize=10;align=center;verticalAlign=middle;fontFamily=Helvetica;" vertex="1" parent="1">
          <mxGeometry x="321" y="480" width="20" height="20" as="geometry" />
        </mxCell>
        <mxCell id="2kREBUdH7p19kiy_EeAZ-317" value="" style="rounded=0;whiteSpace=wrap;html=1;fillColor=#999999;strokeColor=default;fontColor=#333333;fontSize=10;align=center;verticalAlign=middle;fontFamily=Helvetica;" vertex="1" parent="1">
          <mxGeometry x="291" y="480" width="20" height="20" as="geometry" />
        </mxCell>
        <mxCell id="2kREBUdH7p19kiy_EeAZ-318" value="" style="rounded=0;whiteSpace=wrap;html=1;fillColor=#999999;strokeColor=default;fontColor=#333333;fontSize=10;align=center;verticalAlign=middle;fontFamily=Helvetica;" vertex="1" parent="1">
          <mxGeometry x="261" y="480" width="20" height="20" as="geometry" />
        </mxCell>
        <mxCell id="2kREBUdH7p19kiy_EeAZ-319" value="" style="rounded=0;whiteSpace=wrap;html=1;fillColor=#999999;strokeColor=default;fontColor=#333333;fontSize=10;align=center;verticalAlign=middle;fontFamily=Helvetica;" vertex="1" parent="1">
          <mxGeometry x="411" y="450" width="20" height="20" as="geometry" />
        </mxCell>
        <mxCell id="2kREBUdH7p19kiy_EeAZ-320" value="" style="rounded=0;whiteSpace=wrap;html=1;fillColor=#999999;strokeColor=default;fontColor=#333333;fontSize=10;align=center;verticalAlign=middle;fontFamily=Helvetica;" vertex="1" parent="1">
          <mxGeometry x="381" y="450" width="20" height="20" as="geometry" />
        </mxCell>
        <mxCell id="2kREBUdH7p19kiy_EeAZ-321" value="" style="rounded=0;whiteSpace=wrap;html=1;fontSize=10;fillColor=#f9f7ed;strokeColor=#36393d;" vertex="1" parent="1">
          <mxGeometry x="351" y="450" width="20" height="20" as="geometry" />
        </mxCell>
        <mxCell id="2kREBUdH7p19kiy_EeAZ-322" value="" style="rounded=0;whiteSpace=wrap;html=1;fillColor=#999999;strokeColor=default;fontColor=#333333;fontSize=10;align=center;verticalAlign=middle;fontFamily=Helvetica;" vertex="1" parent="1">
          <mxGeometry x="411" y="480" width="20" height="20" as="geometry" />
        </mxCell>
        <mxCell id="2kREBUdH7p19kiy_EeAZ-323" value="" style="rounded=0;whiteSpace=wrap;html=1;fillColor=#999999;strokeColor=default;fontColor=#333333;fontSize=10;align=center;verticalAlign=middle;fontFamily=Helvetica;" vertex="1" parent="1">
          <mxGeometry x="381" y="480" width="20" height="20" as="geometry" />
        </mxCell>
        <mxCell id="2kREBUdH7p19kiy_EeAZ-324" value="" style="rounded=0;whiteSpace=wrap;html=1;fillColor=#999999;strokeColor=default;fontColor=#333333;fontSize=10;align=center;verticalAlign=middle;fontFamily=Helvetica;" vertex="1" parent="1">
          <mxGeometry x="351" y="480" width="20" height="20" as="geometry" />
        </mxCell>
        <mxCell id="2kREBUdH7p19kiy_EeAZ-325" value="" style="rounded=0;whiteSpace=wrap;html=1;fillColor=#999999;strokeColor=default;fontColor=#333333;fontSize=10;align=center;verticalAlign=middle;fontFamily=Helvetica;" vertex="1" parent="1">
          <mxGeometry x="501" y="450" width="20" height="20" as="geometry" />
        </mxCell>
        <mxCell id="2kREBUdH7p19kiy_EeAZ-326" value="" style="rounded=0;whiteSpace=wrap;html=1;fillColor=#999999;strokeColor=default;fontColor=#333333;fontSize=10;align=center;verticalAlign=middle;fontFamily=Helvetica;" vertex="1" parent="1">
          <mxGeometry x="471" y="450" width="20" height="20" as="geometry" />
        </mxCell>
        <mxCell id="2kREBUdH7p19kiy_EeAZ-327" value="" style="rounded=0;whiteSpace=wrap;html=1;fillColor=#999999;strokeColor=default;fontColor=#333333;fontSize=10;align=center;verticalAlign=middle;fontFamily=Helvetica;" vertex="1" parent="1">
          <mxGeometry x="441" y="450" width="20" height="20" as="geometry" />
        </mxCell>
        <mxCell id="2kREBUdH7p19kiy_EeAZ-328" value="" style="rounded=0;whiteSpace=wrap;html=1;fillColor=#999999;strokeColor=default;fontColor=#333333;fontSize=10;align=center;verticalAlign=middle;fontFamily=Helvetica;" vertex="1" parent="1">
          <mxGeometry x="501" y="480" width="20" height="20" as="geometry" />
        </mxCell>
        <mxCell id="2kREBUdH7p19kiy_EeAZ-329" value="" style="rounded=0;whiteSpace=wrap;html=1;fillColor=#999999;strokeColor=default;fontColor=#333333;fontSize=10;align=center;verticalAlign=middle;fontFamily=Helvetica;" vertex="1" parent="1">
          <mxGeometry x="471" y="480" width="20" height="20" as="geometry" />
        </mxCell>
        <mxCell id="2kREBUdH7p19kiy_EeAZ-330" value="" style="rounded=0;whiteSpace=wrap;html=1;fillColor=#999999;strokeColor=default;fontColor=#333333;fontSize=10;align=center;verticalAlign=middle;fontFamily=Helvetica;" vertex="1" parent="1">
          <mxGeometry x="441" y="480" width="20" height="20" as="geometry" />
        </mxCell>
        <mxCell id="2kREBUdH7p19kiy_EeAZ-331" value="" style="rounded=0;whiteSpace=wrap;html=1;fillColor=#999999;strokeColor=default;fontColor=#333333;fontSize=10;align=center;verticalAlign=middle;fontFamily=Helvetica;" vertex="1" parent="1">
          <mxGeometry x="591" y="450" width="20" height="20" as="geometry" />
        </mxCell>
        <mxCell id="2kREBUdH7p19kiy_EeAZ-332" value="" style="rounded=0;whiteSpace=wrap;html=1;fillColor=#999999;strokeColor=default;fontColor=#333333;fontSize=10;align=center;verticalAlign=middle;fontFamily=Helvetica;" vertex="1" parent="1">
          <mxGeometry x="561" y="450" width="20" height="20" as="geometry" />
        </mxCell>
        <mxCell id="2kREBUdH7p19kiy_EeAZ-333" value="" style="rounded=0;whiteSpace=wrap;html=1;fillColor=#999999;strokeColor=default;fontColor=#333333;fontSize=10;align=center;verticalAlign=middle;fontFamily=Helvetica;" vertex="1" parent="1">
          <mxGeometry x="531" y="450" width="20" height="20" as="geometry" />
        </mxCell>
        <mxCell id="2kREBUdH7p19kiy_EeAZ-334" value="" style="rounded=0;whiteSpace=wrap;html=1;fillColor=#999999;strokeColor=default;fontColor=#333333;fontSize=10;align=center;verticalAlign=middle;fontFamily=Helvetica;" vertex="1" parent="1">
          <mxGeometry x="591" y="480" width="20" height="20" as="geometry" />
        </mxCell>
        <mxCell id="2kREBUdH7p19kiy_EeAZ-335" value="" style="rounded=0;whiteSpace=wrap;html=1;fillColor=#999999;strokeColor=default;fontColor=#333333;fontSize=10;align=center;verticalAlign=middle;fontFamily=Helvetica;" vertex="1" parent="1">
          <mxGeometry x="561" y="480" width="20" height="20" as="geometry" />
        </mxCell>
        <mxCell id="2kREBUdH7p19kiy_EeAZ-336" value="" style="rounded=0;whiteSpace=wrap;html=1;fillColor=#999999;strokeColor=default;fontColor=#333333;fontSize=10;align=center;verticalAlign=middle;fontFamily=Helvetica;" vertex="1" parent="1">
          <mxGeometry x="531" y="480" width="20" height="20" as="geometry" />
        </mxCell>
        <mxCell id="2kREBUdH7p19kiy_EeAZ-337" value="" style="rounded=0;whiteSpace=wrap;html=1;fontSize=10;fillColor=#f9f7ed;strokeColor=#36393d;" vertex="1" parent="1">
          <mxGeometry x="681" y="450" width="20" height="20" as="geometry" />
        </mxCell>
        <mxCell id="2kREBUdH7p19kiy_EeAZ-338" value="" style="rounded=0;whiteSpace=wrap;html=1;fillColor=#999999;strokeColor=default;fontColor=#333333;fontSize=10;align=center;verticalAlign=middle;fontFamily=Helvetica;" vertex="1" parent="1">
          <mxGeometry x="651" y="450" width="20" height="20" as="geometry" />
        </mxCell>
        <mxCell id="2kREBUdH7p19kiy_EeAZ-339" value="" style="rounded=0;whiteSpace=wrap;html=1;fillColor=#999999;strokeColor=default;fontColor=#333333;fontSize=10;align=center;verticalAlign=middle;fontFamily=Helvetica;" vertex="1" parent="1">
          <mxGeometry x="621" y="450" width="20" height="20" as="geometry" />
        </mxCell>
        <mxCell id="2kREBUdH7p19kiy_EeAZ-340" value="" style="rounded=0;whiteSpace=wrap;html=1;fillColor=#999999;strokeColor=default;fontColor=#333333;fontSize=10;align=center;verticalAlign=middle;fontFamily=Helvetica;" vertex="1" parent="1">
          <mxGeometry x="681" y="480" width="20" height="20" as="geometry" />
        </mxCell>
        <mxCell id="2kREBUdH7p19kiy_EeAZ-341" value="" style="rounded=0;whiteSpace=wrap;html=1;fillColor=#999999;strokeColor=default;fontColor=#333333;fontSize=10;align=center;verticalAlign=middle;fontFamily=Helvetica;" vertex="1" parent="1">
          <mxGeometry x="651" y="480" width="20" height="20" as="geometry" />
        </mxCell>
        <mxCell id="2kREBUdH7p19kiy_EeAZ-342" value="" style="rounded=0;whiteSpace=wrap;html=1;fillColor=#999999;strokeColor=default;fontColor=#333333;fontSize=10;align=center;verticalAlign=middle;fontFamily=Helvetica;" vertex="1" parent="1">
          <mxGeometry x="621" y="480" width="20" height="20" as="geometry" />
        </mxCell>
        <mxCell id="2kREBUdH7p19kiy_EeAZ-343" value="" style="rounded=0;whiteSpace=wrap;html=1;fontSize=10;fillColor=#f9f7ed;strokeColor=#36393d;" vertex="1" parent="1">
          <mxGeometry x="771" y="450" width="20" height="20" as="geometry" />
        </mxCell>
        <mxCell id="2kREBUdH7p19kiy_EeAZ-344" value="" style="rounded=0;whiteSpace=wrap;html=1;fontSize=10;fillColor=#f9f7ed;strokeColor=#36393d;" vertex="1" parent="1">
          <mxGeometry x="741" y="450" width="20" height="20" as="geometry" />
        </mxCell>
        <mxCell id="2kREBUdH7p19kiy_EeAZ-345" value="" style="rounded=0;whiteSpace=wrap;html=1;fontSize=10;fillColor=#f9f7ed;strokeColor=#36393d;" vertex="1" parent="1">
          <mxGeometry x="711" y="450" width="20" height="20" as="geometry" />
        </mxCell>
        <mxCell id="2kREBUdH7p19kiy_EeAZ-346" value="" style="rounded=0;whiteSpace=wrap;html=1;fillColor=#999999;strokeColor=default;fontColor=#333333;fontSize=10;align=center;verticalAlign=middle;fontFamily=Helvetica;" vertex="1" parent="1">
          <mxGeometry x="771" y="480" width="20" height="20" as="geometry" />
        </mxCell>
        <mxCell id="2kREBUdH7p19kiy_EeAZ-347" value="" style="rounded=0;whiteSpace=wrap;html=1;fillColor=#999999;strokeColor=default;fontColor=#333333;fontSize=10;align=center;verticalAlign=middle;fontFamily=Helvetica;" vertex="1" parent="1">
          <mxGeometry x="741" y="480" width="20" height="20" as="geometry" />
        </mxCell>
        <mxCell id="2kREBUdH7p19kiy_EeAZ-348" value="" style="rounded=0;whiteSpace=wrap;html=1;fillColor=#999999;strokeColor=default;fontColor=#333333;fontSize=10;align=center;verticalAlign=middle;fontFamily=Helvetica;" vertex="1" parent="1">
          <mxGeometry x="711" y="480" width="20" height="20" as="geometry" />
        </mxCell>
        <mxCell id="2kREBUdH7p19kiy_EeAZ-349" value="" style="rounded=0;whiteSpace=wrap;html=1;fontSize=10;fillColor=#f9f7ed;strokeColor=#36393d;" vertex="1" parent="1">
          <mxGeometry x="861" y="450" width="20" height="20" as="geometry" />
        </mxCell>
        <mxCell id="2kREBUdH7p19kiy_EeAZ-350" value="" style="rounded=0;whiteSpace=wrap;html=1;fontSize=10;fillColor=#f9f7ed;strokeColor=#36393d;" vertex="1" parent="1">
          <mxGeometry x="831" y="450" width="20" height="20" as="geometry" />
        </mxCell>
        <mxCell id="2kREBUdH7p19kiy_EeAZ-351" value="" style="rounded=0;whiteSpace=wrap;html=1;fontSize=10;fillColor=#f9f7ed;strokeColor=#36393d;" vertex="1" parent="1">
          <mxGeometry x="801" y="450" width="20" height="20" as="geometry" />
        </mxCell>
        <mxCell id="2kREBUdH7p19kiy_EeAZ-352" value="" style="rounded=0;whiteSpace=wrap;html=1;fillColor=#999999;strokeColor=default;fontColor=#333333;fontSize=10;align=center;verticalAlign=middle;fontFamily=Helvetica;" vertex="1" parent="1">
          <mxGeometry x="861" y="480" width="20" height="20" as="geometry" />
        </mxCell>
        <mxCell id="2kREBUdH7p19kiy_EeAZ-353" value="" style="rounded=0;whiteSpace=wrap;html=1;fillColor=#999999;strokeColor=default;fontColor=#333333;fontSize=10;align=center;verticalAlign=middle;fontFamily=Helvetica;" vertex="1" parent="1">
          <mxGeometry x="831" y="480" width="20" height="20" as="geometry" />
        </mxCell>
        <mxCell id="2kREBUdH7p19kiy_EeAZ-354" value="" style="rounded=0;whiteSpace=wrap;html=1;fillColor=#999999;strokeColor=default;fontColor=#333333;fontSize=10;align=center;verticalAlign=middle;fontFamily=Helvetica;" vertex="1" parent="1">
          <mxGeometry x="801" y="480" width="20" height="20" as="geometry" />
        </mxCell>
        <mxCell id="2kREBUdH7p19kiy_EeAZ-355" value="" style="rounded=0;whiteSpace=wrap;html=1;fontSize=10;fillColor=#f9f7ed;strokeColor=#36393d;" vertex="1" parent="1">
          <mxGeometry x="951" y="450" width="20" height="20" as="geometry" />
        </mxCell>
        <mxCell id="2kREBUdH7p19kiy_EeAZ-356" value="" style="rounded=0;whiteSpace=wrap;html=1;fontSize=10;fillColor=#f9f7ed;strokeColor=#36393d;" vertex="1" parent="1">
          <mxGeometry x="921" y="450" width="20" height="20" as="geometry" />
        </mxCell>
        <mxCell id="2kREBUdH7p19kiy_EeAZ-357" value="" style="rounded=0;whiteSpace=wrap;html=1;fontSize=10;fillColor=#f9f7ed;strokeColor=#36393d;" vertex="1" parent="1">
          <mxGeometry x="891" y="450" width="20" height="20" as="geometry" />
        </mxCell>
        <mxCell id="2kREBUdH7p19kiy_EeAZ-358" value="" style="rounded=0;whiteSpace=wrap;html=1;fillColor=#f9f7ed;strokeColor=#36393d;fontSize=10;align=center;verticalAlign=middle;fontFamily=Helvetica;" vertex="1" parent="1">
          <mxGeometry x="951" y="480" width="20" height="20" as="geometry" />
        </mxCell>
        <mxCell id="2kREBUdH7p19kiy_EeAZ-359" value="" style="rounded=0;whiteSpace=wrap;html=1;fillColor=#999999;strokeColor=default;fontColor=#333333;fontSize=10;align=center;verticalAlign=middle;fontFamily=Helvetica;" vertex="1" parent="1">
          <mxGeometry x="921" y="480" width="20" height="20" as="geometry" />
        </mxCell>
        <mxCell id="2kREBUdH7p19kiy_EeAZ-360" value="" style="rounded=0;whiteSpace=wrap;html=1;fillColor=#999999;strokeColor=default;fontColor=#333333;fontSize=10;align=center;verticalAlign=middle;fontFamily=Helvetica;" vertex="1" parent="1">
          <mxGeometry x="891" y="480" width="20" height="20" as="geometry" />
        </mxCell>
        <mxCell id="2kREBUdH7p19kiy_EeAZ-361" value="" style="rounded=0;whiteSpace=wrap;html=1;fontSize=10;fillColor=#f9f7ed;strokeColor=#36393d;" vertex="1" parent="1">
          <mxGeometry x="1011" y="450" width="20" height="20" as="geometry" />
        </mxCell>
        <mxCell id="2kREBUdH7p19kiy_EeAZ-362" value="" style="rounded=0;whiteSpace=wrap;html=1;fontSize=10;fillColor=#f9f7ed;strokeColor=#36393d;" vertex="1" parent="1">
          <mxGeometry x="981" y="450" width="20" height="20" as="geometry" />
        </mxCell>
        <mxCell id="2kREBUdH7p19kiy_EeAZ-363" value="" style="rounded=0;whiteSpace=wrap;html=1;fillColor=#f9f7ed;strokeColor=#36393d;fontSize=10;align=center;verticalAlign=middle;fontFamily=Helvetica;" vertex="1" parent="1">
          <mxGeometry x="1011" y="480" width="20" height="20" as="geometry" />
        </mxCell>
        <mxCell id="2kREBUdH7p19kiy_EeAZ-364" value="" style="rounded=0;whiteSpace=wrap;html=1;fillColor=#f9f7ed;strokeColor=#36393d;fontSize=10;align=center;verticalAlign=middle;fontFamily=Helvetica;" vertex="1" parent="1">
          <mxGeometry x="981" y="480" width="20" height="20" as="geometry" />
        </mxCell>
        <mxCell id="2kREBUdH7p19kiy_EeAZ-365" value="" style="rounded=0;whiteSpace=wrap;html=1;fillColor=#f8cecc;strokeColor=#b85450;fontSize=10;align=center;verticalAlign=middle;fontFamily=Helvetica;" vertex="1" parent="1">
          <mxGeometry x="981" y="250" width="20" height="20" as="geometry" />
        </mxCell>
        <mxCell id="2kREBUdH7p19kiy_EeAZ-366" value="bos" style="rounded=0;whiteSpace=wrap;html=1;fillColor=#99CCFF;strokeColor=default;fontColor=#333333;fontSize=10;align=center;verticalAlign=middle;fontFamily=Helvetica;" vertex="1" parent="1">
          <mxGeometry x="531" y="530" width="20" height="20" as="geometry" />
        </mxCell>
        <mxCell id="2kREBUdH7p19kiy_EeAZ-367" value="bos" style="rounded=0;whiteSpace=wrap;html=1;fillColor=#99FF99;strokeColor=default;fontColor=#333333;fontSize=10;align=center;verticalAlign=middle;fontFamily=Helvetica;" vertex="1" parent="1">
          <mxGeometry x="531" y="560" width="20" height="20" as="geometry" />
        </mxCell>
        <mxCell id="2kREBUdH7p19kiy_EeAZ-368" value="" style="rounded=0;whiteSpace=wrap;html=1;fillColor=#f5f5f5;strokeColor=default;fontColor=#333333;fontSize=10;" vertex="1" parent="1">
          <mxGeometry x="561" y="560" width="20" height="20" as="geometry" />
        </mxCell>
        <mxCell id="2kREBUdH7p19kiy_EeAZ-369" value="" style="rounded=0;whiteSpace=wrap;html=1;fillColor=#f5f5f5;strokeColor=default;fontSize=10;align=center;verticalAlign=middle;fontFamily=Helvetica;fontColor=#333333;" vertex="1" parent="1">
          <mxGeometry x="561" y="530" width="20" height="20" as="geometry" />
        </mxCell>
        <mxCell id="2kREBUdH7p19kiy_EeAZ-370" value="" style="rounded=0;whiteSpace=wrap;html=1;fillColor=#f5f5f5;strokeColor=default;fontSize=10;align=center;verticalAlign=middle;fontFamily=Helvetica;fontColor=#333333;" vertex="1" parent="1">
          <mxGeometry x="591" y="530" width="20" height="20" as="geometry" />
        </mxCell>
        <mxCell id="2kREBUdH7p19kiy_EeAZ-371" value="" style="rounded=0;whiteSpace=wrap;html=1;fillColor=#f5f5f5;strokeColor=default;fontColor=#333333;fontSize=10;" vertex="1" parent="1">
          <mxGeometry x="591" y="560" width="20" height="20" as="geometry" />
        </mxCell>
        <mxCell id="2kREBUdH7p19kiy_EeAZ-372" value="" style="rounded=0;whiteSpace=wrap;html=1;fillColor=#f5f5f5;strokeColor=default;fontColor=#333333;fontSize=10;" vertex="1" parent="1">
          <mxGeometry x="621" y="560" width="20" height="20" as="geometry" />
        </mxCell>
        <mxCell id="2kREBUdH7p19kiy_EeAZ-373" value="" style="rounded=0;whiteSpace=wrap;html=1;fillColor=#f5f5f5;strokeColor=default;fontSize=10;align=center;verticalAlign=middle;fontFamily=Helvetica;fontColor=#333333;" vertex="1" parent="1">
          <mxGeometry x="621" y="530" width="20" height="20" as="geometry" />
        </mxCell>
        <mxCell id="2kREBUdH7p19kiy_EeAZ-374" value="" style="rounded=0;whiteSpace=wrap;html=1;fillColor=#f5f5f5;strokeColor=default;fontSize=10;align=center;verticalAlign=middle;fontFamily=Helvetica;fontColor=#333333;" vertex="1" parent="1">
          <mxGeometry x="651" y="530" width="20" height="20" as="geometry" />
        </mxCell>
        <mxCell id="2kREBUdH7p19kiy_EeAZ-375" value="" style="rounded=0;whiteSpace=wrap;html=1;fillColor=#f5f5f5;strokeColor=default;fontColor=#333333;fontSize=10;" vertex="1" parent="1">
          <mxGeometry x="651" y="560" width="20" height="20" as="geometry" />
        </mxCell>
        <mxCell id="2kREBUdH7p19kiy_EeAZ-376" value="eos" style="rounded=0;whiteSpace=wrap;html=1;fillColor=#99FF99;strokeColor=default;fontColor=#333333;fontSize=10;align=center;verticalAlign=middle;fontFamily=Helvetica;" vertex="1" parent="1">
          <mxGeometry x="681" y="560" width="20" height="20" as="geometry" />
        </mxCell>
        <mxCell id="2kREBUdH7p19kiy_EeAZ-377" value="eos" style="rounded=0;whiteSpace=wrap;html=1;fillColor=#99CCFF;strokeColor=default;fontColor=#333333;fontSize=10;align=center;verticalAlign=middle;fontFamily=Helvetica;" vertex="1" parent="1">
          <mxGeometry x="681" y="530" width="20" height="20" as="geometry" />
        </mxCell>
        <mxCell id="2kREBUdH7p19kiy_EeAZ-378" value="ans" style="rounded=0;whiteSpace=wrap;html=1;fillColor=#99CCFF;strokeColor=default;fontColor=#333333;fontSize=10;align=center;verticalAlign=middle;fontFamily=Helvetica;" vertex="1" parent="1">
          <mxGeometry x="711" y="530" width="20" height="20" as="geometry" />
        </mxCell>
        <mxCell id="2kREBUdH7p19kiy_EeAZ-379" value="ans" style="rounded=0;whiteSpace=wrap;html=1;fillColor=#99FF99;strokeColor=default;fontColor=#333333;fontSize=10;" vertex="1" parent="1">
          <mxGeometry x="711" y="560" width="20" height="20" as="geometry" />
        </mxCell>
        <mxCell id="2kREBUdH7p19kiy_EeAZ-380" value="" style="rounded=0;whiteSpace=wrap;html=1;fillColor=#009900;strokeColor=default;fontColor=#333333;fontSize=10;strokeWidth=3;" vertex="1" parent="1">
          <mxGeometry x="741" y="560" width="20" height="20" as="geometry" />
        </mxCell>
        <mxCell id="2kREBUdH7p19kiy_EeAZ-381" value="" style="rounded=0;whiteSpace=wrap;html=1;fillColor=#f5f5f5;strokeColor=default;fontColor=#333333;fontSize=10;strokeWidth=3;" vertex="1" parent="1">
          <mxGeometry x="741" y="530" width="20" height="20" as="geometry" />
        </mxCell>
        <mxCell id="2kREBUdH7p19kiy_EeAZ-382" value="" style="rounded=0;whiteSpace=wrap;html=1;fillColor=#0066CC;strokeColor=default;fontColor=#333333;fontSize=10;strokeWidth=3;" vertex="1" parent="1">
          <mxGeometry x="771" y="530" width="20" height="20" as="geometry" />
        </mxCell>
        <mxCell id="2kREBUdH7p19kiy_EeAZ-383" value="" style="rounded=0;whiteSpace=wrap;html=1;fillColor=#009900;strokeColor=default;fontColor=#333333;fontSize=10;strokeWidth=3;" vertex="1" parent="1">
          <mxGeometry x="771" y="560" width="20" height="20" as="geometry" />
        </mxCell>
        <mxCell id="2kREBUdH7p19kiy_EeAZ-384" value="" style="rounded=0;whiteSpace=wrap;html=1;fillColor=#009900;strokeColor=default;fontColor=#333333;fontSize=10;strokeWidth=3;" vertex="1" parent="1">
          <mxGeometry x="801" y="560" width="20" height="20" as="geometry" />
        </mxCell>
        <mxCell id="2kREBUdH7p19kiy_EeAZ-385" value="" style="rounded=0;whiteSpace=wrap;html=1;fillColor=#0066CC;strokeColor=default;fontColor=#333333;fontSize=10;strokeWidth=3;" vertex="1" parent="1">
          <mxGeometry x="801" y="530" width="20" height="20" as="geometry" />
        </mxCell>
        <mxCell id="2kREBUdH7p19kiy_EeAZ-386" value="" style="rounded=0;whiteSpace=wrap;html=1;fillColor=#0066CC;strokeColor=default;fontColor=#333333;fontSize=10;strokeWidth=3;" vertex="1" parent="1">
          <mxGeometry x="831" y="530" width="20" height="20" as="geometry" />
        </mxCell>
        <mxCell id="2kREBUdH7p19kiy_EeAZ-387" value="" style="rounded=0;whiteSpace=wrap;html=1;fillColor=#f5f5f5;strokeColor=default;fontColor=#333333;fontSize=10;align=center;verticalAlign=middle;fontFamily=Helvetica;" vertex="1" parent="1">
          <mxGeometry x="861" y="560" width="20" height="20" as="geometry" />
        </mxCell>
        <mxCell id="2kREBUdH7p19kiy_EeAZ-388" value="" style="rounded=0;whiteSpace=wrap;html=1;fillColor=#0066CC;strokeColor=default;fontColor=#333333;fontSize=10;strokeWidth=3;" vertex="1" parent="1">
          <mxGeometry x="861" y="530" width="20" height="20" as="geometry" />
        </mxCell>
        <mxCell id="2kREBUdH7p19kiy_EeAZ-389" value="" style="rounded=0;whiteSpace=wrap;html=1;fillColor=#0066CC;strokeColor=default;fontColor=#333333;fontSize=10;strokeWidth=3;" vertex="1" parent="1">
          <mxGeometry x="891" y="530" width="20" height="20" as="geometry" />
        </mxCell>
        <mxCell id="2kREBUdH7p19kiy_EeAZ-390" value="" style="rounded=0;whiteSpace=wrap;html=1;fillColor=#f5f5f5;strokeColor=default;fontColor=#333333;fontSize=10;align=center;verticalAlign=middle;fontFamily=Helvetica;" vertex="1" parent="1">
          <mxGeometry x="891" y="560" width="20" height="20" as="geometry" />
        </mxCell>
        <mxCell id="2kREBUdH7p19kiy_EeAZ-391" value="" style="rounded=0;whiteSpace=wrap;html=1;fillColor=#f5f5f5;strokeColor=default;fontColor=#333333;fontSize=10;align=center;verticalAlign=middle;fontFamily=Helvetica;" vertex="1" parent="1">
          <mxGeometry x="921" y="560" width="20" height="20" as="geometry" />
        </mxCell>
        <mxCell id="2kREBUdH7p19kiy_EeAZ-392" value="eos" style="rounded=0;whiteSpace=wrap;html=1;fillColor=#99CCFF;strokeColor=default;fontColor=#333333;fontSize=10;align=center;verticalAlign=middle;fontFamily=Helvetica;strokeWidth=3;" vertex="1" parent="1">
          <mxGeometry x="1011" y="530" width="20" height="20" as="geometry" />
        </mxCell>
        <mxCell id="2kREBUdH7p19kiy_EeAZ-393" value="eos" style="rounded=0;whiteSpace=wrap;html=1;fillColor=#99FF99;strokeColor=default;fontColor=#333333;fontSize=10;strokeWidth=3;" vertex="1" parent="1">
          <mxGeometry x="831" y="560" width="20" height="20" as="geometry" />
        </mxCell>
        <mxCell id="2kREBUdH7p19kiy_EeAZ-394" value="eos" style="rounded=0;whiteSpace=wrap;html=1;fillColor=#99FF99;strokeColor=default;fontColor=#333333;fontSize=10;align=center;verticalAlign=middle;fontFamily=Helvetica;" vertex="1" parent="1">
          <mxGeometry x="501" y="560" width="20" height="20" as="geometry" />
        </mxCell>
        <mxCell id="2kREBUdH7p19kiy_EeAZ-395" value="" style="rounded=0;whiteSpace=wrap;html=1;fillColor=#009900;strokeColor=default;fontColor=#333333;fontSize=10;" vertex="1" parent="1">
          <mxGeometry x="441" y="560" width="20" height="20" as="geometry" />
        </mxCell>
        <mxCell id="2kREBUdH7p19kiy_EeAZ-396" value="bos" style="rounded=0;whiteSpace=wrap;html=1;fillColor=#99FF99;strokeColor=default;fontColor=#333333;fontSize=10;align=center;verticalAlign=middle;fontFamily=Helvetica;" vertex="1" parent="1">
          <mxGeometry x="411" y="560" width="20" height="20" as="geometry" />
        </mxCell>
        <mxCell id="2kREBUdH7p19kiy_EeAZ-397" value="" style="rounded=0;whiteSpace=wrap;html=1;fillColor=#f5f5f5;strokeColor=default;fontColor=#333333;fontSize=10;align=center;verticalAlign=middle;fontFamily=Helvetica;" vertex="1" parent="1">
          <mxGeometry x="411" y="530" width="20" height="20" as="geometry" />
        </mxCell>
        <mxCell id="2kREBUdH7p19kiy_EeAZ-398" value="" style="rounded=0;whiteSpace=wrap;html=1;fillColor=#f5f5f5;strokeColor=default;fontColor=#333333;fontSize=10;align=center;verticalAlign=middle;fontFamily=Helvetica;" vertex="1" parent="1">
          <mxGeometry x="441" y="530" width="20" height="20" as="geometry" />
        </mxCell>
        <mxCell id="2kREBUdH7p19kiy_EeAZ-399" value="" style="rounded=0;whiteSpace=wrap;html=1;fillColor=#f5f5f5;strokeColor=default;fontColor=#333333;fontSize=10;align=center;verticalAlign=middle;fontFamily=Helvetica;" vertex="1" parent="1">
          <mxGeometry x="501" y="530" width="20" height="20" as="geometry" />
        </mxCell>
        <mxCell id="2kREBUdH7p19kiy_EeAZ-408" value="" style="rounded=0;whiteSpace=wrap;html=1;fillColor=#009900;strokeColor=default;fontColor=#333333;fontSize=10;" vertex="1" parent="1">
          <mxGeometry x="471" y="560" width="20" height="20" as="geometry" />
        </mxCell>
        <mxCell id="2kREBUdH7p19kiy_EeAZ-409" value="" style="rounded=0;whiteSpace=wrap;html=1;fillColor=#f5f5f5;strokeColor=default;fontColor=#333333;fontSize=10;align=center;verticalAlign=middle;fontFamily=Helvetica;" vertex="1" parent="1">
          <mxGeometry x="471" y="530" width="20" height="20" as="geometry" />
        </mxCell>
        <mxCell id="2kREBUdH7p19kiy_EeAZ-412" value="" style="rounded=0;whiteSpace=wrap;html=1;fillColor=#f8cecc;strokeColor=#b85450;fontSize=10;" vertex="1" parent="1">
          <mxGeometry x="261" y="530" width="20" height="20" as="geometry" />
        </mxCell>
        <mxCell id="2kREBUdH7p19kiy_EeAZ-413" value="" style="rounded=0;whiteSpace=wrap;html=1;fillColor=#f8cecc;strokeColor=#b85450;fontSize=10;" vertex="1" parent="1">
          <mxGeometry x="291" y="530" width="20" height="20" as="geometry" />
        </mxCell>
        <mxCell id="2kREBUdH7p19kiy_EeAZ-414" value="" style="rounded=0;whiteSpace=wrap;html=1;fillColor=#f8cecc;strokeColor=#b85450;fontSize=10;" vertex="1" parent="1">
          <mxGeometry x="321" y="530" width="20" height="20" as="geometry" />
        </mxCell>
        <mxCell id="2kREBUdH7p19kiy_EeAZ-415" value="" style="rounded=0;whiteSpace=wrap;html=1;fillColor=#f8cecc;strokeColor=#b85450;fontSize=10;" vertex="1" parent="1">
          <mxGeometry x="321" y="560" width="20" height="20" as="geometry" />
        </mxCell>
        <mxCell id="2kREBUdH7p19kiy_EeAZ-416" value="" style="rounded=0;whiteSpace=wrap;html=1;fillColor=#f8cecc;strokeColor=#b85450;fontSize=10;" vertex="1" parent="1">
          <mxGeometry x="291" y="560" width="20" height="20" as="geometry" />
        </mxCell>
        <mxCell id="2kREBUdH7p19kiy_EeAZ-417" value="" style="rounded=0;whiteSpace=wrap;html=1;fillColor=#f8cecc;strokeColor=#b85450;fontSize=10;" vertex="1" parent="1">
          <mxGeometry x="261" y="560" width="20" height="20" as="geometry" />
        </mxCell>
        <mxCell id="2kREBUdH7p19kiy_EeAZ-420" value="" style="rounded=0;whiteSpace=wrap;html=1;fontSize=10;fillColor=#f9f7ed;strokeColor=#36393d;" vertex="1" parent="1">
          <mxGeometry x="321" y="590" width="20" height="20" as="geometry" />
        </mxCell>
        <mxCell id="2kREBUdH7p19kiy_EeAZ-421" value="" style="rounded=0;whiteSpace=wrap;html=1;fontSize=10;fillColor=#f9f7ed;strokeColor=#36393d;" vertex="1" parent="1">
          <mxGeometry x="291" y="590" width="20" height="20" as="geometry" />
        </mxCell>
        <mxCell id="2kREBUdH7p19kiy_EeAZ-422" value="" style="rounded=0;whiteSpace=wrap;html=1;fontSize=10;fillColor=#f9f7ed;strokeColor=#36393d;" vertex="1" parent="1">
          <mxGeometry x="261" y="590" width="20" height="20" as="geometry" />
        </mxCell>
        <mxCell id="2kREBUdH7p19kiy_EeAZ-424" value="" style="rounded=0;whiteSpace=wrap;html=1;fontSize=10;fillColor=#f9f7ed;strokeColor=#36393d;" vertex="1" parent="1">
          <mxGeometry x="321" y="620" width="20" height="20" as="geometry" />
        </mxCell>
        <mxCell id="2kREBUdH7p19kiy_EeAZ-425" value="" style="rounded=0;whiteSpace=wrap;html=1;fontSize=10;fillColor=#f9f7ed;strokeColor=#36393d;" vertex="1" parent="1">
          <mxGeometry x="291" y="620" width="20" height="20" as="geometry" />
        </mxCell>
        <mxCell id="2kREBUdH7p19kiy_EeAZ-426" value="" style="rounded=0;whiteSpace=wrap;html=1;fontSize=10;fillColor=#f9f7ed;strokeColor=#36393d;" vertex="1" parent="1">
          <mxGeometry x="261" y="620" width="20" height="20" as="geometry" />
        </mxCell>
        <mxCell id="2kREBUdH7p19kiy_EeAZ-427" value="" style="rounded=0;whiteSpace=wrap;html=1;fontSize=10;fillColor=#f9f7ed;strokeColor=#36393d;" vertex="1" parent="1">
          <mxGeometry x="411" y="590" width="20" height="20" as="geometry" />
        </mxCell>
        <mxCell id="2kREBUdH7p19kiy_EeAZ-428" value="" style="rounded=0;whiteSpace=wrap;html=1;fontSize=10;fillColor=#f9f7ed;strokeColor=#36393d;" vertex="1" parent="1">
          <mxGeometry x="381" y="590" width="20" height="20" as="geometry" />
        </mxCell>
        <mxCell id="2kREBUdH7p19kiy_EeAZ-429" value="" style="rounded=0;whiteSpace=wrap;html=1;fontSize=10;fillColor=#f9f7ed;strokeColor=#36393d;" vertex="1" parent="1">
          <mxGeometry x="351" y="590" width="20" height="20" as="geometry" />
        </mxCell>
        <mxCell id="2kREBUdH7p19kiy_EeAZ-430" value="" style="rounded=0;whiteSpace=wrap;html=1;fillColor=#999999;strokeColor=default;fontColor=#333333;fontSize=10;align=center;verticalAlign=middle;fontFamily=Helvetica;" vertex="1" parent="1">
          <mxGeometry x="411" y="620" width="20" height="20" as="geometry" />
        </mxCell>
        <mxCell id="2kREBUdH7p19kiy_EeAZ-431" value="" style="rounded=0;whiteSpace=wrap;html=1;fontSize=10;align=center;verticalAlign=middle;fontFamily=Helvetica;fillColor=#f9f7ed;strokeColor=#36393d;" vertex="1" parent="1">
          <mxGeometry x="381" y="620" width="20" height="20" as="geometry" />
        </mxCell>
        <mxCell id="2kREBUdH7p19kiy_EeAZ-432" value="" style="rounded=0;whiteSpace=wrap;html=1;fontSize=10;align=center;verticalAlign=middle;fontFamily=Helvetica;fillColor=#f9f7ed;strokeColor=#36393d;" vertex="1" parent="1">
          <mxGeometry x="351" y="620" width="20" height="20" as="geometry" />
        </mxCell>
        <mxCell id="2kREBUdH7p19kiy_EeAZ-433" value="" style="rounded=0;whiteSpace=wrap;html=1;fontSize=10;align=center;verticalAlign=middle;fontFamily=Helvetica;fillColor=#f9f7ed;strokeColor=#36393d;" vertex="1" parent="1">
          <mxGeometry x="501" y="590" width="20" height="20" as="geometry" />
        </mxCell>
        <mxCell id="2kREBUdH7p19kiy_EeAZ-434" value="" style="rounded=0;whiteSpace=wrap;html=1;fontSize=10;fillColor=#f9f7ed;strokeColor=#36393d;" vertex="1" parent="1">
          <mxGeometry x="471" y="590" width="20" height="20" as="geometry" />
        </mxCell>
        <mxCell id="2kREBUdH7p19kiy_EeAZ-435" value="" style="rounded=0;whiteSpace=wrap;html=1;fontSize=10;fillColor=#f9f7ed;strokeColor=#36393d;" vertex="1" parent="1">
          <mxGeometry x="441" y="590" width="20" height="20" as="geometry" />
        </mxCell>
        <mxCell id="2kREBUdH7p19kiy_EeAZ-436" value="" style="rounded=0;whiteSpace=wrap;html=1;fillColor=#999999;strokeColor=default;fontColor=#333333;fontSize=10;align=center;verticalAlign=middle;fontFamily=Helvetica;" vertex="1" parent="1">
          <mxGeometry x="501" y="620" width="20" height="20" as="geometry" />
        </mxCell>
        <mxCell id="2kREBUdH7p19kiy_EeAZ-437" value="" style="rounded=0;whiteSpace=wrap;html=1;fillColor=#999999;strokeColor=default;fontColor=#333333;fontSize=10;align=center;verticalAlign=middle;fontFamily=Helvetica;" vertex="1" parent="1">
          <mxGeometry x="471" y="620" width="20" height="20" as="geometry" />
        </mxCell>
        <mxCell id="2kREBUdH7p19kiy_EeAZ-438" value="" style="rounded=0;whiteSpace=wrap;html=1;fillColor=#999999;strokeColor=default;fontColor=#333333;fontSize=10;align=center;verticalAlign=middle;fontFamily=Helvetica;" vertex="1" parent="1">
          <mxGeometry x="441" y="620" width="20" height="20" as="geometry" />
        </mxCell>
        <mxCell id="2kREBUdH7p19kiy_EeAZ-439" value="" style="rounded=0;whiteSpace=wrap;html=1;fontSize=10;fillColor=#999999;fontColor=#333333;strokeColor=default;align=center;verticalAlign=middle;fontFamily=Helvetica;" vertex="1" parent="1">
          <mxGeometry x="591" y="590" width="20" height="20" as="geometry" />
        </mxCell>
        <mxCell id="2kREBUdH7p19kiy_EeAZ-440" value="" style="rounded=0;whiteSpace=wrap;html=1;fontSize=10;fillColor=#999999;fontColor=#333333;strokeColor=default;align=center;verticalAlign=middle;fontFamily=Helvetica;" vertex="1" parent="1">
          <mxGeometry x="561" y="590" width="20" height="20" as="geometry" />
        </mxCell>
        <mxCell id="2kREBUdH7p19kiy_EeAZ-441" value="" style="rounded=0;whiteSpace=wrap;html=1;fontSize=10;align=center;verticalAlign=middle;fontFamily=Helvetica;fillColor=#f9f7ed;strokeColor=#36393d;" vertex="1" parent="1">
          <mxGeometry x="531" y="590" width="20" height="20" as="geometry" />
        </mxCell>
        <mxCell id="2kREBUdH7p19kiy_EeAZ-442" value="" style="rounded=0;whiteSpace=wrap;html=1;fillColor=#999999;strokeColor=default;fontColor=#333333;fontSize=10;align=center;verticalAlign=middle;fontFamily=Helvetica;" vertex="1" parent="1">
          <mxGeometry x="591" y="620" width="20" height="20" as="geometry" />
        </mxCell>
        <mxCell id="2kREBUdH7p19kiy_EeAZ-443" value="" style="rounded=0;whiteSpace=wrap;html=1;fillColor=#999999;strokeColor=default;fontColor=#333333;fontSize=10;align=center;verticalAlign=middle;fontFamily=Helvetica;" vertex="1" parent="1">
          <mxGeometry x="561" y="620" width="20" height="20" as="geometry" />
        </mxCell>
        <mxCell id="2kREBUdH7p19kiy_EeAZ-444" value="" style="rounded=0;whiteSpace=wrap;html=1;fillColor=#999999;strokeColor=default;fontColor=#333333;fontSize=10;align=center;verticalAlign=middle;fontFamily=Helvetica;" vertex="1" parent="1">
          <mxGeometry x="531" y="620" width="20" height="20" as="geometry" />
        </mxCell>
        <mxCell id="2kREBUdH7p19kiy_EeAZ-445" value="" style="rounded=0;whiteSpace=wrap;html=1;fontSize=10;fillColor=#f9f7ed;strokeColor=#36393d;" vertex="1" parent="1">
          <mxGeometry x="681" y="590" width="20" height="20" as="geometry" />
        </mxCell>
        <mxCell id="2kREBUdH7p19kiy_EeAZ-446" value="" style="rounded=0;whiteSpace=wrap;html=1;fontSize=10;fillColor=#999999;fontColor=#333333;strokeColor=default;align=center;verticalAlign=middle;fontFamily=Helvetica;" vertex="1" parent="1">
          <mxGeometry x="651" y="590" width="20" height="20" as="geometry" />
        </mxCell>
        <mxCell id="2kREBUdH7p19kiy_EeAZ-447" value="" style="rounded=0;whiteSpace=wrap;html=1;fontSize=10;fillColor=#999999;fontColor=#333333;strokeColor=default;align=center;verticalAlign=middle;fontFamily=Helvetica;" vertex="1" parent="1">
          <mxGeometry x="621" y="590" width="20" height="20" as="geometry" />
        </mxCell>
        <mxCell id="2kREBUdH7p19kiy_EeAZ-448" value="" style="rounded=0;whiteSpace=wrap;html=1;fillColor=#999999;strokeColor=default;fontColor=#333333;fontSize=10;align=center;verticalAlign=middle;fontFamily=Helvetica;" vertex="1" parent="1">
          <mxGeometry x="681" y="620" width="20" height="20" as="geometry" />
        </mxCell>
        <mxCell id="2kREBUdH7p19kiy_EeAZ-449" value="" style="rounded=0;whiteSpace=wrap;html=1;fillColor=#999999;strokeColor=default;fontColor=#333333;fontSize=10;align=center;verticalAlign=middle;fontFamily=Helvetica;" vertex="1" parent="1">
          <mxGeometry x="651" y="620" width="20" height="20" as="geometry" />
        </mxCell>
        <mxCell id="2kREBUdH7p19kiy_EeAZ-450" value="" style="rounded=0;whiteSpace=wrap;html=1;fillColor=#999999;strokeColor=default;fontColor=#333333;fontSize=10;align=center;verticalAlign=middle;fontFamily=Helvetica;" vertex="1" parent="1">
          <mxGeometry x="621" y="620" width="20" height="20" as="geometry" />
        </mxCell>
        <mxCell id="2kREBUdH7p19kiy_EeAZ-451" value="" style="rounded=0;whiteSpace=wrap;html=1;fontSize=10;fillColor=#f9f7ed;strokeColor=#36393d;" vertex="1" parent="1">
          <mxGeometry x="771" y="590" width="20" height="20" as="geometry" />
        </mxCell>
        <mxCell id="2kREBUdH7p19kiy_EeAZ-452" value="" style="rounded=0;whiteSpace=wrap;html=1;fontSize=10;fillColor=#f9f7ed;strokeColor=#36393d;" vertex="1" parent="1">
          <mxGeometry x="741" y="590" width="20" height="20" as="geometry" />
        </mxCell>
        <mxCell id="2kREBUdH7p19kiy_EeAZ-453" value="" style="rounded=0;whiteSpace=wrap;html=1;fontSize=10;fillColor=#f9f7ed;strokeColor=#36393d;" vertex="1" parent="1">
          <mxGeometry x="711" y="590" width="20" height="20" as="geometry" />
        </mxCell>
        <mxCell id="2kREBUdH7p19kiy_EeAZ-454" value="" style="rounded=0;whiteSpace=wrap;html=1;fillColor=#999999;strokeColor=default;fontColor=#333333;fontSize=10;align=center;verticalAlign=middle;fontFamily=Helvetica;" vertex="1" parent="1">
          <mxGeometry x="771" y="620" width="20" height="20" as="geometry" />
        </mxCell>
        <mxCell id="2kREBUdH7p19kiy_EeAZ-455" value="" style="rounded=0;whiteSpace=wrap;html=1;fillColor=#999999;strokeColor=default;fontColor=#333333;fontSize=10;align=center;verticalAlign=middle;fontFamily=Helvetica;" vertex="1" parent="1">
          <mxGeometry x="741" y="620" width="20" height="20" as="geometry" />
        </mxCell>
        <mxCell id="2kREBUdH7p19kiy_EeAZ-456" value="" style="rounded=0;whiteSpace=wrap;html=1;fillColor=#999999;strokeColor=default;fontColor=#333333;fontSize=10;align=center;verticalAlign=middle;fontFamily=Helvetica;" vertex="1" parent="1">
          <mxGeometry x="711" y="620" width="20" height="20" as="geometry" />
        </mxCell>
        <mxCell id="2kREBUdH7p19kiy_EeAZ-457" value="" style="rounded=0;whiteSpace=wrap;html=1;fontSize=10;fillColor=#f9f7ed;strokeColor=#36393d;" vertex="1" parent="1">
          <mxGeometry x="861" y="590" width="20" height="20" as="geometry" />
        </mxCell>
        <mxCell id="2kREBUdH7p19kiy_EeAZ-458" value="" style="rounded=0;whiteSpace=wrap;html=1;fontSize=10;fillColor=#f9f7ed;strokeColor=#36393d;" vertex="1" parent="1">
          <mxGeometry x="831" y="590" width="20" height="20" as="geometry" />
        </mxCell>
        <mxCell id="2kREBUdH7p19kiy_EeAZ-459" value="" style="rounded=0;whiteSpace=wrap;html=1;fontSize=10;fillColor=#f9f7ed;strokeColor=#36393d;" vertex="1" parent="1">
          <mxGeometry x="801" y="590" width="20" height="20" as="geometry" />
        </mxCell>
        <mxCell id="2kREBUdH7p19kiy_EeAZ-460" value="" style="rounded=0;whiteSpace=wrap;html=1;fillColor=#999999;strokeColor=default;fontColor=#333333;fontSize=10;align=center;verticalAlign=middle;fontFamily=Helvetica;" vertex="1" parent="1">
          <mxGeometry x="861" y="620" width="20" height="20" as="geometry" />
        </mxCell>
        <mxCell id="2kREBUdH7p19kiy_EeAZ-461" value="" style="rounded=0;whiteSpace=wrap;html=1;fillColor=#999999;strokeColor=default;fontColor=#333333;fontSize=10;align=center;verticalAlign=middle;fontFamily=Helvetica;" vertex="1" parent="1">
          <mxGeometry x="831" y="620" width="20" height="20" as="geometry" />
        </mxCell>
        <mxCell id="2kREBUdH7p19kiy_EeAZ-462" value="" style="rounded=0;whiteSpace=wrap;html=1;fillColor=#999999;strokeColor=default;fontColor=#333333;fontSize=10;align=center;verticalAlign=middle;fontFamily=Helvetica;" vertex="1" parent="1">
          <mxGeometry x="801" y="620" width="20" height="20" as="geometry" />
        </mxCell>
        <mxCell id="2kREBUdH7p19kiy_EeAZ-463" value="" style="rounded=0;whiteSpace=wrap;html=1;fontSize=10;fillColor=#f9f7ed;strokeColor=#36393d;" vertex="1" parent="1">
          <mxGeometry x="951" y="590" width="20" height="20" as="geometry" />
        </mxCell>
        <mxCell id="2kREBUdH7p19kiy_EeAZ-464" value="" style="rounded=0;whiteSpace=wrap;html=1;fontSize=10;fillColor=#f9f7ed;strokeColor=#36393d;" vertex="1" parent="1">
          <mxGeometry x="921" y="590" width="20" height="20" as="geometry" />
        </mxCell>
        <mxCell id="2kREBUdH7p19kiy_EeAZ-465" value="" style="rounded=0;whiteSpace=wrap;html=1;fontSize=10;fillColor=#f9f7ed;strokeColor=#36393d;" vertex="1" parent="1">
          <mxGeometry x="891" y="590" width="20" height="20" as="geometry" />
        </mxCell>
        <mxCell id="2kREBUdH7p19kiy_EeAZ-466" value="" style="rounded=0;whiteSpace=wrap;html=1;fontSize=10;align=center;verticalAlign=middle;fontFamily=Helvetica;fillColor=#999999;strokeColor=default;fontColor=#333333;" vertex="1" parent="1">
          <mxGeometry x="951" y="620" width="20" height="20" as="geometry" />
        </mxCell>
        <mxCell id="2kREBUdH7p19kiy_EeAZ-467" value="" style="rounded=0;whiteSpace=wrap;html=1;fillColor=#999999;strokeColor=default;fontColor=#333333;fontSize=10;align=center;verticalAlign=middle;fontFamily=Helvetica;" vertex="1" parent="1">
          <mxGeometry x="921" y="620" width="20" height="20" as="geometry" />
        </mxCell>
        <mxCell id="2kREBUdH7p19kiy_EeAZ-468" value="" style="rounded=0;whiteSpace=wrap;html=1;fillColor=#999999;strokeColor=default;fontColor=#333333;fontSize=10;align=center;verticalAlign=middle;fontFamily=Helvetica;" vertex="1" parent="1">
          <mxGeometry x="891" y="620" width="20" height="20" as="geometry" />
        </mxCell>
        <mxCell id="2kREBUdH7p19kiy_EeAZ-469" value="" style="rounded=0;whiteSpace=wrap;html=1;fontSize=10;fillColor=#f9f7ed;strokeColor=#36393d;" vertex="1" parent="1">
          <mxGeometry x="1011" y="590" width="20" height="20" as="geometry" />
        </mxCell>
        <mxCell id="2kREBUdH7p19kiy_EeAZ-470" value="" style="rounded=0;whiteSpace=wrap;html=1;fontSize=10;fillColor=#f9f7ed;strokeColor=#36393d;" vertex="1" parent="1">
          <mxGeometry x="981" y="590" width="20" height="20" as="geometry" />
        </mxCell>
        <mxCell id="2kREBUdH7p19kiy_EeAZ-471" value="" style="rounded=0;whiteSpace=wrap;html=1;fontSize=10;fillColor=#999999;strokeColor=default;align=center;verticalAlign=middle;fontFamily=Helvetica;fontColor=#333333;" vertex="1" parent="1">
          <mxGeometry x="1011" y="620" width="20" height="20" as="geometry" />
        </mxCell>
        <mxCell id="2kREBUdH7p19kiy_EeAZ-472" value="" style="rounded=0;whiteSpace=wrap;html=1;fontSize=10;align=center;verticalAlign=middle;fontFamily=Helvetica;fillColor=#999999;strokeColor=default;fontColor=#333333;" vertex="1" parent="1">
          <mxGeometry x="981" y="620" width="20" height="20" as="geometry" />
        </mxCell>
        <mxCell id="2kREBUdH7p19kiy_EeAZ-473" value="" style="rounded=0;whiteSpace=wrap;html=1;fillColor=#f8cecc;strokeColor=#b85450;fontSize=10;" vertex="1" parent="1">
          <mxGeometry x="351" y="530" width="20" height="20" as="geometry" />
        </mxCell>
        <mxCell id="2kREBUdH7p19kiy_EeAZ-474" value="" style="rounded=0;whiteSpace=wrap;html=1;fillColor=#f8cecc;strokeColor=#b85450;fontSize=10;" vertex="1" parent="1">
          <mxGeometry x="381" y="530" width="20" height="20" as="geometry" />
        </mxCell>
        <mxCell id="2kREBUdH7p19kiy_EeAZ-475" value="" style="rounded=0;whiteSpace=wrap;html=1;fillColor=#f8cecc;strokeColor=#b85450;fontSize=10;" vertex="1" parent="1">
          <mxGeometry x="381" y="560" width="20" height="20" as="geometry" />
        </mxCell>
        <mxCell id="2kREBUdH7p19kiy_EeAZ-476" value="" style="rounded=0;whiteSpace=wrap;html=1;fillColor=#f8cecc;strokeColor=#b85450;fontSize=10;" vertex="1" parent="1">
          <mxGeometry x="351" y="560" width="20" height="20" as="geometry" />
        </mxCell>
        <mxCell id="2kREBUdH7p19kiy_EeAZ-477" value="" style="rounded=0;whiteSpace=wrap;html=1;fillColor=#f5f5f5;strokeColor=default;fontColor=#333333;fontSize=10;align=center;verticalAlign=middle;fontFamily=Helvetica;" vertex="1" parent="1">
          <mxGeometry x="831" y="420" width="20" height="20" as="geometry" />
        </mxCell>
        <mxCell id="2kREBUdH7p19kiy_EeAZ-478" value="" style="rounded=0;whiteSpace=wrap;html=1;fillColor=#f8cecc;strokeColor=#b85450;fontSize=10;align=center;verticalAlign=middle;fontFamily=Helvetica;" vertex="1" parent="1">
          <mxGeometry x="981" y="420" width="20" height="20" as="geometry" />
        </mxCell>
        <mxCell id="2kREBUdH7p19kiy_EeAZ-479" value="" style="rounded=0;whiteSpace=wrap;html=1;fillColor=#f8cecc;strokeColor=#b85450;fontSize=10;" vertex="1" parent="1">
          <mxGeometry x="1011" y="390" width="20" height="20" as="geometry" />
        </mxCell>
        <mxCell id="2kREBUdH7p19kiy_EeAZ-480" value="" style="rounded=0;whiteSpace=wrap;html=1;fillColor=#f8cecc;strokeColor=#b85450;fontSize=10;" vertex="1" parent="1">
          <mxGeometry x="1011" y="420" width="20" height="20" as="geometry" />
        </mxCell>
        <mxCell id="2kREBUdH7p19kiy_EeAZ-481" value="" style="rounded=0;whiteSpace=wrap;html=1;fillColor=#f8cecc;strokeColor=#b85450;fontSize=10;align=center;verticalAlign=middle;fontFamily=Helvetica;" vertex="1" parent="1">
          <mxGeometry x="981" y="390" width="20" height="20" as="geometry" />
        </mxCell>
        <mxCell id="2kREBUdH7p19kiy_EeAZ-482" value="" style="rounded=0;whiteSpace=wrap;html=1;fillColor=#f8cecc;strokeColor=#b85450;fontSize=10;align=center;verticalAlign=middle;fontFamily=Helvetica;" vertex="1" parent="1">
          <mxGeometry x="951" y="390" width="20" height="20" as="geometry" />
        </mxCell>
        <mxCell id="2kREBUdH7p19kiy_EeAZ-483" value="" style="rounded=0;whiteSpace=wrap;html=1;fillColor=#f8cecc;strokeColor=#b85450;fontSize=10;align=center;verticalAlign=middle;fontFamily=Helvetica;" vertex="1" parent="1">
          <mxGeometry x="951" y="420" width="20" height="20" as="geometry" />
        </mxCell>
        <mxCell id="2kREBUdH7p19kiy_EeAZ-484" value="" style="rounded=0;whiteSpace=wrap;html=1;fillColor=#0066CC;strokeColor=default;fontColor=#333333;fontSize=10;strokeWidth=3;" vertex="1" parent="1">
          <mxGeometry x="921" y="530" width="20" height="20" as="geometry" />
        </mxCell>
        <mxCell id="2kREBUdH7p19kiy_EeAZ-485" value="" style="rounded=0;whiteSpace=wrap;html=1;fillColor=#0066CC;strokeColor=default;fontColor=#333333;fontSize=10;strokeWidth=3;" vertex="1" parent="1">
          <mxGeometry x="951" y="530" width="20" height="20" as="geometry" />
        </mxCell>
        <mxCell id="2kREBUdH7p19kiy_EeAZ-486" value="" style="rounded=0;whiteSpace=wrap;html=1;fillColor=#0066CC;strokeColor=default;fontColor=#333333;fontSize=10;strokeWidth=3;" vertex="1" parent="1">
          <mxGeometry x="981" y="530" width="20" height="20" as="geometry" />
        </mxCell>
        <mxCell id="2kREBUdH7p19kiy_EeAZ-487" value="" style="rounded=0;whiteSpace=wrap;html=1;fillColor=#f5f5f5;strokeColor=default;fontColor=#333333;fontSize=10;align=center;verticalAlign=middle;fontFamily=Helvetica;" vertex="1" parent="1">
          <mxGeometry x="951" y="560" width="20" height="20" as="geometry" />
        </mxCell>
        <mxCell id="2kREBUdH7p19kiy_EeAZ-488" value="" style="rounded=0;whiteSpace=wrap;html=1;fillColor=#f5f5f5;strokeColor=default;fontColor=#333333;fontSize=10;align=center;verticalAlign=middle;fontFamily=Helvetica;" vertex="1" parent="1">
          <mxGeometry x="981" y="560" width="20" height="20" as="geometry" />
        </mxCell>
        <mxCell id="2kREBUdH7p19kiy_EeAZ-489" value="" style="rounded=0;whiteSpace=wrap;html=1;fillColor=#f5f5f5;strokeColor=default;fontColor=#333333;fontSize=10;align=center;verticalAlign=middle;fontFamily=Helvetica;" vertex="1" parent="1">
          <mxGeometry x="1011" y="560" width="20" height="20" as="geometry" />
        </mxCell>
        <mxCell id="2kREBUdH7p19kiy_EeAZ-490" value="&lt;b&gt;&lt;font&gt;__collator__&lt;/font&gt;&lt;/b&gt;" style="text;html=1;align=center;verticalAlign=middle;whiteSpace=wrap;rounded=0;fontSize=15;" vertex="1" parent="1">
          <mxGeometry x="40" y="490" width="60" height="30" as="geometry" />
        </mxCell>
        <mxCell id="2kREBUdH7p19kiy_EeAZ-491" value="&lt;font style=&quot;font-size: 16px;&quot;&gt;&lt;span&gt;modality_mask&lt;/span&gt;&lt;/font&gt;" style="text;html=1;align=center;verticalAlign=middle;whiteSpace=wrap;rounded=0;fontStyle=0" vertex="1" parent="1">
          <mxGeometry x="142.03" y="305" width="116.06" height="30" as="geometry" />
        </mxCell>
        <mxCell id="2kREBUdH7p19kiy_EeAZ-492" value="&lt;font style=&quot;font-size: 16px;&quot;&gt;&lt;span&gt;modality_mask&lt;/span&gt;&lt;/font&gt;" style="text;html=1;align=center;verticalAlign=middle;whiteSpace=wrap;rounded=0;fontStyle=0" vertex="1" parent="1">
          <mxGeometry x="138.09" y="445" width="116.06" height="30" as="geometry" />
        </mxCell>
        <mxCell id="2kREBUdH7p19kiy_EeAZ-493" value="&lt;font style=&quot;font-size: 16px;&quot;&gt;&lt;span&gt;modality_mask&lt;/span&gt;&lt;/font&gt;" style="text;html=1;align=center;verticalAlign=middle;whiteSpace=wrap;rounded=0;fontStyle=0" vertex="1" parent="1">
          <mxGeometry x="138.09" y="585" width="116.06" height="30" as="geometry" />
        </mxCell>
        <mxCell id="2kREBUdH7p19kiy_EeAZ-494" value="&lt;font style=&quot;font-size: 16px;&quot;&gt;&lt;span&gt;batch_size = 3&lt;/span&gt;&lt;/font&gt;" style="text;html=1;align=center;verticalAlign=middle;whiteSpace=wrap;rounded=0;fontStyle=0" vertex="1" parent="1">
          <mxGeometry x="11.97" y="520" width="116.06" height="30" as="geometry" />
        </mxCell>
        <mxCell id="2kREBUdH7p19kiy_EeAZ-495" value="&lt;font style=&quot;font-size: 16px;&quot;&gt;&lt;span&gt;attention_mask&lt;/span&gt;&lt;/font&gt;" style="text;html=1;align=center;verticalAlign=middle;whiteSpace=wrap;rounded=0;fontStyle=0" vertex="1" parent="1">
          <mxGeometry x="143.03" y="335" width="116.06" height="30" as="geometry" />
        </mxCell>
        <mxCell id="2kREBUdH7p19kiy_EeAZ-497" value="&lt;font style=&quot;font-size: 16px;&quot;&gt;&lt;span&gt;attention_mask&lt;/span&gt;&lt;/font&gt;" style="text;html=1;align=center;verticalAlign=middle;whiteSpace=wrap;rounded=0;fontStyle=0" vertex="1" parent="1">
          <mxGeometry x="138.09" y="475" width="116.06" height="30" as="geometry" />
        </mxCell>
        <mxCell id="2kREBUdH7p19kiy_EeAZ-498" value="&lt;font style=&quot;font-size: 16px;&quot;&gt;&lt;span&gt;attention_mask&lt;/span&gt;&lt;/font&gt;" style="text;html=1;align=center;verticalAlign=middle;whiteSpace=wrap;rounded=0;fontStyle=0" vertex="1" parent="1">
          <mxGeometry x="138.09" y="615" width="116.06" height="30" as="geometry" />
        </mxCell>
        <mxCell id="2kREBUdH7p19kiy_EeAZ-501" value="" style="rounded=0;whiteSpace=wrap;html=1;fontSize=10;fillColor=#f9f7ed;strokeColor=#36393d;" vertex="1" parent="1">
          <mxGeometry x="51.97" y="1345" width="20" height="20" as="geometry" />
        </mxCell>
        <mxCell id="2kREBUdH7p19kiy_EeAZ-502" value="False" style="text;html=1;align=center;verticalAlign=middle;whiteSpace=wrap;rounded=0;" vertex="1" parent="1">
          <mxGeometry x="61.97" y="1340" width="60" height="30" as="geometry" />
        </mxCell>
        <mxCell id="2kREBUdH7p19kiy_EeAZ-503" value="" style="rounded=0;whiteSpace=wrap;html=1;fillColor=#999999;strokeColor=default;fontColor=#333333;fontSize=10;align=center;verticalAlign=middle;fontFamily=Helvetica;" vertex="1" parent="1">
          <mxGeometry x="51.97" y="1375" width="20" height="20" as="geometry" />
        </mxCell>
        <mxCell id="2kREBUdH7p19kiy_EeAZ-504" value="True" style="text;html=1;align=center;verticalAlign=middle;whiteSpace=wrap;rounded=0;" vertex="1" parent="1">
          <mxGeometry x="63.41" y="1370" width="48.56" height="30" as="geometry" />
        </mxCell>
        <mxCell id="2kREBUdH7p19kiy_EeAZ-505" value="" style="rounded=0;whiteSpace=wrap;html=1;fillColor=#009900;strokeColor=default;fontColor=#333333;fontSize=10;" vertex="1" parent="1">
          <mxGeometry x="141.07000000000002" y="1345" width="20" height="20" as="geometry" />
        </mxCell>
        <mxCell id="2kREBUdH7p19kiy_EeAZ-506" value="Text Token" style="text;html=1;align=center;verticalAlign=middle;whiteSpace=wrap;rounded=0;" vertex="1" parent="1">
          <mxGeometry x="161.97" y="1340" width="60" height="30" as="geometry" />
        </mxCell>
        <mxCell id="2kREBUdH7p19kiy_EeAZ-507" value="" style="rounded=0;whiteSpace=wrap;html=1;fillColor=#0066CC;strokeColor=default;fontColor=#333333;fontSize=10;strokeWidth=1;align=center;verticalAlign=middle;fontFamily=Helvetica;" vertex="1" parent="1">
          <mxGeometry x="140.62000000000003" y="1375" width="20" height="20" as="geometry" />
        </mxCell>
        <mxCell id="2kREBUdH7p19kiy_EeAZ-508" value="Audio Token" style="text;html=1;align=center;verticalAlign=middle;whiteSpace=wrap;rounded=0;" vertex="1" parent="1">
          <mxGeometry x="161.52" y="1370" width="70.45" height="30" as="geometry" />
        </mxCell>
        <mxCell id="2kREBUdH7p19kiy_EeAZ-509" value="" style="rounded=0;whiteSpace=wrap;html=1;fillColor=#f8cecc;strokeColor=#b85450;fontSize=10;" vertex="1" parent="1">
          <mxGeometry x="259.09000000000003" y="1345" width="20" height="20" as="geometry" />
        </mxCell>
        <mxCell id="2kREBUdH7p19kiy_EeAZ-510" value="Pad" style="text;html=1;align=center;verticalAlign=middle;whiteSpace=wrap;rounded=0;" vertex="1" parent="1">
          <mxGeometry x="284.53" y="1340" width="31.44" height="30" as="geometry" />
        </mxCell>
        <mxCell id="2kREBUdH7p19kiy_EeAZ-511" value="" style="rounded=0;whiteSpace=wrap;html=1;fillColor=#f5f5f5;strokeColor=default;fontColor=#333333;fontSize=10;" vertex="1" parent="1">
          <mxGeometry x="259.09000000000003" y="1375" width="20" height="20" as="geometry" />
        </mxCell>
        <mxCell id="2kREBUdH7p19kiy_EeAZ-512" value="Pad Token" style="text;html=1;align=center;verticalAlign=middle;whiteSpace=wrap;rounded=0;" vertex="1" parent="1">
          <mxGeometry x="281.97" y="1370" width="70" height="30" as="geometry" />
        </mxCell>
        <mxCell id="2kREBUdH7p19kiy_EeAZ-518" value="&lt;b&gt;&lt;font&gt;forward&lt;/font&gt;&lt;/b&gt;" style="text;html=1;align=center;verticalAlign=middle;whiteSpace=wrap;rounded=0;fontSize=15;" vertex="1" parent="1">
          <mxGeometry x="40" y="1070" width="60" height="30" as="geometry" />
        </mxCell>
        <mxCell id="2kREBUdH7p19kiy_EeAZ-519" value="bos" style="rounded=0;whiteSpace=wrap;html=1;fillColor=#99CCFF;strokeColor=default;fontColor=#333333;fontSize=10;align=center;verticalAlign=middle;fontFamily=Helvetica;" vertex="1" parent="1">
          <mxGeometry x="470" y="1000" width="20" height="20" as="geometry" />
        </mxCell>
        <mxCell id="2kREBUdH7p19kiy_EeAZ-520" value="bos" style="rounded=0;whiteSpace=wrap;html=1;fillColor=#99FF99;strokeColor=default;fontColor=#333333;fontSize=10;align=center;verticalAlign=middle;fontFamily=Helvetica;" vertex="1" parent="1">
          <mxGeometry x="470" y="1030" width="20" height="20" as="geometry" />
        </mxCell>
        <mxCell id="2kREBUdH7p19kiy_EeAZ-521" value="" style="rounded=0;whiteSpace=wrap;html=1;fillColor=#f5f5f5;strokeColor=default;fontColor=#333333;fontSize=10;" vertex="1" parent="1">
          <mxGeometry x="500" y="1030" width="20" height="20" as="geometry" />
        </mxCell>
        <mxCell id="2kREBUdH7p19kiy_EeAZ-522" value="" style="rounded=0;whiteSpace=wrap;html=1;fontSize=10;align=center;verticalAlign=middle;fontFamily=Helvetica;strokeWidth=1;" vertex="1" parent="1">
          <mxGeometry x="500" y="1000" width="20" height="20" as="geometry" />
        </mxCell>
        <mxCell id="2kREBUdH7p19kiy_EeAZ-523" value="" style="rounded=0;whiteSpace=wrap;html=1;fontSize=10;align=center;verticalAlign=middle;fontFamily=Helvetica;strokeWidth=1;" vertex="1" parent="1">
          <mxGeometry x="530" y="1000" width="20" height="20" as="geometry" />
        </mxCell>
        <mxCell id="2kREBUdH7p19kiy_EeAZ-524" value="" style="rounded=0;whiteSpace=wrap;html=1;fillColor=#f5f5f5;strokeColor=default;fontColor=#333333;fontSize=10;" vertex="1" parent="1">
          <mxGeometry x="530" y="1030" width="20" height="20" as="geometry" />
        </mxCell>
        <mxCell id="2kREBUdH7p19kiy_EeAZ-525" value="" style="rounded=0;whiteSpace=wrap;html=1;fillColor=#f5f5f5;strokeColor=default;fontColor=#333333;fontSize=10;" vertex="1" parent="1">
          <mxGeometry x="560" y="1030" width="20" height="20" as="geometry" />
        </mxCell>
        <mxCell id="2kREBUdH7p19kiy_EeAZ-526" value="" style="rounded=0;whiteSpace=wrap;html=1;fontSize=10;align=center;verticalAlign=middle;fontFamily=Helvetica;strokeWidth=1;" vertex="1" parent="1">
          <mxGeometry x="560" y="1000" width="20" height="20" as="geometry" />
        </mxCell>
        <mxCell id="2kREBUdH7p19kiy_EeAZ-527" value="" style="rounded=0;whiteSpace=wrap;html=1;fontSize=10;align=center;verticalAlign=middle;fontFamily=Helvetica;strokeWidth=1;" vertex="1" parent="1">
          <mxGeometry x="590" y="1000" width="20" height="20" as="geometry" />
        </mxCell>
        <mxCell id="2kREBUdH7p19kiy_EeAZ-528" value="" style="rounded=0;whiteSpace=wrap;html=1;fillColor=#f5f5f5;strokeColor=default;fontColor=#333333;fontSize=10;" vertex="1" parent="1">
          <mxGeometry x="590" y="1030" width="20" height="20" as="geometry" />
        </mxCell>
        <mxCell id="2kREBUdH7p19kiy_EeAZ-529" value="" style="rounded=0;whiteSpace=wrap;html=1;fillColor=#f5f5f5;strokeColor=default;fontColor=#333333;fontSize=10;" vertex="1" parent="1">
          <mxGeometry x="620" y="1030" width="20" height="20" as="geometry" />
        </mxCell>
        <mxCell id="2kREBUdH7p19kiy_EeAZ-530" value="" style="rounded=0;whiteSpace=wrap;html=1;fontSize=10;align=center;verticalAlign=middle;fontFamily=Helvetica;strokeWidth=1;" vertex="1" parent="1">
          <mxGeometry x="620" y="1000" width="20" height="20" as="geometry" />
        </mxCell>
        <mxCell id="2kREBUdH7p19kiy_EeAZ-531" value="" style="rounded=0;whiteSpace=wrap;html=1;fontSize=10;align=center;verticalAlign=middle;fontFamily=Helvetica;strokeWidth=1;" vertex="1" parent="1">
          <mxGeometry x="650" y="1000" width="20" height="20" as="geometry" />
        </mxCell>
        <mxCell id="2kREBUdH7p19kiy_EeAZ-532" value="" style="rounded=0;whiteSpace=wrap;html=1;fillColor=#f5f5f5;strokeColor=default;fontColor=#333333;fontSize=10;" vertex="1" parent="1">
          <mxGeometry x="650" y="1030" width="20" height="20" as="geometry" />
        </mxCell>
        <mxCell id="2kREBUdH7p19kiy_EeAZ-533" value="eos" style="rounded=0;whiteSpace=wrap;html=1;fillColor=#99FF99;strokeColor=default;fontColor=#333333;fontSize=10;align=center;verticalAlign=middle;fontFamily=Helvetica;" vertex="1" parent="1">
          <mxGeometry x="680" y="1030" width="20" height="20" as="geometry" />
        </mxCell>
        <mxCell id="2kREBUdH7p19kiy_EeAZ-534" value="eos" style="rounded=0;whiteSpace=wrap;html=1;fillColor=#99CCFF;strokeColor=default;fontColor=#333333;fontSize=10;align=center;verticalAlign=middle;fontFamily=Helvetica;" vertex="1" parent="1">
          <mxGeometry x="680" y="1000" width="20" height="20" as="geometry" />
        </mxCell>
        <mxCell id="2kREBUdH7p19kiy_EeAZ-535" value="ans" style="rounded=0;whiteSpace=wrap;html=1;fillColor=#99CCFF;strokeColor=default;fontColor=#333333;fontSize=10;align=center;verticalAlign=middle;fontFamily=Helvetica;" vertex="1" parent="1">
          <mxGeometry x="710" y="1000" width="20" height="20" as="geometry" />
        </mxCell>
        <mxCell id="2kREBUdH7p19kiy_EeAZ-536" value="ans" style="rounded=0;whiteSpace=wrap;html=1;fillColor=#99FF99;strokeColor=default;fontColor=#333333;fontSize=10;" vertex="1" parent="1">
          <mxGeometry x="710" y="1030" width="20" height="20" as="geometry" />
        </mxCell>
        <mxCell id="2kREBUdH7p19kiy_EeAZ-537" value="" style="rounded=0;whiteSpace=wrap;html=1;fillColor=#009900;strokeColor=default;fontColor=#333333;fontSize=10;strokeWidth=3;" vertex="1" parent="1">
          <mxGeometry x="740" y="1030" width="20" height="20" as="geometry" />
        </mxCell>
        <mxCell id="2kREBUdH7p19kiy_EeAZ-538" value="" style="rounded=0;whiteSpace=wrap;html=1;fillColor=#f5f5f5;strokeColor=default;fontColor=#333333;fontSize=10;strokeWidth=3;" vertex="1" parent="1">
          <mxGeometry x="740" y="1000" width="20" height="20" as="geometry" />
        </mxCell>
        <mxCell id="2kREBUdH7p19kiy_EeAZ-539" value="" style="rounded=0;whiteSpace=wrap;html=1;fillColor=#0066CC;strokeColor=default;fontColor=#333333;fontSize=10;strokeWidth=3;" vertex="1" parent="1">
          <mxGeometry x="770" y="1000" width="20" height="20" as="geometry" />
        </mxCell>
        <mxCell id="2kREBUdH7p19kiy_EeAZ-540" value="" style="rounded=0;whiteSpace=wrap;html=1;fillColor=#009900;strokeColor=default;fontColor=#333333;fontSize=10;strokeWidth=3;" vertex="1" parent="1">
          <mxGeometry x="770" y="1030" width="20" height="20" as="geometry" />
        </mxCell>
        <mxCell id="2kREBUdH7p19kiy_EeAZ-541" value="" style="rounded=0;whiteSpace=wrap;html=1;fillColor=#009900;strokeColor=default;fontColor=#333333;fontSize=10;strokeWidth=3;" vertex="1" parent="1">
          <mxGeometry x="800" y="1030" width="20" height="20" as="geometry" />
        </mxCell>
        <mxCell id="2kREBUdH7p19kiy_EeAZ-542" value="" style="rounded=0;whiteSpace=wrap;html=1;fillColor=#0066CC;strokeColor=default;fontColor=#333333;fontSize=10;strokeWidth=3;" vertex="1" parent="1">
          <mxGeometry x="800" y="1000" width="20" height="20" as="geometry" />
        </mxCell>
        <mxCell id="2kREBUdH7p19kiy_EeAZ-543" value="" style="rounded=0;whiteSpace=wrap;html=1;fillColor=#0066CC;strokeColor=default;fontColor=#333333;fontSize=10;strokeWidth=3;" vertex="1" parent="1">
          <mxGeometry x="830" y="1000" width="20" height="20" as="geometry" />
        </mxCell>
        <mxCell id="2kREBUdH7p19kiy_EeAZ-544" value="" style="rounded=0;whiteSpace=wrap;html=1;fillColor=#f5f5f5;strokeColor=default;fontColor=#333333;fontSize=10;align=center;verticalAlign=middle;fontFamily=Helvetica;" vertex="1" parent="1">
          <mxGeometry x="860" y="1030" width="20" height="20" as="geometry" />
        </mxCell>
        <mxCell id="2kREBUdH7p19kiy_EeAZ-545" value="" style="rounded=0;whiteSpace=wrap;html=1;fillColor=#0066CC;strokeColor=default;fontColor=#333333;fontSize=10;strokeWidth=3;" vertex="1" parent="1">
          <mxGeometry x="860" y="1000" width="20" height="20" as="geometry" />
        </mxCell>
        <mxCell id="2kREBUdH7p19kiy_EeAZ-546" value="" style="rounded=0;whiteSpace=wrap;html=1;fillColor=#0066CC;strokeColor=default;fontColor=#333333;fontSize=10;strokeWidth=3;" vertex="1" parent="1">
          <mxGeometry x="890" y="1000" width="20" height="20" as="geometry" />
        </mxCell>
        <mxCell id="2kREBUdH7p19kiy_EeAZ-547" value="" style="rounded=0;whiteSpace=wrap;html=1;fillColor=#f5f5f5;strokeColor=default;fontColor=#333333;fontSize=10;align=center;verticalAlign=middle;fontFamily=Helvetica;" vertex="1" parent="1">
          <mxGeometry x="890" y="1030" width="20" height="20" as="geometry" />
        </mxCell>
        <mxCell id="2kREBUdH7p19kiy_EeAZ-548" value="" style="rounded=0;whiteSpace=wrap;html=1;fillColor=#f5f5f5;strokeColor=default;fontColor=#333333;fontSize=10;align=center;verticalAlign=middle;fontFamily=Helvetica;" vertex="1" parent="1">
          <mxGeometry x="920" y="1030" width="20" height="20" as="geometry" />
        </mxCell>
        <mxCell id="2kREBUdH7p19kiy_EeAZ-549" value="" style="rounded=0;whiteSpace=wrap;html=1;fillColor=#0066CC;strokeColor=default;fontColor=#333333;fontSize=10;strokeWidth=3;" vertex="1" parent="1">
          <mxGeometry x="920" y="1000" width="20" height="20" as="geometry" />
        </mxCell>
        <mxCell id="2kREBUdH7p19kiy_EeAZ-550" value="" style="rounded=0;whiteSpace=wrap;html=1;fillColor=#f5f5f5;strokeColor=default;fontColor=#333333;fontSize=10;align=center;verticalAlign=middle;fontFamily=Helvetica;" vertex="1" parent="1">
          <mxGeometry x="950" y="1030" width="20" height="20" as="geometry" />
        </mxCell>
        <mxCell id="2kREBUdH7p19kiy_EeAZ-551" value="" style="rounded=0;whiteSpace=wrap;html=1;fillColor=#f8cecc;strokeColor=#b85450;fontSize=10;align=center;verticalAlign=middle;fontFamily=Helvetica;" vertex="1" parent="1">
          <mxGeometry x="980" y="1030" width="20" height="20" as="geometry" />
        </mxCell>
        <mxCell id="2kREBUdH7p19kiy_EeAZ-552" value="eos" style="rounded=0;whiteSpace=wrap;html=1;fillColor=#99CCFF;strokeColor=default;fontColor=#333333;fontSize=10;align=center;verticalAlign=middle;fontFamily=Helvetica;strokeWidth=3;" vertex="1" parent="1">
          <mxGeometry x="950" y="1000" width="20" height="20" as="geometry" />
        </mxCell>
        <mxCell id="2kREBUdH7p19kiy_EeAZ-553" value="eos" style="rounded=0;whiteSpace=wrap;html=1;fillColor=#99FF99;strokeColor=default;fontColor=#333333;fontSize=10;strokeWidth=3;" vertex="1" parent="1">
          <mxGeometry x="830" y="1030" width="20" height="20" as="geometry" />
        </mxCell>
        <mxCell id="2kREBUdH7p19kiy_EeAZ-554" value="eos" style="rounded=0;whiteSpace=wrap;html=1;fillColor=#99FF99;strokeColor=default;fontColor=#333333;fontSize=10;align=center;verticalAlign=middle;fontFamily=Helvetica;" vertex="1" parent="1">
          <mxGeometry x="440" y="1030" width="20" height="20" as="geometry" />
        </mxCell>
        <mxCell id="2kREBUdH7p19kiy_EeAZ-555" value="" style="rounded=0;whiteSpace=wrap;html=1;fillColor=#009900;strokeColor=default;fontColor=#333333;fontSize=10;" vertex="1" parent="1">
          <mxGeometry x="380" y="1030" width="20" height="20" as="geometry" />
        </mxCell>
        <mxCell id="2kREBUdH7p19kiy_EeAZ-556" value="bos" style="rounded=0;whiteSpace=wrap;html=1;fillColor=#99FF99;strokeColor=default;fontColor=#333333;fontSize=10;align=center;verticalAlign=middle;fontFamily=Helvetica;" vertex="1" parent="1">
          <mxGeometry x="350" y="1030" width="20" height="20" as="geometry" />
        </mxCell>
        <mxCell id="2kREBUdH7p19kiy_EeAZ-557" value="" style="rounded=0;whiteSpace=wrap;html=1;fillColor=#f5f5f5;strokeColor=default;fontColor=#333333;fontSize=10;align=center;verticalAlign=middle;fontFamily=Helvetica;" vertex="1" parent="1">
          <mxGeometry x="350" y="1000" width="20" height="20" as="geometry" />
        </mxCell>
        <mxCell id="2kREBUdH7p19kiy_EeAZ-558" value="" style="rounded=0;whiteSpace=wrap;html=1;fillColor=#f5f5f5;strokeColor=default;fontColor=#333333;fontSize=10;align=center;verticalAlign=middle;fontFamily=Helvetica;" vertex="1" parent="1">
          <mxGeometry x="380" y="1000" width="20" height="20" as="geometry" />
        </mxCell>
        <mxCell id="2kREBUdH7p19kiy_EeAZ-559" value="" style="rounded=0;whiteSpace=wrap;html=1;fillColor=#f5f5f5;strokeColor=default;fontColor=#333333;fontSize=10;align=center;verticalAlign=middle;fontFamily=Helvetica;" vertex="1" parent="1">
          <mxGeometry x="440" y="1000" width="20" height="20" as="geometry" />
        </mxCell>
        <mxCell id="2kREBUdH7p19kiy_EeAZ-560" value="" style="rounded=0;whiteSpace=wrap;html=1;fillColor=#009900;strokeColor=default;fontColor=#333333;fontSize=10;" vertex="1" parent="1">
          <mxGeometry x="410" y="1030" width="20" height="20" as="geometry" />
        </mxCell>
        <mxCell id="2kREBUdH7p19kiy_EeAZ-561" value="" style="rounded=0;whiteSpace=wrap;html=1;fillColor=#f5f5f5;strokeColor=default;fontColor=#333333;fontSize=10;align=center;verticalAlign=middle;fontFamily=Helvetica;" vertex="1" parent="1">
          <mxGeometry x="410" y="1000" width="20" height="20" as="geometry" />
        </mxCell>
        <mxCell id="2kREBUdH7p19kiy_EeAZ-562" value="" style="rounded=0;whiteSpace=wrap;html=1;fillColor=#f8cecc;strokeColor=#b85450;fontSize=10;" vertex="1" parent="1">
          <mxGeometry x="260" y="1000" width="20" height="20" as="geometry" />
        </mxCell>
        <mxCell id="2kREBUdH7p19kiy_EeAZ-563" value="" style="rounded=0;whiteSpace=wrap;html=1;fillColor=#f8cecc;strokeColor=#b85450;fontSize=10;" vertex="1" parent="1">
          <mxGeometry x="290" y="1000" width="20" height="20" as="geometry" />
        </mxCell>
        <mxCell id="2kREBUdH7p19kiy_EeAZ-564" value="" style="rounded=0;whiteSpace=wrap;html=1;fillColor=#f8cecc;strokeColor=#b85450;fontSize=10;" vertex="1" parent="1">
          <mxGeometry x="320" y="1000" width="20" height="20" as="geometry" />
        </mxCell>
        <mxCell id="2kREBUdH7p19kiy_EeAZ-565" value="" style="rounded=0;whiteSpace=wrap;html=1;fillColor=#f8cecc;strokeColor=#b85450;fontSize=10;" vertex="1" parent="1">
          <mxGeometry x="320" y="1030" width="20" height="20" as="geometry" />
        </mxCell>
        <mxCell id="2kREBUdH7p19kiy_EeAZ-566" value="" style="rounded=0;whiteSpace=wrap;html=1;fillColor=#f8cecc;strokeColor=#b85450;fontSize=10;" vertex="1" parent="1">
          <mxGeometry x="290" y="1030" width="20" height="20" as="geometry" />
        </mxCell>
        <mxCell id="2kREBUdH7p19kiy_EeAZ-567" value="" style="rounded=0;whiteSpace=wrap;html=1;fillColor=#f8cecc;strokeColor=#b85450;fontSize=10;" vertex="1" parent="1">
          <mxGeometry x="260" y="1030" width="20" height="20" as="geometry" />
        </mxCell>
        <mxCell id="2kREBUdH7p19kiy_EeAZ-568" value="" style="rounded=0;whiteSpace=wrap;html=1;fillColor=#f8cecc;strokeColor=#b85450;fontSize=10;" vertex="1" parent="1">
          <mxGeometry x="1010" y="1000" width="20" height="20" as="geometry" />
        </mxCell>
        <mxCell id="2kREBUdH7p19kiy_EeAZ-569" value="" style="rounded=0;whiteSpace=wrap;html=1;fillColor=#f8cecc;strokeColor=#b85450;fontSize=10;" vertex="1" parent="1">
          <mxGeometry x="1010" y="1030" width="20" height="20" as="geometry" />
        </mxCell>
        <mxCell id="2kREBUdH7p19kiy_EeAZ-622" value="" style="rounded=0;whiteSpace=wrap;html=1;fillColor=#f8cecc;strokeColor=#b85450;fontSize=10;align=center;verticalAlign=middle;fontFamily=Helvetica;" vertex="1" parent="1">
          <mxGeometry x="980" y="1000" width="20" height="20" as="geometry" />
        </mxCell>
        <mxCell id="2kREBUdH7p19kiy_EeAZ-625" style="edgeStyle=orthogonalEdgeStyle;rounded=0;orthogonalLoop=1;jettySize=auto;html=1;exitX=0.5;exitY=1;exitDx=0;exitDy=0;entryX=0.5;entryY=0;entryDx=0;entryDy=0;" edge="1" parent="1" source="2kREBUdH7p19kiy_EeAZ-623" target="2kREBUdH7p19kiy_EeAZ-624">
          <mxGeometry relative="1" as="geometry" />
        </mxCell>
        <mxCell id="2kREBUdH7p19kiy_EeAZ-623" value="audio_mel" style="rounded=0;whiteSpace=wrap;html=1;fillColor=#dae8fc;strokeColor=#6c8ebf;fontSize=10;align=center;verticalAlign=middle;fontFamily=Helvetica;strokeWidth=1;" vertex="1" parent="1">
          <mxGeometry x="500" y="750" width="170" height="20" as="geometry" />
        </mxCell>
        <mxCell id="2kREBUdH7p19kiy_EeAZ-627" style="edgeStyle=orthogonalEdgeStyle;rounded=0;orthogonalLoop=1;jettySize=auto;html=1;exitX=0.5;exitY=1;exitDx=0;exitDy=0;entryX=0.5;entryY=0;entryDx=0;entryDy=0;" edge="1" parent="1" source="2kREBUdH7p19kiy_EeAZ-624" target="2kREBUdH7p19kiy_EeAZ-626">
          <mxGeometry relative="1" as="geometry" />
        </mxCell>
        <mxCell id="2kREBUdH7p19kiy_EeAZ-624" value="&lt;b&gt;&lt;font style=&quot;font-size: 14px;&quot;&gt;encoder&lt;/font&gt;&lt;/b&gt;" style="rounded=0;whiteSpace=wrap;html=1;" vertex="1" parent="1">
          <mxGeometry x="500" y="790" width="170" height="30" as="geometry" />
        </mxCell>
        <mxCell id="2kREBUdH7p19kiy_EeAZ-636" style="edgeStyle=orthogonalEdgeStyle;rounded=0;orthogonalLoop=1;jettySize=auto;html=1;exitX=0.5;exitY=1;exitDx=0;exitDy=0;entryX=0.5;entryY=0;entryDx=0;entryDy=0;" edge="1" parent="1" source="2kREBUdH7p19kiy_EeAZ-626" target="2kREBUdH7p19kiy_EeAZ-634">
          <mxGeometry relative="1" as="geometry" />
        </mxCell>
        <mxCell id="2kREBUdH7p19kiy_EeAZ-626" value="encoder_outs" style="rounded=0;whiteSpace=wrap;html=1;fillColor=#dae8fc;strokeColor=#6c8ebf;fontSize=10;align=center;verticalAlign=middle;fontFamily=Helvetica;strokeWidth=1;" vertex="1" parent="1">
          <mxGeometry x="500" y="840" width="170" height="20" as="geometry" />
        </mxCell>
        <mxCell id="2kREBUdH7p19kiy_EeAZ-629" value="" style="shape=curlyBracket;whiteSpace=wrap;html=1;rounded=1;flipH=1;labelPosition=right;verticalLabelPosition=middle;align=left;verticalAlign=middle;" vertex="1" parent="1">
          <mxGeometry x="680" y="750" width="10" height="20" as="geometry" />
        </mxCell>
        <mxCell id="2kREBUdH7p19kiy_EeAZ-630" value="mel_size &lt;font color=&quot;#808080&quot;&gt;80 / 128&lt;/font&gt;" style="text;html=1;align=center;verticalAlign=middle;whiteSpace=wrap;rounded=0;" vertex="1" parent="1">
          <mxGeometry x="685.45" y="755" width="114.55" height="10" as="geometry" />
        </mxCell>
        <mxCell id="2kREBUdH7p19kiy_EeAZ-631" value="" style="shape=curlyBracket;whiteSpace=wrap;html=1;rounded=1;flipH=1;labelPosition=right;verticalLabelPosition=middle;align=left;verticalAlign=middle;" vertex="1" parent="1">
          <mxGeometry x="680" y="840" width="10" height="20" as="geometry" />
        </mxCell>
        <mxCell id="2kREBUdH7p19kiy_EeAZ-632" value="encoder_dim" style="text;html=1;align=center;verticalAlign=middle;whiteSpace=wrap;rounded=0;" vertex="1" parent="1">
          <mxGeometry x="685.45" y="845" width="84.55" height="10" as="geometry" />
        </mxCell>
        <mxCell id="2kREBUdH7p19kiy_EeAZ-633" value="×2 downsampling" style="text;html=1;align=center;verticalAlign=middle;whiteSpace=wrap;rounded=0;" vertex="1" parent="1">
          <mxGeometry x="671" y="790" width="119" height="30" as="geometry" />
        </mxCell>
        <mxCell id="2kREBUdH7p19kiy_EeAZ-637" style="edgeStyle=orthogonalEdgeStyle;rounded=0;orthogonalLoop=1;jettySize=auto;html=1;exitX=0.5;exitY=1;exitDx=0;exitDy=0;entryX=0.5;entryY=0;entryDx=0;entryDy=0;" edge="1" parent="1" source="2kREBUdH7p19kiy_EeAZ-634" target="2kREBUdH7p19kiy_EeAZ-635">
          <mxGeometry relative="1" as="geometry" />
        </mxCell>
        <mxCell id="2kREBUdH7p19kiy_EeAZ-634" value="&lt;font style=&quot;font-size: 14px;&quot;&gt;projector&lt;/font&gt;" style="rounded=0;whiteSpace=wrap;html=1;fontStyle=1" vertex="1" parent="1">
          <mxGeometry x="500" y="880" width="170" height="30" as="geometry" />
        </mxCell>
        <mxCell id="2kREBUdH7p19kiy_EeAZ-635" value="encoder_outs" style="rounded=0;whiteSpace=wrap;html=1;fillColor=#dae8fc;strokeColor=#6c8ebf;fontSize=10;align=center;verticalAlign=middle;fontFamily=Helvetica;strokeWidth=1;" vertex="1" parent="1">
          <mxGeometry x="500" y="930" width="170" height="20" as="geometry" />
        </mxCell>
        <mxCell id="2kREBUdH7p19kiy_EeAZ-638" value="" style="shape=curlyBracket;whiteSpace=wrap;html=1;rounded=1;flipH=1;labelPosition=right;verticalLabelPosition=middle;align=left;verticalAlign=middle;" vertex="1" parent="1">
          <mxGeometry x="682.73" y="930" width="10" height="20" as="geometry" />
        </mxCell>
        <mxCell id="2kREBUdH7p19kiy_EeAZ-639" value="llm_dim" style="text;html=1;align=center;verticalAlign=middle;whiteSpace=wrap;rounded=0;" vertex="1" parent="1">
          <mxGeometry x="688.18" y="935" width="61.82" height="10" as="geometry" />
        </mxCell>
        <mxCell id="2kREBUdH7p19kiy_EeAZ-640" value="×5 downsampling" style="text;html=1;align=center;verticalAlign=middle;whiteSpace=wrap;rounded=0;" vertex="1" parent="1">
          <mxGeometry x="672" y="880" width="119" height="30" as="geometry" />
        </mxCell>
        <mxCell id="2kREBUdH7p19kiy_EeAZ-642" value="&lt;b&gt;&lt;font style=&quot;font-size: 14px;&quot;&gt;Embedding&lt;/font&gt;&lt;/b&gt;" style="rounded=0;whiteSpace=wrap;html=1;" vertex="1" parent="1">
          <mxGeometry x="261" y="1086" width="769" height="30" as="geometry" />
        </mxCell>
        <mxCell id="2kREBUdH7p19kiy_EeAZ-643" value="" style="rounded=0;whiteSpace=wrap;html=1;fillColor=#dae8fc;strokeColor=#6c8ebf;fontSize=10;align=center;verticalAlign=middle;fontFamily=Helvetica;strokeWidth=1;" vertex="1" parent="1">
          <mxGeometry x="260" y="1160" width="766.97" height="20" as="geometry" />
        </mxCell>
        <mxCell id="2kREBUdH7p19kiy_EeAZ-644" value="" style="rounded=0;whiteSpace=wrap;html=1;fillColor=#d5e8d4;strokeColor=#82b366;fontSize=10;align=center;verticalAlign=middle;fontFamily=Helvetica;strokeWidth=1;" vertex="1" parent="1">
          <mxGeometry x="260" y="1190" width="767.97" height="20" as="geometry" />
        </mxCell>
        <mxCell id="2kREBUdH7p19kiy_EeAZ-646" value="" style="html=1;shadow=0;dashed=0;align=center;verticalAlign=middle;shape=mxgraph.arrows2.arrow;dy=0.59;dx=9.68;direction=south;notch=0;" vertex="1" parent="1">
          <mxGeometry x="634.47" y="1124" width="19" height="30" as="geometry" />
        </mxCell>
        <mxCell id="2kREBUdH7p19kiy_EeAZ-647" value="" style="html=1;shadow=0;dashed=0;align=center;verticalAlign=middle;shape=mxgraph.arrows2.arrow;dy=0.59;dx=9.68;direction=south;notch=0;" vertex="1" parent="1">
          <mxGeometry x="634.4100000000001" y="1053" width="19" height="30" as="geometry" />
        </mxCell>
        <mxCell id="2kREBUdH7p19kiy_EeAZ-648" value="encoder_outs" style="rounded=0;whiteSpace=wrap;html=1;fontSize=10;align=center;verticalAlign=middle;fontFamily=Helvetica;strokeWidth=1;fillColor=#dae8fc;strokeColor=#6c8ebf;" vertex="1" parent="1">
          <mxGeometry x="496.97" y="1160" width="170" height="20" as="geometry" />
        </mxCell>
        <mxCell id="2kREBUdH7p19kiy_EeAZ-649" style="edgeStyle=orthogonalEdgeStyle;rounded=0;orthogonalLoop=1;jettySize=auto;html=1;exitX=0;exitY=1;exitDx=0;exitDy=0;entryX=0;entryY=0;entryDx=0;entryDy=0;curved=1;endArrow=none;endFill=0;dashed=1;" edge="1" parent="1" source="2kREBUdH7p19kiy_EeAZ-635" target="2kREBUdH7p19kiy_EeAZ-648">
          <mxGeometry relative="1" as="geometry">
            <Array as="points">
              <mxPoint x="520" y="950" />
              <mxPoint x="520" y="1160" />
            </Array>
          </mxGeometry>
        </mxCell>
        <mxCell id="2kREBUdH7p19kiy_EeAZ-650" style="edgeStyle=orthogonalEdgeStyle;rounded=0;orthogonalLoop=1;jettySize=auto;html=1;exitX=0;exitY=1;exitDx=0;exitDy=0;entryX=0;entryY=0;entryDx=0;entryDy=0;curved=1;endArrow=none;endFill=0;dashed=1;" edge="1" parent="1">
          <mxGeometry relative="1" as="geometry">
            <mxPoint x="666.97" y="950" as="sourcePoint" />
            <mxPoint x="663.97" y="1160" as="targetPoint" />
            <Array as="points">
              <mxPoint x="690" y="950" />
              <mxPoint x="690" y="1160" />
            </Array>
          </mxGeometry>
        </mxCell>
        <mxCell id="2kREBUdH7p19kiy_EeAZ-651" value="&lt;b&gt;&lt;font style=&quot;font-size: 14px;&quot;&gt;LLM&lt;/font&gt;&lt;/b&gt;" style="rounded=0;whiteSpace=wrap;html=1;" vertex="1" parent="1">
          <mxGeometry x="260.99999999999994" y="1260" width="769" height="30" as="geometry" />
        </mxCell>
        <mxCell id="2kREBUdH7p19kiy_EeAZ-652" value="" style="html=1;shadow=0;dashed=0;align=center;verticalAlign=middle;shape=mxgraph.arrows2.arrow;dy=0.59;dx=9.68;direction=south;notch=0;" vertex="1" parent="1">
          <mxGeometry x="635.44" y="1220" width="19" height="30" as="geometry" />
        </mxCell>
        <mxCell id="2kREBUdH7p19kiy_EeAZ-655" value="" style="rounded=0;whiteSpace=wrap;html=1;fillColor=#009900;strokeColor=default;fontColor=#333333;fontSize=10;strokeWidth=3;" vertex="1" parent="1">
          <mxGeometry x="710" y="1345" width="20" height="20" as="geometry" />
        </mxCell>
        <mxCell id="2kREBUdH7p19kiy_EeAZ-656" value="" style="rounded=0;whiteSpace=wrap;html=1;fillColor=#f5f5f5;strokeColor=default;fontColor=#333333;fontSize=10;strokeWidth=3;" vertex="1" parent="1">
          <mxGeometry x="710" y="1315" width="20" height="20" as="geometry" />
        </mxCell>
        <mxCell id="2kREBUdH7p19kiy_EeAZ-657" value="" style="rounded=0;whiteSpace=wrap;html=1;fillColor=#0066CC;strokeColor=default;fontColor=#333333;fontSize=10;strokeWidth=3;" vertex="1" parent="1">
          <mxGeometry x="740" y="1315" width="20" height="20" as="geometry" />
        </mxCell>
        <mxCell id="2kREBUdH7p19kiy_EeAZ-658" value="" style="rounded=0;whiteSpace=wrap;html=1;fillColor=#009900;strokeColor=default;fontColor=#333333;fontSize=10;strokeWidth=3;" vertex="1" parent="1">
          <mxGeometry x="740" y="1345" width="20" height="20" as="geometry" />
        </mxCell>
        <mxCell id="2kREBUdH7p19kiy_EeAZ-659" value="" style="rounded=0;whiteSpace=wrap;html=1;fillColor=#009900;strokeColor=default;fontColor=#333333;fontSize=10;strokeWidth=3;" vertex="1" parent="1">
          <mxGeometry x="770" y="1345" width="20" height="20" as="geometry" />
        </mxCell>
        <mxCell id="2kREBUdH7p19kiy_EeAZ-660" value="" style="rounded=0;whiteSpace=wrap;html=1;fillColor=#0066CC;strokeColor=default;fontColor=#333333;fontSize=10;strokeWidth=3;" vertex="1" parent="1">
          <mxGeometry x="770" y="1315" width="20" height="20" as="geometry" />
        </mxCell>
        <mxCell id="2kREBUdH7p19kiy_EeAZ-661" value="" style="rounded=0;whiteSpace=wrap;html=1;fillColor=#0066CC;strokeColor=default;fontColor=#333333;fontSize=10;strokeWidth=3;" vertex="1" parent="1">
          <mxGeometry x="800" y="1315" width="20" height="20" as="geometry" />
        </mxCell>
        <mxCell id="2kREBUdH7p19kiy_EeAZ-663" value="" style="rounded=0;whiteSpace=wrap;html=1;fillColor=#0066CC;strokeColor=default;fontColor=#333333;fontSize=10;strokeWidth=3;" vertex="1" parent="1">
          <mxGeometry x="830" y="1315" width="20" height="20" as="geometry" />
        </mxCell>
        <mxCell id="2kREBUdH7p19kiy_EeAZ-664" value="" style="rounded=0;whiteSpace=wrap;html=1;fillColor=#0066CC;strokeColor=default;fontColor=#333333;fontSize=10;strokeWidth=3;" vertex="1" parent="1">
          <mxGeometry x="860" y="1315" width="20" height="20" as="geometry" />
        </mxCell>
        <mxCell id="2kREBUdH7p19kiy_EeAZ-667" value="" style="rounded=0;whiteSpace=wrap;html=1;fillColor=#0066CC;strokeColor=default;fontColor=#333333;fontSize=10;strokeWidth=3;" vertex="1" parent="1">
          <mxGeometry x="890" y="1315" width="20" height="20" as="geometry" />
        </mxCell>
        <mxCell id="2kREBUdH7p19kiy_EeAZ-670" value="eos" style="rounded=0;whiteSpace=wrap;html=1;fillColor=#99CCFF;strokeColor=default;fontColor=#333333;fontSize=10;align=center;verticalAlign=middle;fontFamily=Helvetica;strokeWidth=3;" vertex="1" parent="1">
          <mxGeometry x="920" y="1315" width="20" height="20" as="geometry" />
        </mxCell>
        <mxCell id="2kREBUdH7p19kiy_EeAZ-671" value="eos" style="rounded=0;whiteSpace=wrap;html=1;fillColor=#99FF99;strokeColor=default;fontColor=#333333;fontSize=10;strokeWidth=3;" vertex="1" parent="1">
          <mxGeometry x="800" y="1345" width="20" height="20" as="geometry" />
        </mxCell>
        <mxCell id="2kREBUdH7p19kiy_EeAZ-677" style="edgeStyle=orthogonalEdgeStyle;rounded=0;orthogonalLoop=1;jettySize=auto;html=1;exitX=0.5;exitY=1;exitDx=0;exitDy=0;entryX=0.5;entryY=0;entryDx=0;entryDy=0;dashed=1;" edge="1" parent="1" source="2kREBUdH7p19kiy_EeAZ-536" target="2kREBUdH7p19kiy_EeAZ-656">
          <mxGeometry relative="1" as="geometry" />
        </mxCell>
        <mxCell id="2kREBUdH7p19kiy_EeAZ-678" style="edgeStyle=orthogonalEdgeStyle;rounded=0;orthogonalLoop=1;jettySize=auto;html=1;exitX=0.5;exitY=1;exitDx=0;exitDy=0;entryX=0.5;entryY=0;entryDx=0;entryDy=0;dashed=1;" edge="1" parent="1">
          <mxGeometry relative="1" as="geometry">
            <mxPoint x="749.67" y="1050" as="sourcePoint" />
            <mxPoint x="749.67" y="1315" as="targetPoint" />
          </mxGeometry>
        </mxCell>
        <mxCell id="2kREBUdH7p19kiy_EeAZ-679" style="edgeStyle=orthogonalEdgeStyle;rounded=0;orthogonalLoop=1;jettySize=auto;html=1;exitX=0.5;exitY=1;exitDx=0;exitDy=0;entryX=0.5;entryY=0;entryDx=0;entryDy=0;dashed=1;" edge="1" parent="1">
          <mxGeometry relative="1" as="geometry">
            <mxPoint x="779.67" y="1050" as="sourcePoint" />
            <mxPoint x="779.67" y="1315" as="targetPoint" />
          </mxGeometry>
        </mxCell>
        <mxCell id="2kREBUdH7p19kiy_EeAZ-680" style="edgeStyle=orthogonalEdgeStyle;rounded=0;orthogonalLoop=1;jettySize=auto;html=1;exitX=0.5;exitY=1;exitDx=0;exitDy=0;entryX=0.5;entryY=0;entryDx=0;entryDy=0;dashed=1;" edge="1" parent="1">
          <mxGeometry relative="1" as="geometry">
            <mxPoint x="809.67" y="1050" as="sourcePoint" />
            <mxPoint x="809.67" y="1315" as="targetPoint" />
          </mxGeometry>
        </mxCell>
        <mxCell id="2kREBUdH7p19kiy_EeAZ-681" style="edgeStyle=orthogonalEdgeStyle;rounded=0;orthogonalLoop=1;jettySize=auto;html=1;exitX=0.5;exitY=1;exitDx=0;exitDy=0;entryX=0.5;entryY=0;entryDx=0;entryDy=0;dashed=1;" edge="1" parent="1">
          <mxGeometry relative="1" as="geometry">
            <mxPoint x="839.67" y="1050" as="sourcePoint" />
            <mxPoint x="839.67" y="1315" as="targetPoint" />
          </mxGeometry>
        </mxCell>
        <mxCell id="2kREBUdH7p19kiy_EeAZ-682" style="edgeStyle=orthogonalEdgeStyle;rounded=0;orthogonalLoop=1;jettySize=auto;html=1;exitX=0.5;exitY=1;exitDx=0;exitDy=0;entryX=0.5;entryY=0;entryDx=0;entryDy=0;dashed=1;" edge="1" parent="1">
          <mxGeometry relative="1" as="geometry">
            <mxPoint x="869.67" y="1050" as="sourcePoint" />
            <mxPoint x="869.67" y="1315" as="targetPoint" />
          </mxGeometry>
        </mxCell>
        <mxCell id="2kREBUdH7p19kiy_EeAZ-683" style="edgeStyle=orthogonalEdgeStyle;rounded=0;orthogonalLoop=1;jettySize=auto;html=1;exitX=0.5;exitY=1;exitDx=0;exitDy=0;entryX=0.5;entryY=0;entryDx=0;entryDy=0;dashed=1;" edge="1" parent="1">
          <mxGeometry relative="1" as="geometry">
            <mxPoint x="899.67" y="1050" as="sourcePoint" />
            <mxPoint x="899.67" y="1315" as="targetPoint" />
          </mxGeometry>
        </mxCell>
        <mxCell id="2kREBUdH7p19kiy_EeAZ-684" style="edgeStyle=orthogonalEdgeStyle;rounded=0;orthogonalLoop=1;jettySize=auto;html=1;exitX=0.5;exitY=1;exitDx=0;exitDy=0;entryX=0.5;entryY=0;entryDx=0;entryDy=0;dashed=1;" edge="1" parent="1">
          <mxGeometry relative="1" as="geometry">
            <mxPoint x="929.67" y="1050" as="sourcePoint" />
            <mxPoint x="929.67" y="1315" as="targetPoint" />
          </mxGeometry>
        </mxCell>
        <mxCell id="2kREBUdH7p19kiy_EeAZ-686" value="&lt;font style=&quot;font-size: 16px;&quot;&gt;&lt;span&gt;inputs_ids&lt;/span&gt;&lt;/font&gt;" style="text;html=1;align=center;verticalAlign=middle;whiteSpace=wrap;rounded=0;fontStyle=0" vertex="1" parent="1">
          <mxGeometry x="143.94" y="1019.9999999999999" width="116.06" height="15.37" as="geometry" />
        </mxCell>
        <mxCell id="2kREBUdH7p19kiy_EeAZ-687" value="&lt;font style=&quot;font-size: 16px;&quot;&gt;&lt;span&gt;inputs_embedding&lt;/span&gt;&lt;/font&gt;" style="text;html=1;align=center;verticalAlign=middle;whiteSpace=wrap;rounded=0;fontStyle=0" vertex="1" parent="1">
          <mxGeometry x="128.03" y="1180" width="116.06" height="15.37" as="geometry" />
        </mxCell>
      </root>
    </mxGraphModel>
  </diagram>
</mxfile>
